<svg version="1.1" id="Слой_1" xmlns="http://www.w3.org/2000/svg" xmlns:xlink="http://www.w3.org/1999/xlink" x="0px" y="0px"
	 viewBox="0 0 165.6 213.4" style="enable-background:new 0 0 165.6 213.4;" xml:space="preserve">
<g>
	<polygon points="163.1,213.4 162.8,213.1 26.8,77.1 27.5,76.4 27.9,76.8 163.8,212.7 	"/>
	<polygon points="95.3,164.5 95,164.2 0,69.2 0,67.8 0.9,68.6 96,163.8 	"/>
	<path d="M110.6,151.9l21.9,21.9V74.2h-18.3l-0.6,1.2c-0.4,0.9-1.1,1.9-2.2,3.1c-1,1.2-2.3,2.5-3.7,3.8
		c-1.4,1.3-3.5,2.5-6.1,3.6c-2.6,1.1-5.5,1.9-8.7,2.2V102h17.6V151.9z"/>
</g>
</svg>
