<svg version="1.1" id="Слой_1" xmlns="http://www.w3.org/2000/svg" xmlns:xlink="http://www.w3.org/1999/xlink" x="0px" y="0px"
	 viewBox="0 0 165.2 213.4" style="enable-background:new 0 0 165.2 213.4;" xml:space="preserve">
<g>
	<polygon class="st0" points="163.1,213.4 162.8,213.1 26.8,77.1 27.5,76.4 27.9,76.7 163.8,212.7 	"/>
	<polygon class="st0" points="95.3,164.5 95,164.1 0,69.2 0,67.8 0.9,68.6 96,163.8 	"/>
	<g>
		<polygon class="st0" points="153.5,158.3 117.1,158.3 137.6,178.9 153.5,178.9 		"/>
		<path class="st0" d="M101.3,104.1c0.8-2,2.6-4.1,5.3-6.2c2.7-2.1,5.9-3.1,9.6-3.1c4.7,0,8.3,1.2,10.8,3.5c2.6,2.3,3.8,5.6,3.8,9.7
			c0,3.5-1.2,6.7-3.7,9.8c-2.5,3-5.5,5.7-9.1,7.9c-3.6,2.3-7.5,5-11.8,8.2c-2.7,2-5.2,4.1-7.6,6.2l0,0l0,0l14.1,14.1
			c1.6-1.8,3.5-3.6,5.8-5.4c3.9-3.2,7.8-6,11.6-8.5c3.8-2.5,7.5-5.2,11.1-8.2c3.6-3,6.6-6.6,8.8-10.8c2.3-4.2,3.3-9,3.3-14.1
			c0-9.2-3.4-17-10.1-23.4c-6.7-6.3-15.3-9.5-25.7-9.5c-5.3,0-10.2,0.9-14.7,2.6c-4.5,1.7-7.9,3.7-10.3,5.8
			c-2.4,2.1-4.6,4.5-6.4,7.3c-1.9,2.8-3,4.7-3.4,5.8c-0.4,1.1-0.7,2-0.9,2.6l18.3,8.7L101.3,104.1z"/>
	</g>
</g>
</svg>
