<svg version="1.1" id="Слой_1" xmlns="http://www.w3.org/2000/svg" xmlns:xlink="http://www.w3.org/1999/xlink" x="0px" y="0px"
	 viewBox="0 0 163.8 213.4" style="enable-background:new 0 0 163.8 213.4;" xml:space="preserve">

<g id="Слой_x0020_1">
	<polygon class="st0" points="163.1,213.4 162.8,213.1 26.8,77.1 27.5,76.4 27.9,76.8 163.8,212.7 	"/>
	<polygon class="st0" points="95.3,164.5 95,164.2 0,69.2 0,67.8 0.9,68.6 96,163.8 	"/>
	<path class="st4" d="M144.7,124.5c0.5,0.2,1.1,0.5,2,0.8c0.8,0.4,2.3,1.2,4.4,2.6c2.1,1.4,3.9,2.9,5.5,4.7c1.6,1.8,3,4.2,4.4,7.3
		s2,6.5,2,10.2c0,8.4-3.5,15.6-10.5,21.7c-4.1,3.5-8.9,6-14.5,7.5l-17.6-17.6c0.7,0.1,1.5,0.1,2.2,0.1c5.7,0,10-1.2,13-3.7
		c3-2.5,4.5-5.6,4.5-9.4c0-3.8-1.5-7-4.5-9.4c-3-2.5-7.1-3.7-12.3-3.7h-11v-18.3h10.2c4.3,0,7.7-1.1,10.2-3.4c2.5-2.3,3.8-5.3,3.8-9
		c0-3.4-1.2-6.2-3.7-8.4c-2.5-2.2-5.9-3.3-10.2-3.3c-3.7,0-7.2,0.8-10.5,2.4c-3.2,1.6-5.6,3.2-7,4.7l-2.2,2.4L89.9,89.5
		c0.3-0.4,0.7-0.9,1.3-1.6c0.6-0.7,1.9-2,4.1-3.8c2.2-1.8,4.5-3.4,7-4.7c2.5-1.3,5.8-2.5,9.9-3.6c4.1-1.1,8.4-1.7,12.9-1.7
		c10.3,0,18.7,2.7,24.9,8.2c6.3,5.5,9.4,12.2,9.4,20.3c0,3-0.5,5.8-1.5,8.4c-1,2.6-2.2,4.7-3.7,6.3c-1.4,1.6-2.8,3-4.2,4.1
		c-1.4,1.1-2.7,1.9-3.7,2.4L144.7,124.5L144.7,124.5z"/>
</g>
</svg>
