<!DOCTYPE svg PUBLIC "-//W3C//DTD SVG 1.1//EN" "http://www.w3.org/Graphics/SVG/1.1/DTD/svg11.dtd">
<svg version="1.1" xmlns="http://www.w3.org/2000/svg" xmlns:xlink="http://www.w3.org/1999/xlink" x="0px" y="0px" viewBox="0 0 644 587.4"
	 style="enable-background:new 0 0 644 587.4;" xml:space="preserve">
	<style>
		.cls-white {
			fill: #fff;
		}
	</style>
	<g>
		<g>
			<g>
				<g>
					<g>
						<path class="cls-white" d="M461,133.8c-2.9,0-5.3-2.4-5.3-5.3s2.4-5.3,5.3-5.3c2.9,0,5.3,2.4,5.3,5.3S463.9,133.8,461,133.8z
							 M461,124.6c-2.1,0-3.9,1.7-3.9,3.9c0,2.1,1.7,3.9,3.9,3.9c2.1,0,3.9-1.7,3.9-3.9C464.9,126.3,463.1,124.6,461,124.6z"/>
						<path class="cls-white" d="M472.1,112.6c-2.9,0-5.3-2.4-5.3-5.3c0-2.9,2.4-5.3,5.3-5.3c2.9,0,5.3,2.4,5.3,5.3
							C477.4,110.2,475,112.6,472.1,112.6z M472.1,103.4c-2.1,0-3.9,1.7-3.9,3.9c0,2.1,1.7,3.9,3.9,3.9c2.1,0,3.9-1.7,3.9-3.9
							C476,105.1,474.2,103.4,472.1,103.4z"/>
						<path class="cls-white" d="M510.2,133.8c-2.9,0-5.3-2.4-5.3-5.3s2.4-5.3,5.3-5.3c2.9,0,5.3,2.4,5.3,5.3S513.1,133.8,510.2,133.8z
							 M510.2,124.6c-2.1,0-3.9,1.7-3.9,3.9c0,2.1,1.7,3.9,3.9,3.9c2.1,0,3.9-1.7,3.9-3.9C514,126.3,512.3,124.6,510.2,124.6z"/>
						<path class="cls-white" d="M472.1,155c-2.9,0-5.3-2.4-5.3-5.3s2.4-5.3,5.3-5.3c2.9,0,5.3,2.4,5.3,5.3S475,155,472.1,155z
							 M472.1,145.8c-2.1,0-3.9,1.7-3.9,3.9c0,2.1,1.7,3.9,3.9,3.9c2.1,0,3.9-1.7,3.9-3.9C476,147.5,474.2,145.8,472.1,145.8z"/>
						<path class="cls-white" d="M499,155c-2.9,0-5.3-2.4-5.3-5.3s2.4-5.3,5.3-5.3s5.3,2.4,5.3,5.3S502,155,499,155z M499,145.8
							c-2.1,0-3.9,1.7-3.9,3.9c0,2.1,1.7,3.9,3.9,3.9s3.9-1.7,3.9-3.9C502.9,147.5,501.2,145.8,499,145.8z"/>
						<path class="cls-white" d="M498.2,112.6c-2.9,0-5.3-2.4-5.3-5.3c0-2.9,2.4-5.3,5.3-5.3s5.3,2.4,5.3,5.3
							C503.5,110.2,501.1,112.6,498.2,112.6z M498.2,103.4c-2.1,0-3.9,1.7-3.9,3.9c0,2.1,1.7,3.9,3.9,3.9s3.9-1.7,3.9-3.9
							C502.1,105.1,500.3,103.4,498.2,103.4z"/>
						<g>
							<path class="cls-white" d="M491.2,130.1c-0.3,0-0.6,0-0.9-0.1c-0.6,1.4-2,2.3-3.6,2.3c-2.1,0-3.9-1.7-3.9-3.9
								c0-2.1,1.7-3.9,3.9-3.9c0.2,0,0.5,0,0.7,0.1c0.2-0.5,0.5-0.9,0.8-1.2c-0.5-0.1-1-0.2-1.5-0.2c-2.9,0-5.3,2.4-5.3,5.3
								c0,2.9,2.4,5.3,5.3,5.3c2.4,0,4.4-1.5,5-3.7C491.6,130.1,491.4,130.1,491.2,130.1z"/>
							<path class="cls-white" d="M491.2,128.8c0.3,0,0.6-0.1,0.8-0.1c0-0.1,0-0.1,0-0.2c0-1.9-1-3.5-2.4-4.5c-0.4,0.3-0.7,0.7-0.9,1.1
								c1.1,0.7,1.9,1.9,1.9,3.3c0,0.1,0,0.2,0,0.2C490.8,128.7,491,128.8,491.2,128.8z"/>
						</g>
					</g>
				</g>
				<g>
					<g>
						<path class="cls-white" d="M463.2,135.6c-2.9,0-5.3-2.4-5.3-5.3s2.4-5.3,5.3-5.3c2.9,0,5.3,2.4,5.3,5.3S466.1,135.6,463.2,135.6z"/>
						<path class="cls-white" d="M474.3,114.4c-2.9,0-5.3-2.4-5.3-5.3s2.4-5.3,5.3-5.3c2.9,0,5.3,2.4,5.3,5.3S477.2,114.4,474.3,114.4z"/>
						<path class="cls-white" d="M512.3,135.6c-2.9,0-5.3-2.4-5.3-5.3s2.4-5.3,5.3-5.3c2.9,0,5.3,2.4,5.3,5.3S515.2,135.6,512.3,135.6z"/>
						<path class="cls-white" d="M474.3,156.8c-2.9,0-5.3-2.4-5.3-5.3c0-2.9,2.4-5.3,5.3-5.3c2.9,0,5.3,2.4,5.3,5.3
							C479.6,154.4,477.2,156.8,474.3,156.8z"/>
						<path class="cls-white" d="M501.2,156.8c-2.9,0-5.3-2.4-5.3-5.3c0-2.9,2.4-5.3,5.3-5.3s5.3,2.4,5.3,5.3
							C506.5,154.4,504.1,156.8,501.2,156.8z"/>
						<path class="cls-white" d="M500.4,114.4c-2.9,0-5.3-2.4-5.3-5.3s2.4-5.3,5.3-5.3s5.3,2.4,5.3,5.3S503.3,114.4,500.4,114.4z"/>
						<g>
							<path class="cls-white" d="M493.4,132c-0.3,0-0.6,0-0.9-0.1c-0.6,1.4-2,2.3-3.6,2.3c-2.1,0-3.9-1.7-3.9-3.9c0-2.1,1.7-3.9,3.9-3.9
								c0.2,0,0.5,0,0.7,0.1c0.2-0.5,0.5-0.9,0.8-1.2c-0.5-0.1-1-0.2-1.5-0.2c-2.9,0-5.3,2.4-5.3,5.3c0,2.9,2.4,5.3,5.3,5.3
								c2.4,0,4.4-1.5,5-3.7C493.8,131.9,493.6,132,493.4,132z"/>
							<path class="cls-white" d="M493.4,130.6c0.3,0,0.6-0.1,0.8-0.1c0-0.1,0-0.1,0-0.2c0-1.9-1-3.5-2.4-4.5c-0.4,0.3-0.7,0.7-0.9,1.1
								c1.1,0.7,1.9,1.9,1.9,3.3c0,0.1,0,0.2,0,0.2C493,130.6,493.2,130.6,493.4,130.6z"/>
						</g>
					</g>
				</g>
			</g>
			<g>
				<g>
					<g>
						<path class="cls-white" d="M461,197c-2.9,0-5.3-2.4-5.3-5.3s2.4-5.3,5.3-5.3c2.9,0,5.3,2.4,5.3,5.3S463.9,197,461,197z M461,187.8
							c-2.1,0-3.9,1.7-3.9,3.9c0,2.1,1.7,3.9,3.9,3.9c2.1,0,3.9-1.7,3.9-3.9C464.9,189.6,463.1,187.8,461,187.8z"/>
						<path class="cls-white" d="M472.1,175.8c-2.9,0-5.3-2.4-5.3-5.3s2.4-5.3,5.3-5.3c2.9,0,5.3,2.4,5.3,5.3S475,175.8,472.1,175.8z
							 M472.1,166.6c-2.1,0-3.9,1.7-3.9,3.9c0,2.1,1.7,3.9,3.9,3.9c2.1,0,3.9-1.7,3.9-3.9C476,168.4,474.2,166.6,472.1,166.6z"/>
						<path class="cls-white" d="M510.2,197c-2.9,0-5.3-2.4-5.3-5.3s2.4-5.3,5.3-5.3c2.9,0,5.3,2.4,5.3,5.3S513.1,197,510.2,197z
							 M510.2,187.8c-2.1,0-3.9,1.7-3.9,3.9c0,2.1,1.7,3.9,3.9,3.9c2.1,0,3.9-1.7,3.9-3.9C514,189.6,512.3,187.8,510.2,187.8z"/>
						<path class="cls-white" d="M472.1,218.2c-2.9,0-5.3-2.4-5.3-5.3s2.4-5.3,5.3-5.3c2.9,0,5.3,2.4,5.3,5.3S475,218.2,472.1,218.2z
							 M472.1,209c-2.1,0-3.9,1.7-3.9,3.9c0,2.1,1.7,3.9,3.9,3.9c2.1,0,3.9-1.7,3.9-3.9C476,210.8,474.2,209,472.1,209z"/>
						<path class="cls-white" d="M499,218.2c-2.9,0-5.3-2.4-5.3-5.3s2.4-5.3,5.3-5.3s5.3,2.4,5.3,5.3S502,218.2,499,218.2z M499,209
							c-2.1,0-3.9,1.7-3.9,3.9c0,2.1,1.7,3.9,3.9,3.9s3.9-1.7,3.9-3.9C502.9,210.8,501.2,209,499,209z"/>
						<path class="cls-white" d="M498.2,175.8c-2.9,0-5.3-2.4-5.3-5.3s2.4-5.3,5.3-5.3s5.3,2.4,5.3,5.3S501.1,175.8,498.2,175.8z
							 M498.2,166.6c-2.1,0-3.9,1.7-3.9,3.9c0,2.1,1.7,3.9,3.9,3.9s3.9-1.7,3.9-3.9C502.1,168.4,500.3,166.6,498.2,166.6z"/>
						<g>
							<path class="cls-white" d="M491.2,193.4c-0.3,0-0.6,0-0.9-0.1c-0.6,1.4-2,2.3-3.6,2.3c-2.1,0-3.9-1.7-3.9-3.9
								c0-2.1,1.7-3.9,3.9-3.9c0.2,0,0.5,0,0.7,0.1c0.2-0.5,0.5-0.9,0.8-1.2c-0.5-0.1-1-0.2-1.5-0.2c-2.9,0-5.3,2.4-5.3,5.3
								c0,2.9,2.4,5.3,5.3,5.3c2.4,0,4.4-1.5,5-3.7C491.6,193.4,491.4,193.4,491.2,193.4z"/>
							<path class="cls-white" d="M491.2,192c0.3,0,0.6-0.1,0.8-0.1c0-0.1,0-0.1,0-0.2c0-1.9-1-3.5-2.4-4.5c-0.4,0.3-0.7,0.7-0.9,1.1
								c1.1,0.7,1.9,1.9,1.9,3.3c0,0.1,0,0.2,0,0.2C490.8,192,491,192,491.2,192z"/>
						</g>
					</g>
				</g>
				<g>
					<g>
						<path class="cls-white" d="M463.2,198.9c-2.9,0-5.3-2.4-5.3-5.3s2.4-5.3,5.3-5.3c2.9,0,5.3,2.4,5.3,5.3S466.1,198.9,463.2,198.9z"/>
						<path class="cls-white" d="M474.3,177.7c-2.9,0-5.3-2.4-5.3-5.3s2.4-5.3,5.3-5.3c2.9,0,5.3,2.4,5.3,5.3S477.2,177.7,474.3,177.7z"/>
						<path class="cls-white" d="M512.3,198.9c-2.9,0-5.3-2.4-5.3-5.3s2.4-5.3,5.3-5.3c2.9,0,5.3,2.4,5.3,5.3S515.2,198.9,512.3,198.9z"/>
						<path class="cls-white" d="M474.3,220.1c-2.9,0-5.3-2.4-5.3-5.3s2.4-5.3,5.3-5.3c2.9,0,5.3,2.4,5.3,5.3S477.2,220.1,474.3,220.1z"/>
						<path class="cls-white" d="M501.2,220.1c-2.9,0-5.3-2.4-5.3-5.3s2.4-5.3,5.3-5.3s5.3,2.4,5.3,5.3S504.1,220.1,501.2,220.1z"/>
						<path class="cls-white" d="M500.4,177.7c-2.9,0-5.3-2.4-5.3-5.3s2.4-5.3,5.3-5.3s5.3,2.4,5.3,5.3S503.3,177.7,500.4,177.7z"/>
						<g>
							<path class="cls-white" d="M493.4,195.2c-0.3,0-0.6,0-0.9-0.1c-0.6,1.4-2,2.3-3.6,2.3c-2.1,0-3.9-1.7-3.9-3.9
								c0-2.1,1.7-3.9,3.9-3.9c0.2,0,0.5,0,0.7,0.1c0.2-0.5,0.5-0.9,0.8-1.2c-0.5-0.1-1-0.2-1.5-0.2c-2.9,0-5.3,2.4-5.3,5.3
								c0,2.9,2.4,5.3,5.3,5.3c2.4,0,4.4-1.5,5-3.7C493.8,195.2,493.6,195.2,493.4,195.2z"/>
							<path class="cls-white" d="M493.4,193.9c0.3,0,0.6-0.1,0.8-0.1c0-0.1,0-0.1,0-0.2c0-1.9-1-3.5-2.4-4.5c-0.4,0.3-0.7,0.7-0.9,1.1
								c1.1,0.7,1.9,1.9,1.9,3.3c0,0.1,0,0.2,0,0.2C493,193.8,493.2,193.9,493.4,193.9z"/>
						</g>
					</g>
				</g>
			</g>
			<g>
				<g>
					<g>
						<path class="cls-white" d="M584.9,240.9c-2.9,0-5.3-2.4-5.3-5.3s2.4-5.3,5.3-5.3c2.9,0,5.3,2.4,5.3,5.3S587.8,240.9,584.9,240.9z
							 M584.9,231.7c-2.1,0-3.9,1.7-3.9,3.9c0,2.1,1.7,3.9,3.9,3.9c2.1,0,3.9-1.7,3.9-3.9C588.7,233.5,587,231.7,584.9,231.7z"/>
						<path class="cls-white" d="M596,219.7c-2.9,0-5.3-2.4-5.3-5.3s2.4-5.3,5.3-5.3s5.3,2.4,5.3,5.3S598.9,219.7,596,219.7z M596,210.5
							c-2.1,0-3.9,1.7-3.9,3.9c0,2.1,1.7,3.9,3.9,3.9s3.9-1.7,3.9-3.9C599.9,212.3,598.1,210.5,596,210.5z"/>
						<path class="cls-white" d="M634,240.9c-2.9,0-5.3-2.4-5.3-5.3s2.4-5.3,5.3-5.3c2.9,0,5.3,2.4,5.3,5.3S636.9,240.9,634,240.9z
							 M634,231.7c-2.1,0-3.9,1.7-3.9,3.9c0,2.1,1.7,3.9,3.9,3.9c2.1,0,3.9-1.7,3.9-3.9C637.9,233.5,636.2,231.7,634,231.7z"/>
						<path class="cls-white" d="M596,262.1c-2.9,0-5.3-2.4-5.3-5.3c0-2.9,2.4-5.3,5.3-5.3s5.3,2.4,5.3,5.3
							C601.3,259.7,598.9,262.1,596,262.1z M596,252.9c-2.1,0-3.9,1.7-3.9,3.9c0,2.1,1.7,3.9,3.9,3.9s3.9-1.7,3.9-3.9
							C599.9,254.7,598.1,252.9,596,252.9z"/>
						<path class="cls-white" d="M622.9,262.1c-2.9,0-5.3-2.4-5.3-5.3c0-2.9,2.4-5.3,5.3-5.3c2.9,0,5.3,2.4,5.3,5.3
							C628.2,259.7,625.8,262.1,622.9,262.1z M622.9,252.9c-2.1,0-3.9,1.7-3.9,3.9c0,2.1,1.7,3.9,3.9,3.9s3.9-1.7,3.9-3.9
							C626.8,254.7,625.1,252.9,622.9,252.9z"/>
						<path class="cls-white" d="M622.1,219.7c-2.9,0-5.3-2.4-5.3-5.3s2.4-5.3,5.3-5.3c2.9,0,5.3,2.4,5.3,5.3S625,219.7,622.1,219.7z
							 M622.1,210.5c-2.1,0-3.9,1.7-3.9,3.9c0,2.1,1.7,3.9,3.9,3.9s3.9-1.7,3.9-3.9C626,212.3,624.2,210.5,622.1,210.5z"/>
						<g>
							<path class="cls-white" d="M615.1,237.3c-0.3,0-0.6,0-0.9-0.1c-0.6,1.4-2,2.3-3.6,2.3c-2.1,0-3.9-1.7-3.9-3.9
								c0-2.1,1.7-3.9,3.9-3.9c0.2,0,0.5,0,0.7,0.1c0.2-0.5,0.5-0.9,0.8-1.2c-0.5-0.1-1-0.2-1.5-0.2c-2.9,0-5.3,2.4-5.3,5.3
								s2.4,5.3,5.3,5.3c2.4,0,4.4-1.5,5-3.7C615.5,237.3,615.3,237.3,615.1,237.3z"/>
							<path class="cls-white" d="M615.1,235.9c0.3,0,0.6-0.1,0.8-0.1c0-0.1,0-0.1,0-0.2c0-1.9-1-3.5-2.4-4.5c-0.4,0.3-0.7,0.7-0.9,1.1
								c1.1,0.7,1.9,1.9,1.9,3.3c0,0.1,0,0.2,0,0.2C614.7,235.9,614.9,235.9,615.1,235.9z"/>
						</g>
					</g>
				</g>
				<g>
					<g>
						<path class="cls-white" d="M587,242.7c-2.9,0-5.3-2.4-5.3-5.3s2.4-5.3,5.3-5.3c2.9,0,5.3,2.4,5.3,5.3S589.9,242.7,587,242.7z"/>
						<path class="cls-white" d="M598.1,221.5c-2.9,0-5.3-2.4-5.3-5.3s2.4-5.3,5.3-5.3c2.9,0,5.3,2.4,5.3,5.3S601.1,221.5,598.1,221.5z"/>
						<path class="cls-white" d="M636.2,242.7c-2.9,0-5.3-2.4-5.3-5.3s2.4-5.3,5.3-5.3c2.9,0,5.3,2.4,5.3,5.3S639.1,242.7,636.2,242.7z"/>
						<path class="cls-white" d="M598.1,263.9c-2.9,0-5.3-2.4-5.3-5.3c0-2.9,2.4-5.3,5.3-5.3c2.9,0,5.3,2.4,5.3,5.3
							C603.4,261.6,601.1,263.9,598.1,263.9z"/>
						<path class="cls-white" d="M625.1,263.9c-2.9,0-5.3-2.4-5.3-5.3c0-2.9,2.4-5.3,5.3-5.3c2.9,0,5.3,2.4,5.3,5.3
							C630.4,261.6,628,263.9,625.1,263.9z"/>
						<path class="cls-white" d="M624.2,221.5c-2.9,0-5.3-2.4-5.3-5.3s2.4-5.3,5.3-5.3c2.9,0,5.3,2.4,5.3,5.3S627.2,221.5,624.2,221.5z"/>
						<g>
							<path class="cls-white" d="M617.3,239.1c-0.3,0-0.6,0-0.9-0.1c-0.6,1.4-2,2.3-3.6,2.3c-2.1,0-3.9-1.7-3.9-3.9
								c0-2.1,1.7-3.9,3.9-3.9c0.2,0,0.5,0,0.7,0.1c0.2-0.5,0.5-0.9,0.8-1.2c-0.5-0.1-1-0.2-1.5-0.2c-2.9,0-5.3,2.4-5.3,5.3
								s2.4,5.3,5.3,5.3c2.4,0,4.4-1.5,5-3.7C617.6,239.1,617.5,239.1,617.3,239.1z"/>
							<path class="cls-white" d="M617.3,237.7c0.3,0,0.6-0.1,0.8-0.1c0-0.1,0-0.1,0-0.2c0-1.9-1-3.5-2.4-4.5c-0.4,0.3-0.7,0.7-0.9,1.1
								c1.1,0.7,1.9,1.9,1.9,3.3c0,0.1,0,0.2,0,0.2C616.9,237.7,617.1,237.7,617.3,237.7z"/>
						</g>
					</g>
				</g>
			</g>
			<g>
				<g>
					<g>
						<path class="cls-white" d="M522.9,220.6c-2.9,0-5.3-2.4-5.3-5.3s2.4-5.3,5.3-5.3c2.9,0,5.3,2.4,5.3,5.3S525.8,220.6,522.9,220.6z
							 M522.9,211.4c-2.1,0-3.9,1.7-3.9,3.9c0,2.1,1.7,3.9,3.9,3.9c2.1,0,3.9-1.7,3.9-3.9C526.8,213.2,525.1,211.4,522.9,211.4z"/>
						<path class="cls-white" d="M534,199.4c-2.9,0-5.3-2.4-5.3-5.3s2.4-5.3,5.3-5.3s5.3,2.4,5.3,5.3S536.9,199.4,534,199.4z M534,190.2
							c-2.1,0-3.9,1.7-3.9,3.9c0,2.1,1.7,3.9,3.9,3.9s3.9-1.7,3.9-3.9C537.9,192,536.2,190.2,534,190.2z"/>
						<path class="cls-white" d="M572.1,220.6c-2.9,0-5.3-2.4-5.3-5.3s2.4-5.3,5.3-5.3c2.9,0,5.3,2.4,5.3,5.3S575,220.6,572.1,220.6z
							 M572.1,211.4c-2.1,0-3.9,1.7-3.9,3.9c0,2.1,1.7,3.9,3.9,3.9c2.1,0,3.9-1.7,3.9-3.9C576,213.2,574.2,211.4,572.1,211.4z"/>
						<path class="cls-white" d="M534,241.8c-2.9,0-5.3-2.4-5.3-5.3s2.4-5.3,5.3-5.3s5.3,2.4,5.3,5.3S536.9,241.8,534,241.8z M534,232.6
							c-2.1,0-3.9,1.7-3.9,3.9c0,2.1,1.7,3.9,3.9,3.9s3.9-1.7,3.9-3.9C537.9,234.4,536.2,232.6,534,232.6z"/>
						<path class="cls-white" d="M561,241.8c-2.9,0-5.3-2.4-5.3-5.3s2.4-5.3,5.3-5.3c2.9,0,5.3,2.4,5.3,5.3S563.9,241.8,561,241.8z
							 M561,232.6c-2.1,0-3.9,1.7-3.9,3.9c0,2.1,1.7,3.9,3.9,3.9s3.9-1.7,3.9-3.9C564.9,234.4,563.1,232.6,561,232.6z"/>
						<path class="cls-white" d="M560.1,199.4c-2.9,0-5.3-2.4-5.3-5.3s2.4-5.3,5.3-5.3c2.9,0,5.3,2.4,5.3,5.3S563,199.4,560.1,199.4z
							 M560.1,190.2c-2.1,0-3.9,1.7-3.9,3.9c0,2.1,1.7,3.9,3.9,3.9s3.9-1.7,3.9-3.9C564,192,562.3,190.2,560.1,190.2z"/>
						<g>
							<path class="cls-white" d="M553.1,217c-0.3,0-0.6,0-0.9-0.1c-0.6,1.4-2,2.3-3.6,2.3c-2.1,0-3.9-1.7-3.9-3.9c0-2.1,1.7-3.9,3.9-3.9
								c0.2,0,0.5,0,0.7,0.1c0.2-0.5,0.5-0.9,0.8-1.2c-0.5-0.1-1-0.2-1.5-0.2c-2.9,0-5.3,2.4-5.3,5.3s2.4,5.3,5.3,5.3
								c2.4,0,4.4-1.5,5-3.7C553.5,217,553.3,217,553.1,217z"/>
							<path class="cls-white" d="M553.1,215.6c0.3,0,0.6-0.1,0.8-0.1c0-0.1,0-0.1,0-0.2c0-1.9-1-3.5-2.4-4.5c-0.4,0.3-0.7,0.7-0.9,1.1
								c1.1,0.7,1.9,1.9,1.9,3.3c0,0.1,0,0.2,0,0.2C552.7,215.6,552.9,215.6,553.1,215.6z"/>
						</g>
					</g>
				</g>
				<g>
					<g>
						<path class="cls-white" d="M525.1,222.4c-2.9,0-5.3-2.4-5.3-5.3s2.4-5.3,5.3-5.3c2.9,0,5.3,2.4,5.3,5.3S528,222.4,525.1,222.4z"/>
						<path class="cls-white" d="M536.2,201.2c-2.9,0-5.3-2.4-5.3-5.3s2.4-5.3,5.3-5.3c2.9,0,5.3,2.4,5.3,5.3S539.1,201.2,536.2,201.2z"/>
						<path class="cls-white" d="M574.3,222.4c-2.9,0-5.3-2.4-5.3-5.3s2.4-5.3,5.3-5.3c2.9,0,5.3,2.4,5.3,5.3S577.2,222.4,574.3,222.4z"/>
						<path class="cls-white" d="M536.2,243.6c-2.9,0-5.3-2.4-5.3-5.3s2.4-5.3,5.3-5.3c2.9,0,5.3,2.4,5.3,5.3S539.1,243.6,536.2,243.6z"/>
						<path class="cls-white" d="M563.2,243.6c-2.9,0-5.3-2.4-5.3-5.3s2.4-5.3,5.3-5.3c2.9,0,5.3,2.4,5.3,5.3S566.1,243.6,563.2,243.6z"/>
						<path class="cls-white" d="M562.3,201.2c-2.9,0-5.3-2.4-5.3-5.3s2.4-5.3,5.3-5.3c2.9,0,5.3,2.4,5.3,5.3S565.2,201.2,562.3,201.2z"/>
						<g>
							<path class="cls-white" d="M555.3,218.8c-0.3,0-0.6,0-0.9-0.1c-0.6,1.4-2,2.3-3.6,2.3c-2.1,0-3.9-1.7-3.9-3.9
								c0-2.1,1.7-3.9,3.9-3.9c0.2,0,0.5,0,0.7,0.1c0.2-0.5,0.5-0.9,0.8-1.2c-0.5-0.1-1-0.2-1.5-0.2c-2.9,0-5.3,2.4-5.3,5.3
								s2.4,5.3,5.3,5.3c2.4,0,4.4-1.5,5-3.7C555.7,218.8,555.5,218.8,555.3,218.8z"/>
							<path class="cls-white" d="M555.3,217.4c0.3,0,0.6-0.1,0.8-0.1c0-0.1,0-0.1,0-0.2c0-1.9-1-3.5-2.4-4.5c-0.4,0.3-0.7,0.7-0.9,1.1
								c1.1,0.7,1.9,1.9,1.9,3.3c0,0.1,0,0.2,0,0.2C554.9,217.4,555.1,217.4,555.3,217.4z"/>
						</g>
					</g>
				</g>
			</g>
			<g>
				<g>
					<g>
						<path class="cls-white" d="M522.9,283.7c-2.9,0-5.3-2.4-5.3-5.3s2.4-5.3,5.3-5.3c2.9,0,5.3,2.4,5.3,5.3S525.8,283.7,522.9,283.7z
							 M522.9,274.5c-2.1,0-3.9,1.7-3.9,3.9c0,2.1,1.7,3.9,3.9,3.9c2.1,0,3.9-1.7,3.9-3.9C526.8,276.3,525.1,274.5,522.9,274.5z"/>
						<path class="cls-white" d="M534,262.5c-2.9,0-5.3-2.4-5.3-5.3c0-2.9,2.4-5.3,5.3-5.3s5.3,2.4,5.3,5.3
							C539.3,260.1,536.9,262.5,534,262.5z M534,253.3c-2.1,0-3.9,1.7-3.9,3.9c0,2.1,1.7,3.9,3.9,3.9s3.9-1.7,3.9-3.9
							C537.9,255.1,536.2,253.3,534,253.3z"/>
						<path class="cls-white" d="M572.1,283.7c-2.9,0-5.3-2.4-5.3-5.3s2.4-5.3,5.3-5.3c2.9,0,5.3,2.4,5.3,5.3S575,283.7,572.1,283.7z
							 M572.1,274.5c-2.1,0-3.9,1.7-3.9,3.9c0,2.1,1.7,3.9,3.9,3.9c2.1,0,3.9-1.7,3.9-3.9C576,276.3,574.2,274.5,572.1,274.5z"/>
						<path class="cls-white" d="M534,304.9c-2.9,0-5.3-2.4-5.3-5.3s2.4-5.3,5.3-5.3s5.3,2.4,5.3,5.3S536.9,304.9,534,304.9z M534,295.7
							c-2.1,0-3.9,1.7-3.9,3.9c0,2.1,1.7,3.9,3.9,3.9s3.9-1.7,3.9-3.9C537.9,297.5,536.2,295.7,534,295.7z"/>
						<path class="cls-white" d="M561,304.9c-2.9,0-5.3-2.4-5.3-5.3s2.4-5.3,5.3-5.3c2.9,0,5.3,2.4,5.3,5.3S563.9,304.9,561,304.9z
							 M561,295.7c-2.1,0-3.9,1.7-3.9,3.9c0,2.1,1.7,3.9,3.9,3.9s3.9-1.7,3.9-3.9C564.9,297.5,563.1,295.7,561,295.7z"/>
						<path class="cls-white" d="M560.1,262.5c-2.9,0-5.3-2.4-5.3-5.3c0-2.9,2.4-5.3,5.3-5.3c2.9,0,5.3,2.4,5.3,5.3
							C565.4,260.1,563,262.5,560.1,262.5z M560.1,253.3c-2.1,0-3.9,1.7-3.9,3.9c0,2.1,1.7,3.9,3.9,3.9s3.9-1.7,3.9-3.9
							C564,255.1,562.3,253.3,560.1,253.3z"/>
						<g>
							<path class="cls-white" d="M553.1,280.1c-0.3,0-0.6,0-0.9-0.1c-0.6,1.4-2,2.3-3.6,2.3c-2.1,0-3.9-1.7-3.9-3.9
								c0-2.1,1.7-3.9,3.9-3.9c0.2,0,0.5,0,0.7,0.1c0.2-0.5,0.5-0.9,0.8-1.2c-0.5-0.1-1-0.2-1.5-0.2c-2.9,0-5.3,2.4-5.3,5.3
								c0,2.9,2.4,5.3,5.3,5.3c2.4,0,4.4-1.5,5-3.7C553.5,280,553.3,280.1,553.1,280.1z"/>
							<path class="cls-white" d="M553.1,278.7c0.3,0,0.6-0.1,0.8-0.1c0-0.1,0-0.1,0-0.2c0-1.9-1-3.5-2.4-4.5c-0.4,0.3-0.7,0.7-0.9,1.1
								c1.1,0.7,1.9,1.9,1.9,3.3c0,0.1,0,0.2,0,0.2C552.7,278.7,552.9,278.7,553.1,278.7z"/>
						</g>
					</g>
				</g>
				<g>
					<g>
						<path class="cls-white" d="M525.1,285.5c-2.9,0-5.3-2.4-5.3-5.3s2.4-5.3,5.3-5.3c2.9,0,5.3,2.4,5.3,5.3S528,285.5,525.1,285.5z"/>
						<path class="cls-white" d="M536.2,264.3c-2.9,0-5.3-2.4-5.3-5.3s2.4-5.3,5.3-5.3c2.9,0,5.3,2.4,5.3,5.3S539.1,264.3,536.2,264.3z"/>
						<path class="cls-white" d="M574.3,285.5c-2.9,0-5.3-2.4-5.3-5.3s2.4-5.3,5.3-5.3c2.9,0,5.3,2.4,5.3,5.3S577.2,285.5,574.3,285.5z"/>
						<path class="cls-white" d="M536.2,306.7c-2.9,0-5.3-2.4-5.3-5.3s2.4-5.3,5.3-5.3c2.9,0,5.3,2.4,5.3,5.3S539.1,306.7,536.2,306.7z"/>
						<path class="cls-white" d="M563.2,306.7c-2.9,0-5.3-2.4-5.3-5.3s2.4-5.3,5.3-5.3c2.9,0,5.3,2.4,5.3,5.3S566.1,306.7,563.2,306.7z"/>
						<path class="cls-white" d="M562.3,264.3c-2.9,0-5.3-2.4-5.3-5.3s2.4-5.3,5.3-5.3c2.9,0,5.3,2.4,5.3,5.3S565.2,264.3,562.3,264.3z"/>
						<g>
							<path class="cls-white" d="M555.3,281.9c-0.3,0-0.6,0-0.9-0.1c-0.6,1.4-2,2.3-3.6,2.3c-2.1,0-3.9-1.7-3.9-3.9
								c0-2.1,1.7-3.9,3.9-3.9c0.2,0,0.5,0,0.7,0.1c0.2-0.5,0.5-0.9,0.8-1.2c-0.5-0.1-1-0.2-1.5-0.2c-2.9,0-5.3,2.4-5.3,5.3
								c0,2.9,2.4,5.3,5.3,5.3c2.4,0,4.4-1.5,5-3.7C555.7,281.9,555.5,281.9,555.3,281.9z"/>
							<path class="cls-white" d="M555.3,280.5c0.3,0,0.6-0.1,0.8-0.1c0-0.1,0-0.1,0-0.2c0-1.9-1-3.5-2.4-4.5c-0.4,0.3-0.7,0.7-0.9,1.1
								c1.1,0.7,1.9,1.9,1.9,3.3c0,0.1,0,0.2,0,0.2C554.9,280.5,555.1,280.5,555.3,280.5z"/>
						</g>
					</g>
				</g>
			</g>
			<g>
				<g>
					<g>
						<path class="cls-white" d="M400.8,110c-2.9,0-5.3-2.4-5.3-5.3s2.4-5.3,5.3-5.3c2.9,0,5.3,2.4,5.3,5.3S403.7,110,400.8,110z
							 M400.8,100.8c-2.1,0-3.9,1.7-3.9,3.9c0,2.1,1.7,3.9,3.9,3.9c2.1,0,3.9-1.7,3.9-3.9C404.7,102.6,402.9,100.8,400.8,100.8z"/>
						<path class="cls-white" d="M411.9,88.8c-2.9,0-5.3-2.4-5.3-5.3s2.4-5.3,5.3-5.3c2.9,0,5.3,2.4,5.3,5.3S414.8,88.8,411.9,88.8z
							 M411.9,79.6c-2.1,0-3.9,1.7-3.9,3.9c0,2.1,1.7,3.9,3.9,3.9c2.1,0,3.9-1.7,3.9-3.9C415.8,81.4,414.1,79.6,411.9,79.6z"/>
						<path class="cls-white" d="M450,110c-2.9,0-5.3-2.4-5.3-5.3s2.4-5.3,5.3-5.3c2.9,0,5.3,2.4,5.3,5.3S452.9,110,450,110z M450,100.8
							c-2.1,0-3.9,1.7-3.9,3.9c0,2.1,1.7,3.9,3.9,3.9c2.1,0,3.9-1.7,3.9-3.9C453.9,102.6,452.1,100.8,450,100.8z"/>
						<path class="cls-white" d="M411.9,131.2c-2.9,0-5.3-2.4-5.3-5.3c0-2.9,2.4-5.3,5.3-5.3c2.9,0,5.3,2.4,5.3,5.3
							C417.2,128.8,414.8,131.2,411.9,131.2z M411.9,122c-2.1,0-3.9,1.7-3.9,3.9c0,2.1,1.7,3.9,3.9,3.9c2.1,0,3.9-1.7,3.9-3.9
							C415.8,123.8,414.1,122,411.9,122z"/>
						<path class="cls-white" d="M438.9,131.2c-2.9,0-5.3-2.4-5.3-5.3c0-2.9,2.4-5.3,5.3-5.3s5.3,2.4,5.3,5.3
							C444.1,128.8,441.8,131.2,438.9,131.2z M438.9,122c-2.1,0-3.9,1.7-3.9,3.9c0,2.1,1.7,3.9,3.9,3.9s3.9-1.7,3.9-3.9
							C442.8,123.8,441,122,438.9,122z"/>
						<path class="cls-white" d="M438,88.8c-2.9,0-5.3-2.4-5.3-5.3s2.4-5.3,5.3-5.3s5.3,2.4,5.3,5.3S440.9,88.8,438,88.8z M438,79.6
							c-2.1,0-3.9,1.7-3.9,3.9c0,2.1,1.7,3.9,3.9,3.9s3.9-1.7,3.9-3.9C441.9,81.4,440.1,79.6,438,79.6z"/>
						<g>
							<path class="cls-white" d="M431,106.4c-0.3,0-0.6,0-0.9-0.1c-0.6,1.4-2,2.3-3.6,2.3c-2.1,0-3.9-1.7-3.9-3.9c0-2.1,1.7-3.9,3.9-3.9
								c0.2,0,0.5,0,0.7,0.1c0.2-0.5,0.5-0.9,0.8-1.2c-0.5-0.1-1-0.2-1.5-0.2c-2.9,0-5.3,2.4-5.3,5.3s2.4,5.3,5.3,5.3
								c2.4,0,4.4-1.5,5-3.7C431.4,106.4,431.2,106.4,431,106.4z"/>
							<path class="cls-white" d="M431,105c0.3,0,0.6-0.1,0.8-0.1c0-0.1,0-0.1,0-0.2c0-1.9-1-3.5-2.4-4.5c-0.4,0.3-0.7,0.7-0.9,1.1
								c1.1,0.7,1.9,1.9,1.9,3.3c0,0.1,0,0.2,0,0.2C430.6,105,430.8,105,431,105z"/>
						</g>
					</g>
				</g>
				<g>
					<g>
						<path class="cls-white" d="M403,111.8c-2.9,0-5.3-2.4-5.3-5.3s2.4-5.3,5.3-5.3c2.9,0,5.3,2.4,5.3,5.3S405.9,111.8,403,111.8z"/>
						<path class="cls-white" d="M414.1,90.6c-2.9,0-5.3-2.4-5.3-5.3s2.4-5.3,5.3-5.3c2.9,0,5.3,2.4,5.3,5.3S417,90.6,414.1,90.6z"/>
						<path class="cls-white" d="M452.1,111.8c-2.9,0-5.3-2.4-5.3-5.3s2.4-5.3,5.3-5.3c2.9,0,5.3,2.4,5.3,5.3S455.1,111.8,452.1,111.8z"/>
						<path class="cls-white" d="M414.1,133c-2.9,0-5.3-2.4-5.3-5.3c0-2.9,2.4-5.3,5.3-5.3c2.9,0,5.3,2.4,5.3,5.3
							C419.4,130.7,417,133,414.1,133z"/>
						<path class="cls-white" d="M441,133c-2.9,0-5.3-2.4-5.3-5.3c0-2.9,2.4-5.3,5.3-5.3s5.3,2.4,5.3,5.3C446.3,130.7,444,133,441,133z"/>
						<path class="cls-white" d="M440.2,90.6c-2.9,0-5.3-2.4-5.3-5.3s2.4-5.3,5.3-5.3s5.3,2.4,5.3,5.3S443.1,90.6,440.2,90.6z"/>
						<g>
							<path class="cls-white" d="M433.2,108.2c-0.3,0-0.6,0-0.9-0.1c-0.6,1.4-2,2.3-3.6,2.3c-2.1,0-3.9-1.7-3.9-3.9
								c0-2.1,1.7-3.9,3.9-3.9c0.2,0,0.5,0,0.7,0.1c0.2-0.5,0.5-0.9,0.8-1.2c-0.5-0.1-1-0.2-1.5-0.2c-2.9,0-5.3,2.4-5.3,5.3
								s2.4,5.3,5.3,5.3c2.4,0,4.4-1.5,5-3.7C433.6,108.2,433.4,108.2,433.2,108.2z"/>
							<path class="cls-white" d="M433.2,106.8c0.3,0,0.6-0.1,0.8-0.1c0-0.1,0-0.1,0-0.2c0-1.9-1-3.5-2.4-4.5c-0.4,0.3-0.7,0.7-0.9,1.1
								c1.1,0.7,1.9,1.9,1.9,3.3c0,0.1,0,0.2,0,0.2C432.8,106.8,433,106.8,433.2,106.8z"/>
						</g>
					</g>
				</g>
			</g>
		</g>
		<g>
			<g>
				<g>
					<g>
						<path class="cls-white" d="M65,112c-2.9,0-5.3,2.4-5.3,5.3s2.4,5.3,5.3,5.3c2.9,0,5.3-2.4,5.3-5.3S67.9,112,65,112z M65,121.2
							c-2.1,0-3.9-1.7-3.9-3.9c0-2.1,1.7-3.9,3.9-3.9c2.1,0,3.9,1.7,3.9,3.9C68.9,119.4,67.1,121.2,65,121.2z"/>
						<path class="cls-white" d="M76.1,133.2c-2.9,0-5.3,2.4-5.3,5.3s2.4,5.3,5.3,5.3c2.9,0,5.3-2.4,5.3-5.3S79,133.2,76.1,133.2z
							 M76.1,142.4c-2.1,0-3.9-1.7-3.9-3.9c0-2.1,1.7-3.9,3.9-3.9c2.1,0,3.9,1.7,3.9,3.9C80,140.6,78.2,142.4,76.1,142.4z"/>
						<path class="cls-white" d="M114.2,112c-2.9,0-5.3,2.4-5.3,5.3s2.4,5.3,5.3,5.3c2.9,0,5.3-2.4,5.3-5.3S117.1,112,114.2,112z
							 M114.2,121.2c-2.1,0-3.9-1.7-3.9-3.9c0-2.1,1.7-3.9,3.9-3.9c2.1,0,3.9,1.7,3.9,3.9C118,119.4,116.3,121.2,114.2,121.2z"/>
						<path class="cls-white" d="M76.1,90.8c-2.9,0-5.3,2.4-5.3,5.3s2.4,5.3,5.3,5.3c2.9,0,5.3-2.4,5.3-5.3S79,90.8,76.1,90.8z M76.1,99.9
							c-2.1,0-3.9-1.7-3.9-3.9c0-2.1,1.7-3.9,3.9-3.9c2.1,0,3.9,1.7,3.9,3.9C80,98.2,78.2,99.9,76.1,99.9z"/>
						<path class="cls-white" d="M103,90.8c-2.9,0-5.3,2.4-5.3,5.3s2.4,5.3,5.3,5.3c2.9,0,5.3-2.4,5.3-5.3S106,90.8,103,90.8z M103,99.9
							c-2.1,0-3.9-1.7-3.9-3.9c0-2.1,1.7-3.9,3.9-3.9c2.1,0,3.9,1.7,3.9,3.9C106.9,98.2,105.2,99.9,103,99.9z"/>
						<path class="cls-white" d="M102.2,133.2c-2.9,0-5.3,2.4-5.3,5.3s2.4,5.3,5.3,5.3s5.3-2.4,5.3-5.3S105.1,133.2,102.2,133.2z
							 M102.2,142.4c-2.1,0-3.9-1.7-3.9-3.9c0-2.1,1.7-3.9,3.9-3.9s3.9,1.7,3.9,3.9C106.1,140.6,104.3,142.4,102.2,142.4z"/>
						<g>
							<path class="cls-white" d="M95.2,115.6c-0.3,0-0.6,0-0.9,0.1c-0.6-1.4-2-2.3-3.6-2.3c-2.1,0-3.9,1.7-3.9,3.9c0,2.1,1.7,3.9,3.9,3.9
								c0.2,0,0.5,0,0.7-0.1c0.2,0.5,0.5,0.9,0.8,1.2c-0.5,0.1-1,0.2-1.5,0.2c-2.9,0-5.3-2.4-5.3-5.3s2.4-5.3,5.3-5.3
								c2.4,0,4.4,1.5,5,3.7C95.6,115.6,95.4,115.6,95.2,115.6z"/>
							<path class="cls-white" d="M95.2,117c0.3,0,0.6,0.1,0.8,0.1c0,0.1,0,0.1,0,0.2c0,1.9-1,3.5-2.4,4.5c-0.4-0.3-0.7-0.7-0.9-1.1
								c1.1-0.7,1.9-1.9,1.9-3.3c0-0.1,0-0.2,0-0.2C94.8,117,95,117,95.2,117z"/>
						</g>
					</g>
				</g>
				<g>
					<g>
						<path class="cls-white" d="M67.2,110.1c-2.9,0-5.3,2.4-5.3,5.3s2.4,5.3,5.3,5.3c2.9,0,5.3-2.4,5.3-5.3S70.1,110.1,67.2,110.1z"/>
						<path class="cls-white" d="M78.3,131.3c-2.9,0-5.3,2.4-5.3,5.3s2.4,5.3,5.3,5.3c2.9,0,5.3-2.4,5.3-5.3S81.2,131.3,78.3,131.3z"/>
						<path class="cls-white" d="M116.3,110.1c-2.9,0-5.3,2.4-5.3,5.3s2.4,5.3,5.3,5.3c2.9,0,5.3-2.4,5.3-5.3S119.2,110.1,116.3,110.1z"/>
						<path class="cls-white" d="M78.3,88.9c-2.9,0-5.3,2.4-5.3,5.3s2.4,5.3,5.3,5.3c2.9,0,5.3-2.4,5.3-5.3S81.2,88.9,78.3,88.9z"/>
						<path class="cls-white" d="M105.2,88.9c-2.9,0-5.3,2.4-5.3,5.3s2.4,5.3,5.3,5.3c2.9,0,5.3-2.4,5.3-5.3S108.1,88.9,105.2,88.9z"/>
						<path class="cls-white" d="M104.4,131.3c-2.9,0-5.3,2.4-5.3,5.3s2.4,5.3,5.3,5.3s5.3-2.4,5.3-5.3S107.3,131.3,104.4,131.3z"/>
						<g>
							<path class="cls-white" d="M97.4,113.8c-0.3,0-0.6,0-0.9,0.1c-0.6-1.4-2-2.3-3.6-2.3c-2.1,0-3.9,1.7-3.9,3.9c0,2.1,1.7,3.9,3.9,3.9
								c0.2,0,0.5,0,0.7-0.1c0.2,0.5,0.5,0.9,0.8,1.2c-0.5,0.1-1,0.2-1.5,0.2c-2.9,0-5.3-2.4-5.3-5.3s2.4-5.3,5.3-5.3
								c2.4,0,4.4,1.5,5,3.7C97.8,113.8,97.6,113.8,97.4,113.8z"/>
							<path class="cls-white" d="M97.4,115.1c0.3,0,0.6,0.1,0.8,0.1c0,0.1,0,0.1,0,0.2c0,1.9-1,3.5-2.4,4.5c-0.4-0.3-0.7-0.7-0.9-1.1
								c1.1-0.7,1.9-1.9,1.9-3.3c0-0.1,0-0.2,0-0.2C97,115.2,97.2,115.1,97.4,115.1z"/>
						</g>
					</g>
				</g>
			</g>
			<g>
				<g>
					<g>
						<path class="cls-white" d="M188.9,68.1c-2.9,0-5.3,2.4-5.3,5.3s2.4,5.3,5.3,5.3c2.9,0,5.3-2.4,5.3-5.3S191.8,68.1,188.9,68.1z
							 M188.9,77.3c-2.1,0-3.9-1.7-3.9-3.9c0-2.1,1.7-3.9,3.9-3.9c2.1,0,3.9,1.7,3.9,3.9C192.7,75.5,191,77.3,188.9,77.3z"/>
						<path class="cls-white" d="M200,89.3c-2.9,0-5.3,2.4-5.3,5.3s2.4,5.3,5.3,5.3s5.3-2.4,5.3-5.3S202.9,89.3,200,89.3z M200,98.5
							c-2.1,0-3.9-1.7-3.9-3.9c0-2.1,1.7-3.9,3.9-3.9s3.9,1.7,3.9,3.9C203.9,96.7,202.1,98.5,200,98.5z"/>
						<path class="cls-white" d="M238,68.1c-2.9,0-5.3,2.4-5.3,5.3s2.4,5.3,5.3,5.3c2.9,0,5.3-2.4,5.3-5.3S240.9,68.1,238,68.1z M238,77.3
							c-2.1,0-3.9-1.7-3.9-3.9c0-2.1,1.7-3.9,3.9-3.9c2.1,0,3.9,1.7,3.9,3.9C241.9,75.5,240.2,77.3,238,77.3z"/>
						<path class="cls-white" d="M200,46.9c-2.9,0-5.3,2.4-5.3,5.3s2.4,5.3,5.3,5.3s5.3-2.4,5.3-5.3S202.9,46.9,200,46.9z M200,56.1
							c-2.1,0-3.9-1.7-3.9-3.9c0-2.1,1.7-3.9,3.9-3.9s3.9,1.7,3.9,3.9C203.9,54.3,202.1,56.1,200,56.1z"/>
						<path class="cls-white" d="M226.9,46.9c-2.9,0-5.3,2.4-5.3,5.3s2.4,5.3,5.3,5.3s5.3-2.4,5.3-5.3S229.8,46.9,226.9,46.9z M226.9,56.1
							c-2.1,0-3.9-1.7-3.9-3.9c0-2.1,1.7-3.9,3.9-3.9s3.9,1.7,3.9,3.9C230.8,54.3,229.1,56.1,226.9,56.1z"/>
						<path class="cls-white" d="M226.1,89.3c-2.9,0-5.3,2.4-5.3,5.3s2.4,5.3,5.3,5.3c2.9,0,5.3-2.4,5.3-5.3S229,89.3,226.1,89.3z
							 M226.1,98.5c-2.1,0-3.9-1.7-3.9-3.9c0-2.1,1.7-3.9,3.9-3.9s3.9,1.7,3.9,3.9C230,96.7,228.2,98.5,226.1,98.5z"/>
						<g>
							<path class="cls-white" d="M219.1,71.7c-0.3,0-0.6,0-0.9,0.1c-0.6-1.4-2-2.3-3.6-2.3c-2.1,0-3.9,1.7-3.9,3.9c0,2.1,1.7,3.9,3.9,3.9
								c0.2,0,0.5,0,0.7-0.1c0.2,0.5,0.5,0.9,0.8,1.2c-0.5,0.1-1,0.2-1.5,0.2c-2.9,0-5.3-2.4-5.3-5.3c0-2.9,2.4-5.3,5.3-5.3
								c2.4,0,4.4,1.5,5,3.7C219.5,71.7,219.3,71.7,219.1,71.7z"/>
							<path class="cls-white" d="M219.1,73.1c0.3,0,0.6,0.1,0.8,0.1c0,0.1,0,0.1,0,0.2c0,1.9-1,3.5-2.4,4.5c-0.4-0.3-0.7-0.7-0.9-1.1
								c1.1-0.7,1.9-1.9,1.9-3.3c0-0.1,0-0.2,0-0.2C218.7,73.1,218.9,73.1,219.1,73.1z"/>
						</g>
					</g>
				</g>
				<g>
					<g>
						<path class="cls-white" d="M191,66.3c-2.9,0-5.3,2.4-5.3,5.3s2.4,5.3,5.3,5.3c2.9,0,5.3-2.4,5.3-5.3S193.9,66.3,191,66.3z"/>
						<path class="cls-white" d="M202.1,87.5c-2.9,0-5.3,2.4-5.3,5.3s2.4,5.3,5.3,5.3s5.3-2.4,5.3-5.3S205.1,87.5,202.1,87.5z"/>
						<path class="cls-white" d="M240.2,66.3c-2.9,0-5.3,2.4-5.3,5.3s2.4,5.3,5.3,5.3c2.9,0,5.3-2.4,5.3-5.3S243.1,66.3,240.2,66.3z"/>
						<path class="cls-white" d="M202.1,45.1c-2.9,0-5.3,2.4-5.3,5.3s2.4,5.3,5.3,5.3s5.3-2.4,5.3-5.3S205.1,45.1,202.1,45.1z"/>
						<path class="cls-white" d="M229.1,45.1c-2.9,0-5.3,2.4-5.3,5.3s2.4,5.3,5.3,5.3s5.3-2.4,5.3-5.3S232,45.1,229.1,45.1z"/>
						<path class="cls-white" d="M228.2,87.5c-2.9,0-5.3,2.4-5.3,5.3s2.4,5.3,5.3,5.3s5.3-2.4,5.3-5.3S231.2,87.5,228.2,87.5z"/>
						<g>
							<path class="cls-white" d="M221.3,69.9c-0.3,0-0.6,0-0.9,0.1c-0.6-1.4-2-2.3-3.6-2.3c-2.1,0-3.9,1.7-3.9,3.9c0,2.1,1.7,3.9,3.9,3.9
								c0.2,0,0.5,0,0.7-0.1c0.2,0.5,0.5,0.9,0.8,1.2c-0.5,0.1-1,0.2-1.5,0.2c-2.9,0-5.3-2.4-5.3-5.3c0-2.9,2.4-5.3,5.3-5.3
								c2.4,0,4.4,1.5,5,3.7C221.6,69.9,221.5,69.9,221.3,69.9z"/>
							<path class="cls-white" d="M221.3,71.3c0.3,0,0.6,0.1,0.8,0.1c0,0.1,0,0.1,0,0.2c0,1.9-1,3.5-2.4,4.5c-0.4-0.3-0.7-0.7-0.9-1.1
								c1.1-0.7,1.9-1.9,1.9-3.3c0-0.1,0-0.2,0-0.2C220.9,71.3,221.1,71.3,221.3,71.3z"/>
						</g>
					</g>
				</g>
			</g>
			<g>
				<g>
					<g>
						<path class="cls-white" d="M126.9,88.4c-2.9,0-5.3,2.4-5.3,5.3s2.4,5.3,5.3,5.3c2.9,0,5.3-2.4,5.3-5.3S129.8,88.4,126.9,88.4z
							 M126.9,97.6c-2.1,0-3.9-1.7-3.9-3.9c0-2.1,1.7-3.9,3.9-3.9c2.1,0,3.9,1.7,3.9,3.9C130.8,95.8,129.1,97.6,126.9,97.6z"/>
						<path class="cls-white" d="M138,109.6c-2.9,0-5.3,2.4-5.3,5.3s2.4,5.3,5.3,5.3s5.3-2.4,5.3-5.3S140.9,109.6,138,109.6z M138,118.8
							c-2.1,0-3.9-1.7-3.9-3.9c0-2.1,1.7-3.9,3.9-3.9s3.9,1.7,3.9,3.9C141.9,117,140.2,118.8,138,118.8z"/>
						<path class="cls-white" d="M176.1,88.4c-2.9,0-5.3,2.4-5.3,5.3s2.4,5.3,5.3,5.3c2.9,0,5.3-2.4,5.3-5.3S179,88.4,176.1,88.4z
							 M176.1,97.6c-2.1,0-3.9-1.7-3.9-3.9c0-2.1,1.7-3.9,3.9-3.9c2.1,0,3.9,1.7,3.9,3.9C180,95.8,178.2,97.6,176.1,97.6z"/>
						<path class="cls-white" d="M138,67.2c-2.9,0-5.3,2.4-5.3,5.3s2.4,5.3,5.3,5.3s5.3-2.4,5.3-5.3S140.9,67.2,138,67.2z M138,76.4
							c-2.1,0-3.9-1.7-3.9-3.9c0-2.1,1.7-3.9,3.9-3.9s3.9,1.7,3.9,3.9C141.9,74.6,140.2,76.4,138,76.4z"/>
						<path class="cls-white" d="M165,67.2c-2.9,0-5.3,2.4-5.3,5.3s2.4,5.3,5.3,5.3s5.3-2.4,5.3-5.3S167.9,67.2,165,67.2z M165,76.4
							c-2.1,0-3.9-1.7-3.9-3.9c0-2.1,1.7-3.9,3.9-3.9s3.9,1.7,3.9,3.9C168.9,74.6,167.1,76.4,165,76.4z"/>
						<path class="cls-white" d="M164.1,109.6c-2.9,0-5.3,2.4-5.3,5.3s2.4,5.3,5.3,5.3s5.3-2.4,5.3-5.3S167,109.6,164.1,109.6z
							 M164.1,118.8c-2.1,0-3.9-1.7-3.9-3.9c0-2.1,1.7-3.9,3.9-3.9s3.9,1.7,3.9,3.9C168,117,166.3,118.8,164.1,118.8z"/>
						<g>
							<path class="cls-white" d="M157.1,92c-0.3,0-0.6,0-0.9,0.1c-0.6-1.4-2-2.3-3.6-2.3c-2.1,0-3.9,1.7-3.9,3.9c0,2.1,1.7,3.9,3.9,3.9
								c0.2,0,0.5,0,0.7-0.1c0.2,0.5,0.5,0.9,0.8,1.2c-0.5,0.1-1,0.2-1.5,0.2c-2.9,0-5.3-2.4-5.3-5.3c0-2.9,2.4-5.3,5.3-5.3
								c2.4,0,4.4,1.5,5,3.7C157.5,92,157.3,92,157.1,92z"/>
							<path class="cls-white" d="M157.1,93.4c0.3,0,0.6,0.1,0.8,0.1c0,0.1,0,0.1,0,0.2c0,1.9-1,3.5-2.4,4.5c-0.4-0.3-0.7-0.7-0.9-1.1
								c1.1-0.7,1.9-1.9,1.9-3.3c0-0.1,0-0.2,0-0.2C156.7,93.4,156.9,93.4,157.1,93.4z"/>
						</g>
					</g>
				</g>
				<g>
					<g>
						<path class="cls-white" d="M129.1,86.6c-2.9,0-5.3,2.4-5.3,5.3s2.4,5.3,5.3,5.3c2.9,0,5.3-2.4,5.3-5.3S132,86.6,129.1,86.6z"/>
						<path class="cls-white" d="M140.2,107.8c-2.9,0-5.3,2.4-5.3,5.3s2.4,5.3,5.3,5.3s5.3-2.4,5.3-5.3S143.1,107.8,140.2,107.8z"/>
						<path class="cls-white" d="M178.3,86.6c-2.9,0-5.3,2.4-5.3,5.3s2.4,5.3,5.3,5.3c2.9,0,5.3-2.4,5.3-5.3S181.2,86.6,178.3,86.6z"/>
						<path class="cls-white" d="M140.2,65.4c-2.9,0-5.3,2.4-5.3,5.3s2.4,5.3,5.3,5.3s5.3-2.4,5.3-5.3S143.1,65.4,140.2,65.4z"/>
						<path class="cls-white" d="M167.2,65.4c-2.9,0-5.3,2.4-5.3,5.3s2.4,5.3,5.3,5.3s5.3-2.4,5.3-5.3S170.1,65.4,167.2,65.4z"/>
						<path class="cls-white" d="M166.3,107.8c-2.9,0-5.3,2.4-5.3,5.3s2.4,5.3,5.3,5.3s5.3-2.4,5.3-5.3S169.2,107.8,166.3,107.8z"/>
						<g>
							<path class="cls-white" d="M159.3,90.2c-0.3,0-0.6,0-0.9,0.1c-0.6-1.4-2-2.3-3.6-2.3c-2.1,0-3.9,1.7-3.9,3.9c0,2.1,1.7,3.9,3.9,3.9
								c0.2,0,0.5,0,0.7-0.1c0.2,0.5,0.5,0.9,0.8,1.2c-0.5,0.1-1,0.2-1.5,0.2c-2.9,0-5.3-2.4-5.3-5.3c0-2.9,2.4-5.3,5.3-5.3
								c2.4,0,4.4,1.5,5,3.7C159.7,90.2,159.5,90.2,159.3,90.2z"/>
							<path class="cls-white" d="M159.3,91.6c0.3,0,0.6,0.1,0.8,0.1c0,0.1,0,0.1,0,0.2c0,1.9-1,3.5-2.4,4.5c-0.4-0.3-0.7-0.7-0.9-1.1
								c1.1-0.7,1.9-1.9,1.9-3.3c0-0.1,0-0.2,0-0.2C158.9,91.6,159.1,91.6,159.3,91.6z"/>
						</g>
					</g>
				</g>
			</g>
			<g>
				<g>
					<g>
						<path class="cls-white" d="M126.9,25.3c-2.9,0-5.3,2.4-5.3,5.3s2.4,5.3,5.3,5.3c2.9,0,5.3-2.4,5.3-5.3S129.8,25.3,126.9,25.3z
							 M126.9,34.5c-2.1,0-3.9-1.7-3.9-3.9c0-2.1,1.7-3.9,3.9-3.9c2.1,0,3.9,1.7,3.9,3.9C130.8,32.7,129.1,34.5,126.9,34.5z"/>
						<path class="cls-white" d="M138,46.5c-2.9,0-5.3,2.4-5.3,5.3s2.4,5.3,5.3,5.3s5.3-2.4,5.3-5.3S140.9,46.5,138,46.5z M138,55.7
							c-2.1,0-3.9-1.7-3.9-3.9c0-2.1,1.7-3.9,3.9-3.9s3.9,1.7,3.9,3.9C141.9,53.9,140.2,55.7,138,55.7z"/>
						<path class="cls-white" d="M176.1,25.3c-2.9,0-5.3,2.4-5.3,5.3s2.4,5.3,5.3,5.3c2.9,0,5.3-2.4,5.3-5.3S179,25.3,176.1,25.3z
							 M176.1,34.5c-2.1,0-3.9-1.7-3.9-3.9c0-2.1,1.7-3.9,3.9-3.9c2.1,0,3.9,1.7,3.9,3.9C180,32.7,178.2,34.5,176.1,34.5z"/>
						<path class="cls-white" d="M138,4.1c-2.9,0-5.3,2.4-5.3,5.3s2.4,5.3,5.3,5.3s5.3-2.4,5.3-5.3S140.9,4.1,138,4.1z M138,13.3
							c-2.1,0-3.9-1.7-3.9-3.9c0-2.1,1.7-3.9,3.9-3.9s3.9,1.7,3.9,3.9C141.9,11.5,140.2,13.3,138,13.3z"/>
						<path class="cls-white" d="M165,4.1c-2.9,0-5.3,2.4-5.3,5.3s2.4,5.3,5.3,5.3s5.3-2.4,5.3-5.3S167.9,4.1,165,4.1z M165,13.3
							c-2.1,0-3.9-1.7-3.9-3.9c0-2.1,1.7-3.9,3.9-3.9s3.9,1.7,3.9,3.9C168.9,11.5,167.1,13.3,165,13.3z"/>
						<path class="cls-white" d="M164.1,46.5c-2.9,0-5.3,2.4-5.3,5.3s2.4,5.3,5.3,5.3s5.3-2.4,5.3-5.3S167,46.5,164.1,46.5z M164.1,55.7
							c-2.1,0-3.9-1.7-3.9-3.9c0-2.1,1.7-3.9,3.9-3.9s3.9,1.7,3.9,3.9C168,53.9,166.3,55.7,164.1,55.7z"/>
						<g>
							<path class="cls-white" d="M157.1,28.9c-0.3,0-0.6,0-0.9,0.1c-0.6-1.4-2-2.3-3.6-2.3c-2.1,0-3.9,1.7-3.9,3.9c0,2.1,1.7,3.9,3.9,3.9
								c0.2,0,0.5,0,0.7-0.1c0.2,0.5,0.5,0.9,0.8,1.2c-0.5,0.1-1,0.2-1.5,0.2c-2.9,0-5.3-2.4-5.3-5.3s2.4-5.3,5.3-5.3
								c2.4,0,4.4,1.5,5,3.7C157.5,29,157.3,28.9,157.1,28.9z"/>
							<path class="cls-white" d="M157.1,30.3c0.3,0,0.6,0.1,0.8,0.1c0,0.1,0,0.1,0,0.2c0,1.9-1,3.5-2.4,4.5c-0.4-0.3-0.7-0.7-0.9-1.1
								c1.1-0.7,1.9-1.9,1.9-3.3c0-0.1,0-0.2,0-0.2C156.7,30.3,156.9,30.3,157.1,30.3z"/>
						</g>
					</g>
				</g>
				<g>
					<g>
						<path class="cls-white" d="M129.1,23.5c-2.9,0-5.3,2.4-5.3,5.3s2.4,5.3,5.3,5.3c2.9,0,5.3-2.4,5.3-5.3S132,23.5,129.1,23.5z"/>
						<path class="cls-white" d="M140.2,44.7c-2.9,0-5.3,2.4-5.3,5.3s2.4,5.3,5.3,5.3s5.3-2.4,5.3-5.3S143.1,44.7,140.2,44.7z"/>
						<path class="cls-white" d="M178.3,23.5c-2.9,0-5.3,2.4-5.3,5.3s2.4,5.3,5.3,5.3c2.9,0,5.3-2.4,5.3-5.3S181.2,23.5,178.3,23.5z"/>
						<path class="cls-white" d="M140.2,2.3c-2.9,0-5.3,2.4-5.3,5.3s2.4,5.3,5.3,5.3s5.3-2.4,5.3-5.3S143.1,2.3,140.2,2.3z"/>
						<path class="cls-white" d="M167.2,2.3c-2.9,0-5.3,2.4-5.3,5.3s2.4,5.3,5.3,5.3s5.3-2.4,5.3-5.3S170.1,2.3,167.2,2.3z"/>
						<path class="cls-white" d="M166.3,44.7c-2.9,0-5.3,2.4-5.3,5.3s2.4,5.3,5.3,5.3s5.3-2.4,5.3-5.3S169.2,44.7,166.3,44.7z"/>
						<g>
							<path class="cls-white" d="M159.3,27.1c-0.3,0-0.6,0-0.9,0.1c-0.6-1.4-2-2.3-3.6-2.3c-2.1,0-3.9,1.7-3.9,3.9c0,2.1,1.7,3.9,3.9,3.9
								c0.2,0,0.5,0,0.7-0.1c0.2,0.5,0.5,0.9,0.8,1.2c-0.5,0.1-1,0.2-1.5,0.2c-2.9,0-5.3-2.4-5.3-5.3s2.4-5.3,5.3-5.3
								c2.4,0,4.4,1.5,5,3.7C159.7,27.1,159.5,27.1,159.3,27.1z"/>
							<path class="cls-white" d="M159.3,28.5c0.3,0,0.6,0.1,0.8,0.1c0,0.1,0,0.1,0,0.2c0,1.9-1,3.5-2.4,4.5c-0.4-0.3-0.7-0.7-0.9-1.1
								c1.1-0.7,1.9-1.9,1.9-3.3c0-0.1,0-0.2,0-0.2C158.9,28.5,159.1,28.5,159.3,28.5z"/>
						</g>
					</g>
				</g>
			</g>
		</g>
		<g>
			<g>
				<g>
					<path class="cls-white" d="M121.2,527.9c2.9,0,5.3-2.4,5.3-5.3s-2.4-5.3-5.3-5.3c-2.9,0-5.3,2.4-5.3,5.3S118.3,527.9,121.2,527.9z
						 M121.2,518.7c2.2,0,3.9,1.7,3.9,3.9c0,2.2-1.7,3.9-3.9,3.9c-2.1,0-3.9-1.7-3.9-3.9C117.3,520.5,119.1,518.7,121.2,518.7z"/>
					<path class="cls-white" d="M110.1,506.7c2.9,0,5.3-2.4,5.3-5.3s-2.4-5.3-5.3-5.3c-2.9,0-5.3,2.4-5.3,5.3S107.2,506.7,110.1,506.7z
						 M110.1,497.5c2.2,0,3.9,1.7,3.9,3.9c0,2.2-1.7,3.9-3.9,3.9c-2.2,0-3.9-1.7-3.9-3.9C106.2,499.3,107.9,497.5,110.1,497.5z"/>
					<path class="cls-white" d="M72,527.9c2.9,0,5.3-2.4,5.3-5.3s-2.4-5.3-5.3-5.3c-2.9,0-5.3,2.4-5.3,5.3S69.1,527.9,72,527.9z M72,518.7
						c2.1,0,3.9,1.7,3.9,3.9c0,2.2-1.7,3.9-3.9,3.9c-2.2,0-3.9-1.7-3.9-3.9C68.1,520.5,69.8,518.7,72,518.7z"/>
					<path class="cls-white" d="M110.1,549.2c2.9,0,5.3-2.4,5.3-5.3s-2.4-5.3-5.3-5.3c-2.9,0-5.3,2.4-5.3,5.3S107.2,549.2,110.1,549.2z
						 M110.1,540c2.2,0,3.9,1.7,3.9,3.9c0,2.2-1.7,3.9-3.9,3.9c-2.2,0-3.9-1.7-3.9-3.9C106.2,541.7,107.9,540,110.1,540z"/>
					<path class="cls-white" d="M83.1,549.2c2.9,0,5.3-2.4,5.3-5.3s-2.4-5.3-5.3-5.3s-5.3,2.4-5.3,5.3S80.2,549.2,83.1,549.2z M83.1,540
						c2.2,0,3.9,1.7,3.9,3.9c0,2.2-1.7,3.9-3.9,3.9s-3.9-1.7-3.9-3.9C79.2,541.7,81,540,83.1,540z"/>
					<path class="cls-white" d="M84,506.7c2.9,0,5.3-2.4,5.3-5.3s-2.4-5.3-5.3-5.3c-2.9,0-5.3,2.4-5.3,5.3S81,506.7,84,506.7z M84,497.5
						c2.2,0,3.9,1.7,3.9,3.9c0,2.2-1.7,3.9-3.9,3.9s-3.9-1.7-3.9-3.9C80.1,499.3,81.8,497.5,84,497.5z"/>
					<g>
						<path class="cls-white" d="M90.9,524.3c0.3,0,0.6,0,0.9-0.1c0.6,1.4,2,2.3,3.6,2.3c2.2,0,3.9-1.7,3.9-3.9c0-2.2-1.7-3.9-3.9-3.9
							c-0.2,0-0.5,0-0.7,0.1c-0.2-0.5-0.5-0.9-0.8-1.2c0.5-0.1,1-0.2,1.5-0.2c2.9,0,5.3,2.4,5.3,5.3s-2.4,5.3-5.3,5.3
							c-2.4,0-4.4-1.6-5-3.7C90.6,524.3,90.7,524.3,90.9,524.3z"/>
						<path class="cls-white" d="M90.9,522.9c-0.3,0-0.6-0.1-0.8-0.1c0-0.1,0-0.1,0-0.2c0-1.9,1-3.5,2.5-4.5c0.4,0.3,0.7,0.7,0.9,1.1
							c-1.1,0.7-1.9,1.9-1.9,3.3c0,0.1,0,0.2,0,0.2C91.3,522.9,91.1,522.9,90.9,522.9z"/>
					</g>
				</g>
			</g>
			<g>
				<g>
					<path class="cls-white" d="M119,529.7c2.9,0,5.3-2.4,5.3-5.3s-2.4-5.3-5.3-5.3c-2.9,0-5.3,2.4-5.3,5.3S116.1,529.7,119,529.7z"/>
					<path class="cls-white" d="M107.9,508.5c2.9,0,5.3-2.4,5.3-5.3s-2.4-5.3-5.3-5.3s-5.3,2.4-5.3,5.3S105,508.5,107.9,508.5z"/>
					<path class="cls-white" d="M69.8,529.7c2.9,0,5.3-2.4,5.3-5.3s-2.4-5.3-5.3-5.3c-2.9,0-5.3,2.4-5.3,5.3S66.9,529.7,69.8,529.7z"/>
					<path class="cls-white" d="M107.9,551c2.9,0,5.3-2.4,5.3-5.3s-2.4-5.3-5.3-5.3s-5.3,2.4-5.3,5.3S105,551,107.9,551z"/>
					<path class="cls-white" d="M80.9,551c2.9,0,5.3-2.4,5.3-5.3s-2.4-5.3-5.3-5.3c-2.9,0-5.3,2.4-5.3,5.3S78,551,80.9,551z"/>
					<path class="cls-white" d="M81.8,508.5c2.9,0,5.3-2.4,5.3-5.3s-2.4-5.3-5.3-5.3s-5.3,2.4-5.3,5.3S78.9,508.5,81.8,508.5z"/>
					<g>
						<path class="cls-white" d="M88.8,526.1c0.3,0,0.6,0,0.9-0.1c0.6,1.4,2,2.3,3.6,2.3c2.2,0,3.9-1.7,3.9-3.9c0-2.2-1.7-3.9-3.9-3.9
							c-0.2,0-0.5,0-0.7,0.1c-0.2-0.5-0.5-0.9-0.8-1.2c0.5-0.1,1-0.2,1.5-0.2c2.9,0,5.3,2.4,5.3,5.3c0,2.9-2.4,5.3-5.3,5.3
							c-2.4,0-4.4-1.6-5-3.7C88.4,526.1,88.6,526.1,88.8,526.1z"/>
						<path class="cls-white" d="M88.8,524.7c-0.3,0-0.6-0.1-0.8-0.1c0-0.1,0-0.1,0-0.2c0-1.9,1-3.5,2.5-4.5c0.4,0.3,0.7,0.7,0.9,1.1
							c-1.1,0.7-1.9,1.9-1.9,3.3c0,0.1,0,0.2,0,0.2C89.2,524.7,89,524.7,88.8,524.7z"/>
					</g>
				</g>
			</g>
		</g>
		<g>
			<g>
				<g>
					<path class="cls-white" d="M59.2,488.8c2.9,0,5.3-2.4,5.3-5.3s-2.4-5.3-5.3-5.3c-2.9,0-5.3,2.4-5.3,5.3S56.3,488.8,59.2,488.8z
						 M59.2,479.6c2.2,0,3.9,1.7,3.9,3.9c0,2.2-1.7,3.9-3.9,3.9c-2.1,0-3.9-1.7-3.9-3.9C55.3,481.4,57.1,479.6,59.2,479.6z"/>
					<path class="cls-white" d="M48.1,467.6c2.9,0,5.3-2.4,5.3-5.3S51,457,48.1,457s-5.3,2.4-5.3,5.3S45.2,467.6,48.1,467.6z M48.1,458.4
						c2.2,0,3.9,1.7,3.9,3.9c0,2.2-1.7,3.9-3.9,3.9s-3.9-1.7-3.9-3.9C44.2,460.2,45.9,458.4,48.1,458.4z"/>
					<path class="cls-white" d="M10,488.8c2.9,0,5.3-2.4,5.3-5.3s-2.4-5.3-5.3-5.3c-2.9,0-5.3,2.4-5.3,5.3S7.1,488.8,10,488.8z M10,479.6
						c2.1,0,3.9,1.7,3.9,3.9c0,2.2-1.7,3.9-3.9,3.9c-2.2,0-3.9-1.7-3.9-3.9C6.1,481.4,7.8,479.6,10,479.6z"/>
					<path class="cls-white" d="M48.1,510.1c2.9,0,5.3-2.4,5.3-5.3s-2.4-5.3-5.3-5.3s-5.3,2.4-5.3,5.3S45.2,510.1,48.1,510.1z M48.1,500.9
						c2.2,0,3.9,1.7,3.9,3.9c0,2.2-1.7,3.9-3.9,3.9s-3.9-1.7-3.9-3.9C44.2,502.6,45.9,500.9,48.1,500.9z"/>
					<path class="cls-white" d="M21.1,510.1c2.9,0,5.3-2.4,5.3-5.3s-2.4-5.3-5.3-5.3s-5.3,2.4-5.3,5.3S18.2,510.1,21.1,510.1z M21.1,500.9
						c2.2,0,3.9,1.7,3.9,3.9c0,2.2-1.7,3.9-3.9,3.9s-3.9-1.7-3.9-3.9C17.2,502.6,19,500.9,21.1,500.9z"/>
					<path class="cls-white" d="M22,467.6c2.9,0,5.3-2.4,5.3-5.3S24.9,457,22,457s-5.3,2.4-5.3,5.3S19,467.6,22,467.6z M22,458.4
						c2.2,0,3.9,1.7,3.9,3.9c0,2.2-1.7,3.9-3.9,3.9s-3.9-1.7-3.9-3.9C18.1,460.2,19.8,458.4,22,458.4z"/>
					<g>
						<path class="cls-white" d="M28.9,485.2c0.3,0,0.6,0,0.9-0.1c0.6,1.4,2,2.3,3.6,2.3c2.2,0,3.9-1.7,3.9-3.9c0-2.2-1.7-3.9-3.9-3.9
							c-0.2,0-0.5,0-0.7,0.1c-0.2-0.5-0.5-0.9-0.8-1.2c0.5-0.1,1-0.2,1.5-0.2c2.9,0,5.3,2.4,5.3,5.3c0,2.9-2.4,5.3-5.3,5.3
							c-2.4,0-4.4-1.6-5-3.7C28.6,485.2,28.7,485.2,28.9,485.2z"/>
						<path class="cls-white" d="M28.9,483.8c-0.3,0-0.6-0.1-0.8-0.1c0-0.1,0-0.1,0-0.2c0-1.9,1-3.5,2.5-4.5c0.4,0.3,0.7,0.7,0.9,1.1
							c-1.1,0.7-1.9,1.9-1.9,3.3c0,0.1,0,0.2,0,0.2C29.3,483.8,29.1,483.8,28.9,483.8z"/>
					</g>
				</g>
			</g>
			<g>
				<g>
					<path class="cls-white" d="M57,490.7c2.9,0,5.3-2.4,5.3-5.3s-2.4-5.3-5.3-5.3c-2.9,0-5.3,2.4-5.3,5.3S54.1,490.7,57,490.7z"/>
					<path class="cls-white" d="M45.9,469.4c2.9,0,5.3-2.4,5.3-5.3s-2.4-5.3-5.3-5.3c-2.9,0-5.3,2.4-5.3,5.3S43,469.4,45.9,469.4z"/>
					<path class="cls-white" d="M7.8,490.7c2.9,0,5.3-2.4,5.3-5.3s-2.4-5.3-5.3-5.3c-2.9,0-5.3,2.4-5.3,5.3S4.9,490.7,7.8,490.7z"/>
					<path class="cls-white" d="M45.9,511.9c2.9,0,5.3-2.4,5.3-5.3s-2.4-5.3-5.3-5.3c-2.9,0-5.3,2.4-5.3,5.3S43,511.9,45.9,511.9z"/>
					<path class="cls-white" d="M18.9,511.9c2.9,0,5.3-2.4,5.3-5.3s-2.4-5.3-5.3-5.3s-5.3,2.4-5.3,5.3S16,511.9,18.9,511.9z"/>
					<path class="cls-white" d="M19.8,469.4c2.9,0,5.3-2.4,5.3-5.3s-2.4-5.3-5.3-5.3s-5.3,2.4-5.3,5.3S16.9,469.4,19.8,469.4z"/>
					<g>
						<path class="cls-white" d="M26.8,487c0.3,0,0.6,0,0.9-0.1c0.6,1.4,2,2.3,3.6,2.3c2.2,0,3.9-1.7,3.9-3.9c0-2.2-1.7-3.9-3.9-3.9
							c-0.2,0-0.5,0-0.7,0.1c-0.2-0.5-0.5-0.9-0.8-1.2c0.5-0.1,1-0.2,1.5-0.2c2.9,0,5.3,2.4,5.3,5.3c0,2.9-2.4,5.3-5.3,5.3
							c-2.4,0-4.4-1.6-5-3.7C26.4,487,26.6,487,26.8,487z"/>
						<path class="cls-white" d="M26.8,485.7c-0.3,0-0.6-0.1-0.8-0.1c0-0.1,0-0.1,0-0.2c0-1.9,1-3.5,2.5-4.5c0.4,0.3,0.7,0.7,0.9,1.1
							c-1.1,0.7-1.9,1.9-1.9,3.3c0,0.1,0,0.2,0,0.2C27.2,485.6,27,485.7,26.8,485.7z"/>
					</g>
				</g>
			</g>
		</g>
		<g id="Слой_x0020_1_1_">
			<polygon class="cls-white" points="283.2,585.1 282.7,584.7 9,310.9 9.9,309.9 10.4,310.4 284.2,584.2 			"/>
			<polygon class="cls-white" points="209.2,535.2 49.7,375.7 50.6,374.8 51.1,375.2 210.1,534.3 			"/>
			<polygon class="cls-white" points="222.8,349.4 222.3,349 43.6,170.2 44.5,169.3 45,169.7 223.7,348.5 			"/>
			<path class="cls-white" d="M327.9,103.1V268c0,29.5,15.4,46.4,42.3,46.4c13.7,0,23.9-2.5,31-7.5l1-0.7v-19l-3.7,2.1
				c-7.9,4.5-15.9,6.7-24.8,6.7c-19,0-26.4-8.9-26.4-31.9v-58.6h21.6c10,0,18.1-8.1,18.1-18.1h-39.7v-64.9
				C347.3,111.8,338.6,103.1,327.9,103.1L327.9,103.1z"/>
			<path class="cls-white" d="M264.8,193.4c-2.7-9-7.9-16.7-14.5-23.2c-6.7,0.1-12.4,4.4-14.7,10.4c5.9,5.4,9.8,12.5,11.2,21.1
				c1.2,0.3,2.5,0.5,3.7,0.5C256.8,202.2,262.2,198.6,264.8,193.4L264.8,193.4z"/>
			<path class="cls-white" d="M181.3,295.6l17.9,17.9c19.9-2.6,36.7-11.1,50.2-25.2c2.2,10.5,8.4,18.2,17.2,21.5v-87.9
				c0-0.4,0.1-0.7,0.1-1.1V215c-4.8,2.7-10.3,4.4-16.2,4.4c-1.1,0-2.1-0.2-3.2-0.3v48c-10.8,14.1-31.5,28.9-57.9,28.9
				C186.8,296,184,295.8,181.3,295.6L181.3,295.6z"/>
			<path class="cls-white" d="M130.5,244.8c0-0.5-0.1-0.8-0.1-0.9c-5.6-58.5,32.1-70.5,41.8-73.6c7.6-2.1,15.3-3.2,23.1-3.2
				c9.1,0,17.9,1.5,25.5,4.5c2.8-5.6,7.1-10.4,12.4-13.7c-11.4-6-24.1-9.2-35.3-9.2c-9.3,0-18.2,1.1-26.2,3.2c-0.2,0-4,0.7-9.5,3
				l-0.6,0.2l-0.1,0.1c-13.6,5.8-44.8,18.8-48.1,72.4L130.5,244.8L130.5,244.8z"/>
			<path class="cls-white" d="M136.4,423.8c2.9-9.4,8-17.8,15.1-25.1c12.5-12.5,27.4-18.5,45.7-18.5c18.1,0,33.4,6.2,45.4,18.5
				c12.3,12.3,18.5,27.8,18.5,46.1c0,18.3-6.2,33.8-18.5,46.1c-7,7-15.2,12-24.3,15l14.7,14.7c9.1-4,17.2-9.7,24.4-17.2
				c15.6-16.2,23.5-35.9,23.5-58.5c0-22.6-7.9-42.3-23.5-58.5c-15.6-16.3-35.8-24.5-60.2-24.5c-24.6,0-44.9,8.2-60.5,24.5
				c-6.6,6.8-11.7,14.3-15.5,22.5L136.4,423.8L136.4,423.8z"/>
			<path class="cls-white" d="M496.8,364.8c-15.6,4.5-29.2,13.8-38.6,26.7c-8.2-19.8-25.1-29.8-50.4-29.8c-21.8,0-42.5,9.2-55.6,24.4v-1.2 c0-10.7-8.7-19.4-19.4-19.4v138.6c0,10.7,8.7,19.4,19.4,19.4V412.9c5.1-9.1,12.3-16.7,22-23.3c9.7-6.3,19.8-9.5,30.1-9.5 c27.3,0,40.5,15.7,40.5,47.9v76.1c0,10.7,8.7,19.4,19.4,19.4v-93.6c0-1.9-0.1-4.9-0.3-9l-0.3-6.5c4.6-9.2,11.8-17.4,21.4-24.1 c8.9-6.1,17.8-9.4,27.3-10L496.8,364.8L496.8,364.8z"/>
			<path class="cls-white" d="M556.4,424.4c0,1.3,0.1,2.6,0.1,4v75.8c0,10.7,8.7,19.4,19.4,19.4v-79.7L556.4,424.4L556.4,424.4z"/>
			<polygon class="cls-white" points="133.6,285.1 133.2,284.7 8.3,159.8 8.3,157.9 9.4,159 134.6,284.2"/>
			<polygon class="cls-white" points="591,421.9 475,305.9 476,305 476.4,305.5 591,420.1"/>
			<polygon class="cls-white" points="591,445.9 436.6,291.5 437.5,290.5 438,291 591,444.1"/>
			<polygon class="cls-white" points="274.2,329.6 275.5,329.6 278.3,337.6 281.1,329.6 282.9,329.6 279.1,339.9 277.6,339.9 274.8,332.1 272.1,339.9 270.6,339.9 266.8,329.6 268.5,329.6 271.4,337.6"/>
			<path class="cls-white" d="M299,331.7c-0.7-0.6-1.5-0.9-2.5-0.9c-1,0-1.8,0.3-2.5,1c-0.7,0.6-1.1,1.4-1.3,2.3h7.5
				C300.1,333.1,299.7,332.3,299,331.7L299,331.7z M301.7,335.3l-8.9,0c0.1,0.9,0.5,1.7,1.2,2.4c0.8,0.7,1.6,1,2.7,1
				c0.7,0,1.3-0.1,1.9-0.4c0.6-0.3,1-0.6,1.3-0.9l0.4-0.4l1,1l-0.2,0.2c-0.1,0.1-0.3,0.3-0.6,0.5c-0.3,0.2-0.6,0.5-0.9,0.6
				c-0.3,0.2-0.8,0.4-1.3,0.5c-0.5,0.2-1.1,0.2-1.6,0.2c-1.5,0-2.8-0.5-3.9-1.6c-1.1-1-1.6-2.3-1.6-3.8c0-1.5,0.5-2.8,1.6-3.8
				c1.1-1.1,2.3-1.6,3.8-1.6c1.5,0,2.8,0.5,3.8,1.5c1,1,1.5,2.2,1.5,3.7L301.7,335.3L301.7,335.3z"/>
			<path class="cls-white" d="M314.4,332c-0.8,0.8-1.2,1.7-1.2,2.8c0,1.1,0.4,2,1.2,2.8c0.8,0.8,1.7,1.2,2.7,1.2c0.9,0,1.8-0.4,2.5-1.2
				c0.7-0.8,1.1-1.7,1.1-2.8c0-1.1-0.4-2-1.1-2.8c-0.8-0.8-1.6-1.2-2.5-1.2C316.1,330.8,315.2,331.2,314.4,332z M313.2,324.8v6.4
				l0.2-0.2c0.1-0.1,0.2-0.2,0.5-0.5c0.2-0.2,0.5-0.4,0.8-0.6c0.3-0.2,0.6-0.3,1.1-0.4c0.4-0.1,0.9-0.2,1.4-0.2
				c1.4,0,2.6,0.5,3.7,1.6c1.1,1.1,1.6,2.3,1.6,3.8c0,1.5-0.5,2.7-1.6,3.8c-1.1,1.1-2.3,1.6-3.7,1.6c-0.5,0-0.9-0.1-1.4-0.2
				c-0.4-0.1-0.8-0.3-1.1-0.5c-0.3-0.2-0.6-0.4-0.8-0.5s-0.4-0.3-0.5-0.5l-0.2-0.2v1.6h-1.6v-15.1H313.2L313.2,324.8z"/>
			<path class="cls-white" d="M350,330.8l-1.2,1.1l-0.3-0.3c-0.1-0.1-0.4-0.3-0.8-0.5c-0.4-0.2-0.9-0.3-1.3-0.3c-0.6,0-1.1,0.2-1.5,0.5
				c-0.4,0.3-0.6,0.6-0.6,1c0,0.4,0.2,0.7,0.6,1c0.4,0.3,0.9,0.5,1.5,0.6c0.6,0.2,1.2,0.3,1.7,0.5c0.6,0.2,1.1,0.5,1.5,0.9
				c0.4,0.4,0.6,1,0.6,1.7c0,0.9-0.4,1.6-1.1,2.2c-0.7,0.6-1.7,0.9-2.9,0.9c-0.5,0-1-0.1-1.5-0.2c-0.5-0.1-0.8-0.3-1.1-0.5
				c-0.3-0.2-0.6-0.4-0.8-0.5s-0.4-0.3-0.5-0.5l-0.1-0.2l1.2-1.1l0.1,0.2c0.1,0.1,0.2,0.2,0.4,0.4c0.2,0.2,0.4,0.3,0.6,0.5
				c0.2,0.1,0.5,0.3,0.8,0.4c0.3,0.1,0.7,0.2,1,0.2c0.8,0,1.4-0.2,1.8-0.5c0.4-0.3,0.6-0.7,0.6-1.2c0-0.4-0.2-0.8-0.6-1
				c-0.4-0.3-0.9-0.5-1.5-0.6c-0.6-0.2-1.2-0.3-1.7-0.5c-0.6-0.2-1.1-0.5-1.5-0.9c-0.4-0.4-0.6-1-0.6-1.6c0-0.8,0.3-1.5,1-2
				c0.7-0.6,1.6-0.9,2.6-0.9c0.4,0,0.8,0,1.2,0.1c0.4,0.1,0.7,0.2,1,0.3c0.3,0.1,0.5,0.3,0.7,0.4c0.2,0.1,0.4,0.3,0.4,0.3L350,330.8
				L350,330.8z"/>
			<path class="cls-white" d="M361.1,328.5v-2.4h1.5v3.4h2.4v1.4h-2.4v6.1c0,1.1,0.5,1.6,1.5,1.6c0.2,0,0.5,0,0.7-0.1
				c0.2-0.1,0.4-0.1,0.6-0.1l0.2-0.1v1.4c-0.5,0.2-1,0.3-1.6,0.3c-0.9,0-1.7-0.3-2.2-0.8c-0.5-0.5-0.8-1.3-0.8-2.2V331h-2.1v-1.4
				h1.3C360.8,329.6,361.1,329.2,361.1,328.5L361.1,328.5z"/>
			<path class="cls-white" d="M383.2,339.9v-1.4l-0.1,0.2c-0.1,0.1-0.2,0.2-0.4,0.4c-0.2,0.2-0.5,0.3-0.7,0.5c-0.3,0.1-0.6,0.3-1,0.4
				c-0.4,0.1-0.8,0.2-1.3,0.2c-1.3,0-2.3-0.4-3.2-1.3c-0.8-0.8-1.3-1.9-1.3-3.3v-6h1.6v6c0,0.9,0.3,1.6,0.9,2.2
				c0.6,0.6,1.3,0.9,2.2,0.9c0.9,0,1.7-0.3,2.4-1c0.6-0.6,1-1.5,1-2.5v-5.7h1.6v10.3L383.2,339.9L383.2,339.9z"/>
			<path class="cls-white" d="M402.7,337.5c0.8-0.8,1.2-1.7,1.2-2.8c0-1.1-0.4-2-1.2-2.8c-0.8-0.8-1.7-1.2-2.7-1.2c-0.9,0-1.8,0.4-2.5,1.2
				c-0.7,0.8-1.1,1.7-1.1,2.8c0,1.1,0.4,2,1.1,2.8c0.7,0.8,1.6,1.2,2.5,1.2C401,338.7,401.9,338.3,402.7,337.5z M403.9,331.2v-6.4
				h1.6v15.1h-1.6v-1.6l-0.2,0.2c-0.1,0.1-0.2,0.2-0.5,0.4c-0.2,0.2-0.5,0.4-0.8,0.6c-0.3,0.2-0.6,0.3-1.1,0.4
				c-0.4,0.1-0.9,0.2-1.4,0.2c-1.4,0-2.6-0.5-3.7-1.6c-1.1-1.1-1.6-2.3-1.6-3.8c0-1.5,0.5-2.7,1.6-3.8c1.1-1.1,2.3-1.6,3.7-1.6
				c0.5,0,0.9,0.1,1.4,0.2c0.4,0.1,0.8,0.3,1.1,0.5c0.3,0.2,0.6,0.3,0.8,0.5c0.2,0.2,0.4,0.3,0.5,0.5L403.9,331.2L403.9,331.2z"/>
			<path class="cls-white" d="M416.1,339.9v-10.3h1.6v10.3H416.1z M416.2,326.8c-0.2-0.2-0.3-0.4-0.3-0.7c0-0.3,0.1-0.5,0.3-0.7
				c0.2-0.2,0.4-0.3,0.7-0.3c0.3,0,0.5,0.1,0.7,0.3c0.2,0.2,0.3,0.4,0.3,0.7c0,0.3-0.1,0.5-0.3,0.7c-0.2,0.2-0.4,0.3-0.7,0.3
				C416.6,327.1,416.4,327,416.2,326.8z"/>
			<path class="cls-white" d="M435.9,337.6c0.8-0.8,1.2-1.7,1.2-2.8c0-1.1-0.4-2.1-1.2-2.8c-0.8-0.8-1.7-1.1-2.8-1.1c-1.1,0-2,0.4-2.8,1.1
				c-0.8,0.8-1.2,1.7-1.2,2.8c0,1.1,0.4,2,1.2,2.8c0.8,0.8,1.7,1.2,2.8,1.2C434.2,338.7,435.1,338.3,435.9,337.6L435.9,337.6z
				 M429.1,338.6c-1.1-1-1.6-2.3-1.6-3.8c0-1.5,0.5-2.8,1.6-3.8c1.1-1,2.4-1.6,4-1.6c1.6,0,2.9,0.5,4,1.6c1.1,1,1.6,2.3,1.6,3.8
				c0,1.5-0.5,2.8-1.6,3.8c-1.1,1-2.4,1.6-4,1.6C431.5,340.1,430.2,339.6,429.1,338.6z"/>
		</g>
	</g>
</svg>
