<svg xmlns="http://www.w3.org/2000/svg" xml:space="preserve" width="4.5074mm" height="4.5072mm" version="1.1" style="shape-rendering:geometricPrecision; text-rendering:geometricPrecision; image-rendering:optimizeQuality; fill-rule:evenodd; clip-rule:evenodd"
viewBox="0 0 89.59 89.58"
 xmlns:xlink="http://www.w3.org/1999/xlink">
 <g>
  <path fill="#fff" d="M83.98 59.5l5.55 26.68c0.19,0.92 -0.1,1.84 -0.81,2.54 -0.71,0.71 -1.62,1 -2.54,0.81l-26.68 -5.55c8.16,-8.16 16.31,-16.32 24.48,-24.48z"/>
  <path fill="#fff" d="M0.87 21.61l20.73 -20.74c1.16,-1.16 3.06,-1.16 4.22,0l8.68 8.68 -24.95 24.95 -8.68 -8.68c-1.16,-1.16 -1.16,-3.06 0,-4.22z"/>
  <path fill="#fff" d="M37.7 12.75l43.15 43.15c-5.5,5.5 -19.45,19.45 -24.95,24.95l-43.16 -43.15c5.5,-5.5 19.45,-19.45 24.95,-24.95z"/>
 </g>
</svg>
