<svg xmlns="http://www.w3.org/2000/svg" xml:space="preserve" width="4.2554mm" height="4.3714mm" version="1.1" style="shape-rendering:geometricPrecision; text-rendering:geometricPrecision; image-rendering:optimizeQuality; fill-rule:evenodd; clip-rule:evenodd"
viewBox="0 0 15.35 15.77"
 xmlns:xlink="http://www.w3.org/1999/xlink">
 <g>
  <path fill="#fff" d="M2 2.38c-0.38,0 -0.47,0.38 -0.65,0.68 -0.4,0.66 -0.77,1.35 -1.17,2.01 -0.22,0.37 -0.29,0.54 0.06,0.82l1.08 0.85c0.14,0.11 0.32,0.28 0.48,0.37 -0.07,0.82 -0.07,0.73 0,1.55 -0.18,0.09 -0.32,0.25 -0.48,0.37 -0.17,0.13 -1.04,0.79 -1.19,0.93 -0.31,0.3 -0.01,0.64 0.16,0.93l1.28 2.22c0.21,0.38 0.44,0.3 0.79,0.16l1.09 -0.44c0.13,-0.05 0.22,-0.09 0.35,-0.14 0.44,-0.16 0.13,-0.14 0.96,0.35 0.06,0.03 0.11,0.05 0.16,0.08l0.33 0.16c0.2,0.08 0.16,0.11 0.22,0.56l0.18 1.33c0.04,0.26 0.07,0.6 0.42,0.6l3.18 0c0.35,0 0.39,-0.34 0.42,-0.58l0.24 -1.78c0.02,-0.1 0.22,-0.16 0.31,-0.2 0.34,-0.14 0.65,-0.35 0.94,-0.57 0.06,-0.05 0.07,-0.07 0.15,-0.04 0.07,0.03 0.12,0.05 0.19,0.08 0.27,0.11 1.67,0.71 1.83,0.71 0.11,0 0.2,-0.02 0.28,-0.08 0.09,-0.07 0.5,-0.8 0.6,-0.99 0.04,-0.08 0.08,-0.13 0.12,-0.2l0.58 -1.01c0.04,-0.08 0.07,-0.13 0.12,-0.2 0.54,-0.9 0.38,-0.75 -0.54,-1.5 -0.14,-0.12 -0.8,-0.66 -0.96,-0.74 0.07,-0.9 0.08,-0.61 0,-1.55 0.13,-0.07 1.24,-0.96 1.44,-1.11 0.23,-0.18 0.51,-0.38 0.31,-0.71l-1.52 -2.62c-0.21,-0.39 -0.45,-0.29 -0.79,-0.16 -0.37,0.15 -0.73,0.28 -1.09,0.44 -0.12,0.05 -0.23,0.09 -0.35,0.14 -0.06,0.03 -0.12,0.05 -0.18,0.07 -0.1,0.04 -0.09,0.04 -0.17,-0.02 -0.34,-0.27 -0.71,-0.48 -1.11,-0.65 -0.09,-0.04 -0.13,-0.02 -0.15,-0.11 -0.05,-0.18 -0.09,-0.68 -0.12,-0.9 -0.03,-0.24 -0.11,-1.1 -0.23,-1.29 -0.06,-0.09 -0.18,-0.18 -0.33,-0.18l-3.18 0c-0.13,0 -0.26,0.09 -0.32,0.17 -0.08,0.12 -0.08,0.23 -0.11,0.41l-0.24 1.78c-0.02,0.08 -0.06,0.09 -0.13,0.12 -0.4,0.15 -0.79,0.39 -1.12,0.65 -0.14,0.11 -0.16,0.03 -0.34,-0.04 -0.13,-0.05 -0.23,-0.1 -0.36,-0.15 -0.25,-0.1 -0.47,-0.19 -0.71,-0.29 -0.13,-0.05 -0.24,-0.09 -0.37,-0.14 -0.09,-0.04 -0.28,-0.13 -0.38,-0.13zm5.68 2.86c1.46,0 2.64,1.18 2.64,2.64 0,1.46 -1.18,2.64 -2.64,2.64 -1.46,0 -2.64,-1.18 -2.64,-2.64 0,-1.46 1.18,-2.64 2.64,-2.64z"/>
 </g>
</svg>
