<svg xmlns="http://www.w3.org/2000/svg" xml:space="preserve" width="4.419mm" height="3.6472mm" version="1.1" style="shape-rendering:geometricPrecision; text-rendering:geometricPrecision; image-rendering:optimizeQuality; fill-rule:evenodd; clip-rule:evenodd"
viewBox="0 0 26.81 22.13"
 xmlns:xlink="http://www.w3.org/1999/xlink">
 <g>
  <path fill="#fff" d="M-0 14.93l0 -13.21c0,-0.95 0.78,-1.73 1.73,-1.73l23.36 0c0.95,0 1.73,0.78 1.73,1.73l0 13.21c0,0.95 -0.78,1.73 -1.73,1.73l-23.36 0c-0.95,0 -1.73,-0.78 -1.73,-1.73zm10.68 2.33l5.44 0c0.23,0 0.41,0.19 0.41,0.41l0 2.06c0,0.22 -0.19,0.41 -0.41,0.41l-5.44 0c-0.23,0 -0.41,-0.19 -0.41,-0.41l0 -2.06c0,-0.23 0.19,-0.41 0.41,-0.41zm-2.11 3.5l9.67 0c0.38,0 0.68,0.31 0.68,0.68l0 0c0,0.37 -0.31,0.68 -0.68,0.68l-9.67 0c-0.38,0 -0.68,-0.31 -0.68,-0.68l0 -0c0,-0.38 0.31,-0.68 0.68,-0.68z"/>
 </g>
</svg>
