<svg xmlns="http://www.w3.org/2000/svg" xml:space="preserve" width="4.6255mm" height="4.0402mm" version="1.1" style="shape-rendering:geometricPrecision; text-rendering:geometricPrecision; image-rendering:optimizeQuality; fill-rule:evenodd; clip-rule:evenodd"
viewBox="0 0 22.09 19.29"
 xmlns:xlink="http://www.w3.org/1999/xlink">
 <g>
  <path fill="#fff" d="M13.13 4.92l0 14.37 -4.17 0 0 -14.37 -1.25 0c-0.13,0 -0.23,-0.08 -0.28,-0.22 -0.05,-0.13 -0.03,-0.28 0.06,-0.39l3.34 -4.2c0.06,-0.08 0.14,-0.11 0.23,-0.11 0.09,0 0.17,0.04 0.23,0.11l3.34 4.2c0.08,0.11 0.11,0.25 0.06,0.39 -0.05,0.13 -0.16,0.22 -0.28,0.22l-1.25 0zm1.75 3.35l3.34 -4.2c0.06,-0.08 0.14,-0.12 0.23,-0.12 0.09,0 0.17,0.04 0.23,0.12l3.34 4.2c0.08,0.11 0.11,0.25 0.06,0.39 -0.05,0.13 -0.16,0.22 -0.28,0.22l-1.25 0 0 10.42 -4.17 0 0 -10.42 -1.25 0c-0.12,0 -0.23,-0.08 -0.28,-0.22 -0.05,-0.13 -0.03,-0.28 0.06,-0.39zm-14.79 0l3.34 -4.2c0.06,-0.08 0.14,-0.12 0.23,-0.12 0.09,0 0.17,0.04 0.23,0.12l3.34 4.2c0.08,0.11 0.11,0.25 0.06,0.39 -0.05,0.13 -0.16,0.22 -0.28,0.22l-1.25 0 0 10.42 -4.17 0 0 -10.42 -1.25 0c-0.12,0 -0.23,-0.08 -0.28,-0.22 -0.05,-0.13 -0.03,-0.28 0.06,-0.39z"/>
 </g>
</svg>
