<svg version="1.1" xmlns="http://www.w3.org/2000/svg" xmlns:xlink="http://www.w3.org/1999/xlink" x="0px" y="0px"
	 viewBox="0 0 45.4 45.4" style="enable-background:new 0 0 45.4 45.4;" xml:space="preserve">
<g>
	<path class="st0" d="M22.7,20c-1.5,0-2.7,1.2-2.7,2.7s1.2,2.7,2.7,2.7c1.5,0,2.7-1.2,2.7-2.7S24.2,20,22.7,20z"/>
	<path class="st0" d="M26.6,14.8h-7.8c-2.2,0-4,1.8-4,4v7.8c0,2.2,1.8,4,4,4h7.8c2.2,0,4-1.8,4-4v-7.8
		C30.6,16.6,28.8,14.8,26.6,14.8z M22.7,28.5c-3.2,0-5.8-2.6-5.8-5.8s2.6-5.8,5.8-5.8c3.2,0,5.8,2.6,5.8,5.8S25.9,28.5,22.7,28.5z"
		/>
	<path class="st0" d="M22.7,0C10.2,0,0,10.2,0,22.7c0,12.5,10.2,22.7,22.7,22.7s22.7-10.2,22.7-22.7C45.4,10.2,35.2,0,22.7,0z
		 M33.7,26.6c0,3.9-3.2,7.1-7.1,7.1h-7.8c-3.9,0-7.1-3.2-7.1-7.1v-7.8c0-3.9,3.2-7.1,7.1-7.1h7.8c3.9,0,7.1,3.2,7.1,7.1V26.6z"/>
</g>
</svg>
