<svg xmlns="http://www.w3.org/2000/svg" width="320.44" height="132.44" viewBox="0 0 7837.89 3239.54" shape-rendering="geometricPrecision" text-rendering="geometricPrecision" image-rendering="optimizeQuality" fill-rule="evenodd" clip-rule="evenodd"><g><g><path d="M4069.77 453.48c-244.34 0-446.89 81.99-602.09 243.82-152.91 159.35-230.42 355.28-230.42 582.26 0 227 77.52 422.91 230.42 582.29 153.23 159.69 355.77 240.69 602.09 240.69 247.68 0 443.61-78.71 598.99-240.69 154.96-161.57 233.59-357.51 233.59-582.29 0-224.78-78.63-420.7-233.59-582.26-155.21-161.83-356.73-243.82-598.99-243.82zm0 183.13c180.61 0 332.65 62.05 452.12 184.51 122.32 122.36 184.37 276.57 184.37 458.44 0 181.9-62.05 336.08-184.41 458.56-120.17 120.17-272.28 181.19-452.07 181.19-181.33 0-330.26-59.34-455.01-181.03-120.43-123.55-181.45-277.87-181.45-458.73 0-180.84 61.02-335.15 181.19-458.44 124.21-124.17 273.1-184.51 455.27-184.51zM7273.6 453.48c-247.24 0-470.43 110.09-606.66 296.81-81.48-197.03-249.98-296.81-501.52-296.81-217.07 0-422.61 91.48-553.46 242.72v-11.6c0-106.54-86.37-192.88-192.87-192.88v1379.62c0 106.53 86.34 192.87 192.87 192.87V963.39c50.76-90.57 122.56-166.47 218.8-231.72 96.11-63.06 196.92-95.06 299.52-95.06 271.44 0 403.39 155.98 403.39 476.92v757.81c0 106.53 86.34 192.87 192.87 192.87v-931.47c0-19.04-1.41-49.18-3.27-89.54l-2.88-65.09c45.72-91.84 117.31-172.74 212.64-240.36 98.99-68.03 198.91-101.14 305.45-101.14 99.99 0 167.53 20.74 258.59 79.48 94.04 57.63 147.95 203.71 147.95 400.65v754.6c0 106.53 86.34 192.87 192.87 192.87v-976.26c0-403.26-205.69-634.47-564.29-634.47zM2138.19 0v1640.45c0 293.67 153.32 462.09 420.6 462.09 136.76 0 237.57-24.46 308.1-74.9l10.33-7.36v-189.15l-36.84 21.23c-78.13 45.04-158.75 66.95-246.42 66.95-189.2 0-262.86-88.96-262.86-317.2v-583.64h215.05c99.47 0 180.09-80.62 180.09-180.09H2331.1V192.87C2331.1 86.34 2244.74 0 2138.2 0zM1510.59 898.02c-26.4-89.43-78.19-166.62-144.38-230.77-66.95 1.24-123.54 43.95-145.84 103.49 58.32 53.85 97.98 124.01 111.51 209.95 12.01 2.89 24.39 4.85 37.28 4.85 61.91 0 115.08-35.83 141.43-87.53z"/><path d="M1369.16 1157.54c-10.84 0-21.1-2.17-31.68-3.2v477.82c-107.76 140.05-313.88 287.16-575.79 287.16a819.2 819.2 0 01-106.22-6.87l-10.19-1.42a703.34 703.34 0 01-28.32-4.83c-434.01-93.58-442.11-489.23-443.68-505.68C117.18 818 492.42 698.48 589.54 668.36c75.5-21.07 152.76-31.75 229.66-31.75 90.99 0 177.76 15.09 253.61 44.53a331.44 331.44 0 01123.29-136.03c-113.87-59.62-240.28-91.65-351.39-91.65-92.34 0-180.82 10.84-261.09 31.75-1.61.26-39.95 7.2-95.01 30.14l-5.84 2.03-.67.75C333.83 581.34-24.17 729.65 1.3 1400.77c.54 13.88.26 342.46 265.15 547.01l24.08 19.18c108.28 78.79 235.74 123.23 385.16 133.13 4.02.78 41.52 2.46 44.49 2.46 258.47 0 472.67-87.26 637.58-259.57 21.77 104.89 83.87 180.7 171.54 214.36v-875.2c0-3.75.89-7.28 1.12-10.97v-57.34c-47.93 27.01-102.44 43.71-161.26 43.71z"/><g><path d="M1853.37 2943.2h38.74l77.06 223.9 80.5-223.9h48.46l-106.32 290.39h-41.84l-77.42-220.96-77.07 220.96h-42.1l-106.39-290.39h48.46l80.57 223.9zM2626.43 3104.14l-251.3-.54c1.65 26.16 13.15 48.8 34.41 67.96 21.31 19.09 46.32 28.67 75.06 28.67 19.26 0 37.19-4.07 53.79-12.2 16.54-8.01 28.29-16.05 35.22-24.17l10.98-11.78 28.97 27.11a175.75 175.75 0 01-5.49 6.67c-2.43 2.92-7.66 7.71-15.74 14.49a167.49 167.49 0 01-26.1 18.04c-9.37 5.21-21.42 10-36.16 14.49a160.47 160.47 0 01-45.47 6.66c-42.16 0-78.44-14.79-108.86-44.18-30.41-29.5-45.59-65.15-45.59-107.15 0-41.89 15.01-77.65 45.1-107.04 30.12-29.51 65.54-44.2 106.2-44.2 42.12 0 77.35 13.76 105.71 41.18 28.29 27.52 42.45 62.22 42.45 104.21l-3.18 21.8zm-75.62-101.95c-19.2-17.07-42.33-25.63-69.36-25.63-27.08 0-50.67 8.95-70.8 26.88-20.14 17.93-31.96 39.18-35.51 63.78h209.46c-3.32-26.14-14.58-47.82-33.78-65.04zM2951.48 2809.9v178.74a84.63 84.63 0 014.63-5.42c2.14-2.5 6.7-6.66 13.48-12.62a138.35 138.35 0 0122.19-15.72c8-4.7 18.2-8.86 30.67-12.53a141.49 141.49 0 0138.52-5.42c39.47 0 74.01 14.9 103.66 44.62 29.67 29.68 44.55 65.34 44.55 106.83 0 41.49-14.81 77.02-44.38 106.62-29.58 29.71-64.16 44.5-103.83 44.5a136.2 136.2 0 01-38.17-5.31c-12.33-3.55-22.63-7.82-31.02-12.7a179.74 179.74 0 01-21.86-14.91c-6.17-5.11-10.77-9.38-13.65-12.93l-4.79-5.64v45.56h-44.92v-423.68h44.92zm33.85 200.21c-22.52 22.31-33.85 48.38-33.85 78.28 0 29.8 11.33 55.87 33.85 78.28 22.54 22.31 47.78 33.55 75.64 33.55 26.63 0 50.48-10.94 71.58-32.74 21.08-21.68 31.64-48.15 31.64-79.1 0-31.05-10.56-57.43-31.64-79.23-21.1-21.77-44.95-32.61-71.58-32.61-27.86 0-53.1 11.14-75.64 33.55zM3985.51 2976.57l-32.4 30.11a68.13 68.13 0 00-7.45-8.43c-3.2-3.24-10.71-7.62-22.46-13.25a86.22 86.22 0 00-37.75-8.43c-17.2 0-31.12 4.27-41.84 12.7-10.71 8.44-16.03 18.25-16.03 29.51 0 11.66 5.77 20.96 17.27 28.13 11.54 7.1 25.51 12.73 41.84 16.89a796.17 796.17 0 0149.1 14.48 98.54 98.54 0 0141.84 26.71c11.55 12.29 17.32 27.92 17.32 47.09 0 25.03-10.21 45.77-30.53 62.45-20.35 16.68-47.7 25-82.11 25-14.65 0-28.48-1.75-41.35-5.31-12.92-3.55-23.57-7.82-31.96-12.7a181.48 181.48 0 01-21.87-14.91c-6.12-5.11-10.72-9.38-13.62-12.93l-4.11-5.64 32.4-30.11c.82 1.27 1.99 2.71 3.44 4.58 1.5 1.9 4.76 5.21 9.93 10.12 5.09 4.79 10.6 9.18 16.46 12.91 5.89 3.86 13.43 7.31 22.71 10.23a89.39 89.39 0 0027.96 4.47c21.79 0 38.57-4.59 50.15-13.65 11.66-9.07 17.47-20.53 17.47-34.51 0-12.07-5.81-21.88-17.47-29.39-11.58-7.61-25.58-13.64-41.84-18.04a997.96 997.96 0 01-48.87-14.78c-16.38-5.42-30.38-13.97-42.01-25.75-11.66-11.68-17.47-26.79-17.47-45.34 0-21.89 9.81-40.97 29.39-57.33 19.64-16.38 44.22-24.51 73.8-24.51 11.93 0 23.64 1.35 35.06 3.97 11.44 2.72 20.81 5.94 28.15 9.79a193.96 193.96 0 0119.69 11.78c5.77 4.07 9.88 7.31 12.43 9.61l4.71 4.48zM4297.69 2912.97v-66.7h41.84v96.93h67.7v39.3h-67.7V3155c0 30.32 13.97 45.44 41.84 45.23 6.87 0 13.76-.82 20.62-2.39 6.78-1.56 11.98-2.92 15.54-4.18l5.68-2.29v39.29c-12.79 6.06-27.43 9.07-43.74 8.86-26.63 0-47.49-7.38-62.47-21.98-15-14.69-22.43-35.53-22.43-62.54v-172.5h-58.27v-39.3h35.63c17.2 0 25.75-10.11 25.75-30.23zM4919.18 3233.59v-39.29c-.89 1.15-2.13 2.83-3.79 4.9-1.65 2.08-5.65 5.73-11.77 10.94a137.43 137.43 0 01-19.98 13.88c-7.19 4.07-16.52 7.59-28.18 10.72a133.8 133.8 0 01-36.06 4.79c-36.07 0-66.04-11.78-89.78-35.32-23.76-23.55-35.74-54.1-35.74-91.72v-169.28h45.07v169.28c0 25.41 8.31 46.37 25.06 62.96 16.87 16.45 37.4 24.79 61.72 24.79 26.19 0 48.39-9.07 66.35-27.2 18.11-18.13 27.11-41.28 27.11-69.43v-160.4h45.27v290.38h-45.27zM5499.03 2988.64V2809.9h45.04v423.68h-45.04v-45.56c-.8 1.27-2.33 3.04-4.34 5.54-2.1 2.51-6.66 6.67-13.52 12.5a148.58 148.58 0 01-22.43 15.85c-7.88 4.6-18.19 8.75-30.63 12.3a139.24 139.24 0 01-38.49 5.31c-39.42 0-74.04-14.79-103.66-44.5-29.74-29.6-44.5-65.13-44.5-106.62 0-41.49 14.76-77.15 44.5-106.83 29.62-29.72 64.24-44.62 103.66-44.62 13.19 0 25.95 1.9 38.17 5.42 12.31 3.67 22.63 7.92 30.95 12.73 8.43 4.89 15.77 9.79 21.86 14.91 6.22 5.2 10.89 9.48 14.09 13.01l4.34 5.63zm-33.73 178.04c22.52-22.41 33.73-48.48 33.73-78.28 0-29.91-11.21-55.98-33.73-78.28-22.66-22.41-47.84-33.55-75.69-33.55-26.63 0-50.51 10.83-71.58 32.61-21.1 21.8-31.64 48.17-31.64 79.23 0 30.95 10.54 57.42 31.64 79.1 21.07 21.8 44.95 32.74 71.58 32.74 27.84 0 53.03-11.24 75.69-33.55zM5845.39 2865.55a25.4 25.4 0 01-8.32-19.28c0-7.7 2.76-14.17 8.32-19.39 5.54-5.21 12.42-7.83 20.62-7.83 8.11 0 15 2.62 20.54 7.83a25.52 25.52 0 018.34 19.39c0 7.6-2.78 14.07-8.34 19.28-5.54 5.32-12.43 7.92-20.54 7.92-8.2 0-15.09-2.6-20.62-7.92zm-1.77 368.04v-290.38h45.07v290.38h-45.07zM6208.5 3195.77c-30.75-29.08-46.05-64.94-46.05-107.37 0-42.42 15.3-78.28 46.05-107.56 30.74-29.3 68.03-43.89 111.88-43.89 43.83 0 81.02 14.6 111.65 43.89 30.63 29.28 45.93 65.14 45.93 107.56s-15.3 78.28-45.93 107.37c-30.63 29.18-67.82 43.75-111.65 43.75-43.85 0-81.14-14.58-111.88-43.75zm191.22-27.94c22.21-21.59 33.2-48.06 33.2-79.43 0-31.47-10.98-57.96-33.2-79.52-22.08-21.59-48.6-32.31-79.57-32.31-30.96 0-57.47 10.72-79.58 32.31-22.08 21.56-33.17 48.05-33.17 79.31 0 31.16 11.09 57.63 33.17 79.31 22.1 21.8 48.62 32.74 79.58 32.74 30.97 0 57.49-10.84 79.57-32.4z"/></g></g></g></svg>