<?xml version="1.0" encoding="utf-8"?>
<svg version="1.1" xmlns="http://www.w3.org/2000/svg" xmlns:xlink="http://www.w3.org/1999/xlink" x="0px" y="0px"
	 viewBox="0 0 45.4 45.4" style="enable-background:new 0 0 45.4 45.4;" xml:space="preserve">
<g>
	<path d="M22.7,0c12.5,0,22.7,10.2,22.7,22.7S35.2,45.4,22.7,45.4S0,35.2,0,22.7S10.2,0,22.7,0z M31.6,16.5
		c0.1-1.1,0.1-2-1.2-1.9c-0.8,0.1-1.8,0.5-2.4,0.8c-1.5,0.5-3,1.2-4.5,1.8c-3.7,1.5-7.4,3.2-11.1,4.8c-3,1.3-0.9,1.9,0.9,2.4
		c3.5,1.1,3.4,0.7,6.8-1.6l5.7-3.8c0.8-0.5,0.9,0.1,0.7,0.3c-0.1,0.3-2.2,2.2-2.4,2.4c-0.6,0.5-1.1,1-1.7,1.5l-1.6,1.6
		c-0.4,0.4-1.4,1.1-0.8,1.9c0.3,0.4,3.1,2.2,3.7,2.7c0.7,0.4,1.2,0.8,1.9,1.3c1.6,1.2,3.1,1.9,3.7-0.6
		C29.9,28.3,31.5,18.5,31.6,16.5L31.6,16.5z"/>
</g>
</svg>
