<svg version="1.1" xmlns="http://www.w3.org/2000/svg" xmlns:xlink="http://www.w3.org/1999/xlink" x="0px" y="0px" viewBox="0 0 45.4 45.4"
	 style="enable-background:new 0 0 45.4 45.4;" xml:space="preserve">
	<g>
		<path class="st0" d="M22.7,0C10.2,0,0,10.2,0,22.7s10.2,22.7,22.7,22.7s22.7-10.2,22.7-22.7S35.2,0,22.7,0z M32,24.8
			c0.9,0.9,1.8,1.7,2.6,2.7c0.4,0.4,0.7,0.9,0.9,1.4c0.4,0.7,0,1.5-0.6,1.5H31c-1,0.1-1.8-0.3-2.5-1c-0.5-0.6-1-1.1-1.6-1.7
			c-0.2-0.2-0.4-0.5-0.7-0.6c-0.5-0.3-1-0.2-1.3,0.3c-0.3,0.6-0.4,1.2-0.4,1.8c0,0.9-0.3,1.2-1.2,1.2c-2,0.1-3.9-0.2-5.6-1.2
			c-1.5-0.9-2.7-2.1-3.8-3.5c-2-2.7-3.6-5.8-5-8.9c-0.3-0.7-0.1-1.1,0.7-1.1c1.3,0,2.6,0,3.8,0c0.5,0,0.9,0.3,1.1,0.8
			c0.7,1.7,1.5,3.3,2.6,4.8c0.3,0.4,0.6,0.8,1,1.1c0.5,0.3,0.8,0.2,1-0.3c0.1-0.3,0.2-0.7,0.2-1c0.1-1.2,0.1-2.4-0.1-3.5
			c-0.1-0.7-0.5-1.2-1.3-1.4c-0.4-0.1-0.3-0.2-0.1-0.4c0.3-0.4,0.6-0.6,1.2-0.6h4.4c0.7,0.1,0.9,0.5,0.9,1.2v4.9
			c0,0.3,0.1,1.1,0.6,1.3c0.4,0.1,0.7-0.2,0.9-0.4c1.1-1.1,1.8-2.5,2.5-3.8c0.3-0.6,0.6-1.2,0.8-1.9c0.2-0.5,0.5-0.7,1-0.7h4.3
			c0.1,0,0.3,0,0.4,0c0.7,0.1,0.9,0.4,0.7,1.1c-0.4,1.1-1,2-1.7,2.9c-0.7,1-1.5,1.9-2.2,2.9C31.1,23.5,31.2,24,32,24.8z"/>
	</g>
</svg>
