<?xml version="1.0" encoding="utf-8"?>
<svg version="1.1" xmlns="http://www.w3.org/2000/svg" xmlns:xlink="http://www.w3.org/1999/xlink" x="0px" y="0px"
	 viewBox="0 0 45.4 45.4" style="enable-background:new 0 0 45.4 45.4;" xml:space="preserve">
<g>
	<path d="M27.9,24.9C27.5,24.7,26,24,25.7,24c-0.6,0.1-0.8,1.5-1.6,1.4c-0.5-0.1-1.6-0.8-2-1.1c-0.4-0.3-2-1.9-2.1-2.5
		c-0.1-0.7,1.3-0.9,0.8-2l-0.9-2.1c-0.2-0.3-0.8-0.3-1.2-0.2v0c0,0,0,0,0,0l0,0v0c-0.6,0.2-0.6,0.2-0.9,0.6c-0.9,1-0.8,2.5-0.3,3.6
		c0.6,1.3,1.8,2.7,2.6,3.5c1,1,2.1,1.7,3.7,2.3c0.6,0.2,1.7,0.6,2.5,0.5c1.2-0.2,2.2-1,2.3-2.3C28.6,25.2,28.3,25.1,27.9,24.9z"/>
	<path d="M22.7,0C10.2,0,0,10.2,0,22.7c0,12.5,10.2,22.7,22.7,22.7c12.5,0,22.7-10.2,22.7-22.7C45.4,10.2,35.2,0,22.7,0
		z M22.7,32.3c-1.9,0-3.6-0.6-5.2-1.5l-1,0.3l0,0l0,0L13.6,32l0.6-1.7l0.5-1.5l0.2-0.6c-1.1-1.5-1.7-3.4-1.7-5.5
		c0-5.3,4.3-9.6,9.6-9.6c5.3,0,9.6,4.3,9.6,9.6C32.3,28,28,32.3,22.7,32.3z"/>
</g>
</svg>
