<svg xmlns="http://www.w3.org/2000/svg" xmlns:xlink="http://www.w3.org/1999/xlink" version="1.1" id="Слой_1" x="0px" y="0px" viewBox="0 0 32 32" style="enable-background:new 0 0 32 32;" xml:space="preserve">
<g>
	<path d="M19.4,23c-1.9,1.2-4.1,1.9-6.5,1.9c-6.6,0-12-5.3-12-12s5.3-12,12-12c6.6,0,12,5.3,12,12c0,2.4-0.7,4.6-1.9,6.5l1.3,1.3   l6.7,6.7c0,0-0.4,0.4-1,1L28.3,30c-0.5,0.5-1,1-1,1l-6.7-6.7L19.4,23z M20.3,12.9c0-4.1-3.3-7.4-7.4-7.4c-4.1,0-7.4,3.3-7.4,7.4   c0,4.1,3.3,7.4,7.4,7.4C17,20.3,20.3,17,20.3,12.9z"/>
</g>
</svg>