<?xml version="1.0" encoding="utf-8"?><!DOCTYPE svg PUBLIC "-//W3C//DTD SVG 1.1//EN" "http://www.w3.org/Graphics/SVG/1.1/DTD/svg11.dtd"><svg viewBox="0 0 644 587.4" xmlns="http://www.w3.org/2000/svg" xmlns:xlink="http://www.w3.org/1999/xlink"><style>:root>svg{display:none}:root>svg:target{display:block}</style><svg viewBox="0 0 451.111 451.111" id="arrow" xmlns="http://www.w3.org/2000/svg"><path d="M257.778 32.222l-48.333 48.333 112.778 112.778H0v64.444h322.222L209.445 370.556l48.333 48.333 193.333-193.333z"/></svg><svg viewBox="0 0 644 587.4" id="atom-image" xmlns="http://www.w3.org/2000/svg"><style>.bcls-white{fill:#fff}</style><path class="bcls-white" d="M461 133.8c-2.9 0-5.3-2.4-5.3-5.3s2.4-5.3 5.3-5.3 5.3 2.4 5.3 5.3-2.4 5.3-5.3 5.3zm0-9.2c-2.1 0-3.9 1.7-3.9 3.9 0 2.1 1.7 3.9 3.9 3.9 2.1 0 3.9-1.7 3.9-3.9s-1.8-3.9-3.9-3.9zM472.1 112.6c-2.9 0-5.3-2.4-5.3-5.3s2.4-5.3 5.3-5.3 5.3 2.4 5.3 5.3-2.4 5.3-5.3 5.3zm0-9.2c-2.1 0-3.9 1.7-3.9 3.9 0 2.1 1.7 3.9 3.9 3.9 2.1 0 3.9-1.7 3.9-3.9s-1.8-3.9-3.9-3.9zM510.2 133.8c-2.9 0-5.3-2.4-5.3-5.3s2.4-5.3 5.3-5.3 5.3 2.4 5.3 5.3-2.4 5.3-5.3 5.3zm0-9.2c-2.1 0-3.9 1.7-3.9 3.9 0 2.1 1.7 3.9 3.9 3.9 2.1 0 3.9-1.7 3.9-3.9-.1-2.2-1.8-3.9-3.9-3.9zM472.1 155c-2.9 0-5.3-2.4-5.3-5.3s2.4-5.3 5.3-5.3 5.3 2.4 5.3 5.3-2.4 5.3-5.3 5.3zm0-9.2c-2.1 0-3.9 1.7-3.9 3.9 0 2.1 1.7 3.9 3.9 3.9 2.1 0 3.9-1.7 3.9-3.9s-1.8-3.9-3.9-3.9zM499 155c-2.9 0-5.3-2.4-5.3-5.3s2.4-5.3 5.3-5.3 5.3 2.4 5.3 5.3-2.3 5.3-5.3 5.3zm0-9.2c-2.1 0-3.9 1.7-3.9 3.9 0 2.1 1.7 3.9 3.9 3.9s3.9-1.7 3.9-3.9-1.7-3.9-3.9-3.9zM498.2 112.6c-2.9 0-5.3-2.4-5.3-5.3s2.4-5.3 5.3-5.3 5.3 2.4 5.3 5.3-2.4 5.3-5.3 5.3zm0-9.2c-2.1 0-3.9 1.7-3.9 3.9 0 2.1 1.7 3.9 3.9 3.9s3.9-1.7 3.9-3.9-1.8-3.9-3.9-3.9zM491.2 130.1c-.3 0-.6 0-.9-.1-.6 1.4-2 2.3-3.6 2.3-2.1 0-3.9-1.7-3.9-3.9 0-2.1 1.7-3.9 3.9-3.9.2 0 .5 0 .7.1.2-.5.5-.9.8-1.2-.5-.1-1-.2-1.5-.2-2.9 0-5.3 2.4-5.3 5.3s2.4 5.3 5.3 5.3c2.4 0 4.4-1.5 5-3.7h-.5z"/><path class="bcls-white" d="M491.2 128.8c.3 0 .6-.1.8-.1v-.2c0-1.9-1-3.5-2.4-4.5-.4.3-.7.7-.9 1.1 1.1.7 1.9 1.9 1.9 3.3v.2c.2.1.4.2.6.2z"/><g><path class="bcls-white" d="M463.2 135.6c-2.9 0-5.3-2.4-5.3-5.3s2.4-5.3 5.3-5.3 5.3 2.4 5.3 5.3-2.4 5.3-5.3 5.3zM474.3 114.4c-2.9 0-5.3-2.4-5.3-5.3s2.4-5.3 5.3-5.3 5.3 2.4 5.3 5.3-2.4 5.3-5.3 5.3zM512.3 135.6c-2.9 0-5.3-2.4-5.3-5.3s2.4-5.3 5.3-5.3 5.3 2.4 5.3 5.3-2.4 5.3-5.3 5.3zM474.3 156.8c-2.9 0-5.3-2.4-5.3-5.3s2.4-5.3 5.3-5.3 5.3 2.4 5.3 5.3-2.4 5.3-5.3 5.3zM501.2 156.8c-2.9 0-5.3-2.4-5.3-5.3s2.4-5.3 5.3-5.3 5.3 2.4 5.3 5.3-2.4 5.3-5.3 5.3zM500.4 114.4c-2.9 0-5.3-2.4-5.3-5.3s2.4-5.3 5.3-5.3 5.3 2.4 5.3 5.3-2.4 5.3-5.3 5.3zM493.4 132c-.3 0-.6 0-.9-.1-.6 1.4-2 2.3-3.6 2.3-2.1 0-3.9-1.7-3.9-3.9 0-2.1 1.7-3.9 3.9-3.9.2 0 .5 0 .7.1.2-.5.5-.9.8-1.2-.5-.1-1-.2-1.5-.2-2.9 0-5.3 2.4-5.3 5.3s2.4 5.3 5.3 5.3c2.4 0 4.4-1.5 5-3.7-.1-.1-.3 0-.5 0z"/><path class="bcls-white" d="M493.4 130.6c.3 0 .6-.1.8-.1v-.2c0-1.9-1-3.5-2.4-4.5-.4.3-.7.7-.9 1.1 1.1.7 1.9 1.9 1.9 3.3v.2c.2.2.4.2.6.2z"/></g><g><path class="bcls-white" d="M461 197c-2.9 0-5.3-2.4-5.3-5.3s2.4-5.3 5.3-5.3 5.3 2.4 5.3 5.3-2.4 5.3-5.3 5.3zm0-9.2c-2.1 0-3.9 1.7-3.9 3.9 0 2.1 1.7 3.9 3.9 3.9 2.1 0 3.9-1.7 3.9-3.9 0-2.1-1.8-3.9-3.9-3.9zM472.1 175.8c-2.9 0-5.3-2.4-5.3-5.3s2.4-5.3 5.3-5.3 5.3 2.4 5.3 5.3-2.4 5.3-5.3 5.3zm0-9.2c-2.1 0-3.9 1.7-3.9 3.9 0 2.1 1.7 3.9 3.9 3.9 2.1 0 3.9-1.7 3.9-3.9 0-2.1-1.8-3.9-3.9-3.9zM510.2 197c-2.9 0-5.3-2.4-5.3-5.3s2.4-5.3 5.3-5.3 5.3 2.4 5.3 5.3-2.4 5.3-5.3 5.3zm0-9.2c-2.1 0-3.9 1.7-3.9 3.9 0 2.1 1.7 3.9 3.9 3.9 2.1 0 3.9-1.7 3.9-3.9-.1-2.1-1.8-3.9-3.9-3.9zM472.1 218.2c-2.9 0-5.3-2.4-5.3-5.3s2.4-5.3 5.3-5.3 5.3 2.4 5.3 5.3-2.4 5.3-5.3 5.3zm0-9.2c-2.1 0-3.9 1.7-3.9 3.9 0 2.1 1.7 3.9 3.9 3.9 2.1 0 3.9-1.7 3.9-3.9 0-2.1-1.8-3.9-3.9-3.9zM499 218.2c-2.9 0-5.3-2.4-5.3-5.3s2.4-5.3 5.3-5.3 5.3 2.4 5.3 5.3-2.3 5.3-5.3 5.3zm0-9.2c-2.1 0-3.9 1.7-3.9 3.9 0 2.1 1.7 3.9 3.9 3.9s3.9-1.7 3.9-3.9c0-2.1-1.7-3.9-3.9-3.9zM498.2 175.8c-2.9 0-5.3-2.4-5.3-5.3s2.4-5.3 5.3-5.3 5.3 2.4 5.3 5.3-2.4 5.3-5.3 5.3zm0-9.2c-2.1 0-3.9 1.7-3.9 3.9 0 2.1 1.7 3.9 3.9 3.9s3.9-1.7 3.9-3.9c0-2.1-1.8-3.9-3.9-3.9zM491.2 193.4c-.3 0-.6 0-.9-.1-.6 1.4-2 2.3-3.6 2.3-2.1 0-3.9-1.7-3.9-3.9 0-2.1 1.7-3.9 3.9-3.9.2 0 .5 0 .7.1.2-.5.5-.9.8-1.2-.5-.1-1-.2-1.5-.2-2.9 0-5.3 2.4-5.3 5.3s2.4 5.3 5.3 5.3c2.4 0 4.4-1.5 5-3.7h-.5z"/><path class="bcls-white" d="M491.2 192c.3 0 .6-.1.8-.1v-.2c0-1.9-1-3.5-2.4-4.5-.4.3-.7.7-.9 1.1 1.1.7 1.9 1.9 1.9 3.3v.2c.2.2.4.2.6.2z"/><g><path class="bcls-white" d="M463.2 198.9c-2.9 0-5.3-2.4-5.3-5.3s2.4-5.3 5.3-5.3 5.3 2.4 5.3 5.3-2.4 5.3-5.3 5.3zM474.3 177.7c-2.9 0-5.3-2.4-5.3-5.3s2.4-5.3 5.3-5.3 5.3 2.4 5.3 5.3-2.4 5.3-5.3 5.3zM512.3 198.9c-2.9 0-5.3-2.4-5.3-5.3s2.4-5.3 5.3-5.3 5.3 2.4 5.3 5.3-2.4 5.3-5.3 5.3zM474.3 220.1c-2.9 0-5.3-2.4-5.3-5.3s2.4-5.3 5.3-5.3 5.3 2.4 5.3 5.3-2.4 5.3-5.3 5.3zM501.2 220.1c-2.9 0-5.3-2.4-5.3-5.3s2.4-5.3 5.3-5.3 5.3 2.4 5.3 5.3-2.4 5.3-5.3 5.3zM500.4 177.7c-2.9 0-5.3-2.4-5.3-5.3s2.4-5.3 5.3-5.3 5.3 2.4 5.3 5.3-2.4 5.3-5.3 5.3zM493.4 195.2c-.3 0-.6 0-.9-.1-.6 1.4-2 2.3-3.6 2.3-2.1 0-3.9-1.7-3.9-3.9 0-2.1 1.7-3.9 3.9-3.9.2 0 .5 0 .7.1.2-.5.5-.9.8-1.2-.5-.1-1-.2-1.5-.2-2.9 0-5.3 2.4-5.3 5.3s2.4 5.3 5.3 5.3c2.4 0 4.4-1.5 5-3.7h-.5z"/><path class="bcls-white" d="M493.4 193.9c.3 0 .6-.1.8-.1v-.2c0-1.9-1-3.5-2.4-4.5-.4.3-.7.7-.9 1.1 1.1.7 1.9 1.9 1.9 3.3v.2c.2.1.4.2.6.2z"/></g></g><g><path class="bcls-white" d="M584.9 240.9c-2.9 0-5.3-2.4-5.3-5.3s2.4-5.3 5.3-5.3 5.3 2.4 5.3 5.3-2.4 5.3-5.3 5.3zm0-9.2c-2.1 0-3.9 1.7-3.9 3.9 0 2.1 1.7 3.9 3.9 3.9 2.1 0 3.9-1.7 3.9-3.9-.1-2.1-1.8-3.9-3.9-3.9zM596 219.7c-2.9 0-5.3-2.4-5.3-5.3s2.4-5.3 5.3-5.3 5.3 2.4 5.3 5.3-2.4 5.3-5.3 5.3zm0-9.2c-2.1 0-3.9 1.7-3.9 3.9 0 2.1 1.7 3.9 3.9 3.9s3.9-1.7 3.9-3.9c0-2.1-1.8-3.9-3.9-3.9zM634 240.9c-2.9 0-5.3-2.4-5.3-5.3s2.4-5.3 5.3-5.3 5.3 2.4 5.3 5.3-2.4 5.3-5.3 5.3zm0-9.2c-2.1 0-3.9 1.7-3.9 3.9 0 2.1 1.7 3.9 3.9 3.9 2.1 0 3.9-1.7 3.9-3.9 0-2.1-1.7-3.9-3.9-3.9zM596 262.1c-2.9 0-5.3-2.4-5.3-5.3s2.4-5.3 5.3-5.3 5.3 2.4 5.3 5.3-2.4 5.3-5.3 5.3zm0-9.2c-2.1 0-3.9 1.7-3.9 3.9 0 2.1 1.7 3.9 3.9 3.9s3.9-1.7 3.9-3.9c0-2.1-1.8-3.9-3.9-3.9zM622.9 262.1c-2.9 0-5.3-2.4-5.3-5.3s2.4-5.3 5.3-5.3 5.3 2.4 5.3 5.3-2.4 5.3-5.3 5.3zm0-9.2c-2.1 0-3.9 1.7-3.9 3.9 0 2.1 1.7 3.9 3.9 3.9s3.9-1.7 3.9-3.9c0-2.1-1.7-3.9-3.9-3.9zM622.1 219.7c-2.9 0-5.3-2.4-5.3-5.3s2.4-5.3 5.3-5.3 5.3 2.4 5.3 5.3-2.4 5.3-5.3 5.3zm0-9.2c-2.1 0-3.9 1.7-3.9 3.9 0 2.1 1.7 3.9 3.9 3.9s3.9-1.7 3.9-3.9c0-2.1-1.8-3.9-3.9-3.9zM615.1 237.3c-.3 0-.6 0-.9-.1-.6 1.4-2 2.3-3.6 2.3-2.1 0-3.9-1.7-3.9-3.9 0-2.1 1.7-3.9 3.9-3.9.2 0 .5 0 .7.1.2-.5.5-.9.8-1.2-.5-.1-1-.2-1.5-.2-2.9 0-5.3 2.4-5.3 5.3s2.4 5.3 5.3 5.3c2.4 0 4.4-1.5 5-3.7h-.5z"/><path class="bcls-white" d="M615.1 235.9c.3 0 .6-.1.8-.1v-.2c0-1.9-1-3.5-2.4-4.5-.4.3-.7.7-.9 1.1 1.1.7 1.9 1.9 1.9 3.3v.2c.2.2.4.2.6.2z"/><g><path class="bcls-white" d="M587 242.7c-2.9 0-5.3-2.4-5.3-5.3s2.4-5.3 5.3-5.3 5.3 2.4 5.3 5.3-2.4 5.3-5.3 5.3zM598.1 221.5c-2.9 0-5.3-2.4-5.3-5.3s2.4-5.3 5.3-5.3 5.3 2.4 5.3 5.3-2.3 5.3-5.3 5.3zM636.2 242.7c-2.9 0-5.3-2.4-5.3-5.3s2.4-5.3 5.3-5.3 5.3 2.4 5.3 5.3-2.4 5.3-5.3 5.3zM598.1 263.9c-2.9 0-5.3-2.4-5.3-5.3s2.4-5.3 5.3-5.3 5.3 2.4 5.3 5.3c0 3-2.3 5.3-5.3 5.3zM625.1 263.9c-2.9 0-5.3-2.4-5.3-5.3s2.4-5.3 5.3-5.3 5.3 2.4 5.3 5.3c0 3-2.4 5.3-5.3 5.3zM624.2 221.5c-2.9 0-5.3-2.4-5.3-5.3s2.4-5.3 5.3-5.3 5.3 2.4 5.3 5.3-2.3 5.3-5.3 5.3zM617.3 239.1c-.3 0-.6 0-.9-.1-.6 1.4-2 2.3-3.6 2.3-2.1 0-3.9-1.7-3.9-3.9 0-2.1 1.7-3.9 3.9-3.9.2 0 .5 0 .7.1.2-.5.5-.9.8-1.2-.5-.1-1-.2-1.5-.2-2.9 0-5.3 2.4-5.3 5.3s2.4 5.3 5.3 5.3c2.4 0 4.4-1.5 5-3.7h-.5z"/><path class="bcls-white" d="M617.3 237.7c.3 0 .6-.1.8-.1v-.2c0-1.9-1-3.5-2.4-4.5-.4.3-.7.7-.9 1.1 1.1.7 1.9 1.9 1.9 3.3v.2c.2.2.4.2.6.2z"/></g></g><g><path class="bcls-white" d="M522.9 220.6c-2.9 0-5.3-2.4-5.3-5.3s2.4-5.3 5.3-5.3 5.3 2.4 5.3 5.3-2.4 5.3-5.3 5.3zm0-9.2c-2.1 0-3.9 1.7-3.9 3.9 0 2.1 1.7 3.9 3.9 3.9 2.1 0 3.9-1.7 3.9-3.9 0-2.1-1.7-3.9-3.9-3.9zM534 199.4c-2.9 0-5.3-2.4-5.3-5.3s2.4-5.3 5.3-5.3 5.3 2.4 5.3 5.3-2.4 5.3-5.3 5.3zm0-9.2c-2.1 0-3.9 1.7-3.9 3.9 0 2.1 1.7 3.9 3.9 3.9s3.9-1.7 3.9-3.9c0-2.1-1.7-3.9-3.9-3.9zM572.1 220.6c-2.9 0-5.3-2.4-5.3-5.3s2.4-5.3 5.3-5.3 5.3 2.4 5.3 5.3-2.4 5.3-5.3 5.3zm0-9.2c-2.1 0-3.9 1.7-3.9 3.9 0 2.1 1.7 3.9 3.9 3.9 2.1 0 3.9-1.7 3.9-3.9 0-2.1-1.8-3.9-3.9-3.9zM534 241.8c-2.9 0-5.3-2.4-5.3-5.3s2.4-5.3 5.3-5.3 5.3 2.4 5.3 5.3-2.4 5.3-5.3 5.3zm0-9.2c-2.1 0-3.9 1.7-3.9 3.9 0 2.1 1.7 3.9 3.9 3.9s3.9-1.7 3.9-3.9c0-2.1-1.7-3.9-3.9-3.9zM561 241.8c-2.9 0-5.3-2.4-5.3-5.3s2.4-5.3 5.3-5.3 5.3 2.4 5.3 5.3-2.4 5.3-5.3 5.3zm0-9.2c-2.1 0-3.9 1.7-3.9 3.9 0 2.1 1.7 3.9 3.9 3.9s3.9-1.7 3.9-3.9c0-2.1-1.8-3.9-3.9-3.9zM560.1 199.4c-2.9 0-5.3-2.4-5.3-5.3s2.4-5.3 5.3-5.3 5.3 2.4 5.3 5.3-2.4 5.3-5.3 5.3zm0-9.2c-2.1 0-3.9 1.7-3.9 3.9 0 2.1 1.7 3.9 3.9 3.9s3.9-1.7 3.9-3.9c0-2.1-1.7-3.9-3.9-3.9zM553.1 217c-.3 0-.6 0-.9-.1-.6 1.4-2 2.3-3.6 2.3-2.1 0-3.9-1.7-3.9-3.9 0-2.1 1.7-3.9 3.9-3.9.2 0 .5 0 .7.1.2-.5.5-.9.8-1.2-.5-.1-1-.2-1.5-.2-2.9 0-5.3 2.4-5.3 5.3s2.4 5.3 5.3 5.3c2.4 0 4.4-1.5 5-3.7h-.5z"/><path class="bcls-white" d="M553.1 215.6c.3 0 .6-.1.8-.1v-.2c0-1.9-1-3.5-2.4-4.5-.4.3-.7.7-.9 1.1 1.1.7 1.9 1.9 1.9 3.3v.2c.2.2.4.2.6.2z"/><g><path class="bcls-white" d="M525.1 222.4c-2.9 0-5.3-2.4-5.3-5.3s2.4-5.3 5.3-5.3 5.3 2.4 5.3 5.3-2.4 5.3-5.3 5.3zM536.2 201.2c-2.9 0-5.3-2.4-5.3-5.3s2.4-5.3 5.3-5.3 5.3 2.4 5.3 5.3-2.4 5.3-5.3 5.3zM574.3 222.4c-2.9 0-5.3-2.4-5.3-5.3s2.4-5.3 5.3-5.3 5.3 2.4 5.3 5.3-2.4 5.3-5.3 5.3zM536.2 243.6c-2.9 0-5.3-2.4-5.3-5.3s2.4-5.3 5.3-5.3 5.3 2.4 5.3 5.3-2.4 5.3-5.3 5.3zM563.2 243.6c-2.9 0-5.3-2.4-5.3-5.3s2.4-5.3 5.3-5.3 5.3 2.4 5.3 5.3-2.4 5.3-5.3 5.3zM562.3 201.2c-2.9 0-5.3-2.4-5.3-5.3s2.4-5.3 5.3-5.3 5.3 2.4 5.3 5.3-2.4 5.3-5.3 5.3zM555.3 218.8c-.3 0-.6 0-.9-.1-.6 1.4-2 2.3-3.6 2.3-2.1 0-3.9-1.7-3.9-3.9 0-2.1 1.7-3.9 3.9-3.9.2 0 .5 0 .7.1.2-.5.5-.9.8-1.2-.5-.1-1-.2-1.5-.2-2.9 0-5.3 2.4-5.3 5.3s2.4 5.3 5.3 5.3c2.4 0 4.4-1.5 5-3.7h-.5z"/><path class="bcls-white" d="M555.3 217.4c.3 0 .6-.1.8-.1v-.2c0-1.9-1-3.5-2.4-4.5-.4.3-.7.7-.9 1.1 1.1.7 1.9 1.9 1.9 3.3v.2c.2.2.4.2.6.2z"/></g></g><g><path class="bcls-white" d="M522.9 283.7c-2.9 0-5.3-2.4-5.3-5.3s2.4-5.3 5.3-5.3 5.3 2.4 5.3 5.3-2.4 5.3-5.3 5.3zm0-9.2c-2.1 0-3.9 1.7-3.9 3.9 0 2.1 1.7 3.9 3.9 3.9 2.1 0 3.9-1.7 3.9-3.9 0-2.1-1.7-3.9-3.9-3.9zM534 262.5c-2.9 0-5.3-2.4-5.3-5.3s2.4-5.3 5.3-5.3 5.3 2.4 5.3 5.3-2.4 5.3-5.3 5.3zm0-9.2c-2.1 0-3.9 1.7-3.9 3.9 0 2.1 1.7 3.9 3.9 3.9s3.9-1.7 3.9-3.9c0-2.1-1.7-3.9-3.9-3.9zM572.1 283.7c-2.9 0-5.3-2.4-5.3-5.3s2.4-5.3 5.3-5.3 5.3 2.4 5.3 5.3-2.4 5.3-5.3 5.3zm0-9.2c-2.1 0-3.9 1.7-3.9 3.9 0 2.1 1.7 3.9 3.9 3.9 2.1 0 3.9-1.7 3.9-3.9 0-2.1-1.8-3.9-3.9-3.9zM534 304.9c-2.9 0-5.3-2.4-5.3-5.3s2.4-5.3 5.3-5.3 5.3 2.4 5.3 5.3-2.4 5.3-5.3 5.3zm0-9.2c-2.1 0-3.9 1.7-3.9 3.9 0 2.1 1.7 3.9 3.9 3.9s3.9-1.7 3.9-3.9c0-2.1-1.7-3.9-3.9-3.9zM561 304.9c-2.9 0-5.3-2.4-5.3-5.3s2.4-5.3 5.3-5.3 5.3 2.4 5.3 5.3-2.4 5.3-5.3 5.3zm0-9.2c-2.1 0-3.9 1.7-3.9 3.9 0 2.1 1.7 3.9 3.9 3.9s3.9-1.7 3.9-3.9c0-2.1-1.8-3.9-3.9-3.9zM560.1 262.5c-2.9 0-5.3-2.4-5.3-5.3s2.4-5.3 5.3-5.3 5.3 2.4 5.3 5.3-2.4 5.3-5.3 5.3zm0-9.2c-2.1 0-3.9 1.7-3.9 3.9 0 2.1 1.7 3.9 3.9 3.9s3.9-1.7 3.9-3.9c0-2.1-1.7-3.9-3.9-3.9zM553.1 280.1c-.3 0-.6 0-.9-.1-.6 1.4-2 2.3-3.6 2.3-2.1 0-3.9-1.7-3.9-3.9 0-2.1 1.7-3.9 3.9-3.9.2 0 .5 0 .7.1.2-.5.5-.9.8-1.2-.5-.1-1-.2-1.5-.2-2.9 0-5.3 2.4-5.3 5.3s2.4 5.3 5.3 5.3c2.4 0 4.4-1.5 5-3.7-.1-.1-.3 0-.5 0z"/><path class="bcls-white" d="M553.1 278.7c.3 0 .6-.1.8-.1v-.2c0-1.9-1-3.5-2.4-4.5-.4.3-.7.7-.9 1.1 1.1.7 1.9 1.9 1.9 3.3v.2c.2.2.4.2.6.2z"/><g><path class="bcls-white" d="M525.1 285.5c-2.9 0-5.3-2.4-5.3-5.3s2.4-5.3 5.3-5.3 5.3 2.4 5.3 5.3-2.4 5.3-5.3 5.3zM536.2 264.3c-2.9 0-5.3-2.4-5.3-5.3s2.4-5.3 5.3-5.3 5.3 2.4 5.3 5.3-2.4 5.3-5.3 5.3zM574.3 285.5c-2.9 0-5.3-2.4-5.3-5.3s2.4-5.3 5.3-5.3 5.3 2.4 5.3 5.3-2.4 5.3-5.3 5.3zM536.2 306.7c-2.9 0-5.3-2.4-5.3-5.3s2.4-5.3 5.3-5.3 5.3 2.4 5.3 5.3-2.4 5.3-5.3 5.3zM563.2 306.7c-2.9 0-5.3-2.4-5.3-5.3s2.4-5.3 5.3-5.3 5.3 2.4 5.3 5.3-2.4 5.3-5.3 5.3zM562.3 264.3c-2.9 0-5.3-2.4-5.3-5.3s2.4-5.3 5.3-5.3 5.3 2.4 5.3 5.3-2.4 5.3-5.3 5.3zM555.3 281.9c-.3 0-.6 0-.9-.1-.6 1.4-2 2.3-3.6 2.3-2.1 0-3.9-1.7-3.9-3.9 0-2.1 1.7-3.9 3.9-3.9.2 0 .5 0 .7.1.2-.5.5-.9.8-1.2-.5-.1-1-.2-1.5-.2-2.9 0-5.3 2.4-5.3 5.3s2.4 5.3 5.3 5.3c2.4 0 4.4-1.5 5-3.7h-.5z"/><path class="bcls-white" d="M555.3 280.5c.3 0 .6-.1.8-.1v-.2c0-1.9-1-3.5-2.4-4.5-.4.3-.7.7-.9 1.1 1.1.7 1.9 1.9 1.9 3.3v.2c.2.2.4.2.6.2z"/></g></g><g><path class="bcls-white" d="M400.8 110c-2.9 0-5.3-2.4-5.3-5.3s2.4-5.3 5.3-5.3 5.3 2.4 5.3 5.3-2.4 5.3-5.3 5.3zm0-9.2c-2.1 0-3.9 1.7-3.9 3.9 0 2.1 1.7 3.9 3.9 3.9 2.1 0 3.9-1.7 3.9-3.9 0-2.1-1.8-3.9-3.9-3.9zM411.9 88.8c-2.9 0-5.3-2.4-5.3-5.3s2.4-5.3 5.3-5.3 5.3 2.4 5.3 5.3-2.4 5.3-5.3 5.3zm0-9.2c-2.1 0-3.9 1.7-3.9 3.9 0 2.1 1.7 3.9 3.9 3.9 2.1 0 3.9-1.7 3.9-3.9 0-2.1-1.7-3.9-3.9-3.9zM450 110c-2.9 0-5.3-2.4-5.3-5.3s2.4-5.3 5.3-5.3 5.3 2.4 5.3 5.3-2.4 5.3-5.3 5.3zm0-9.2c-2.1 0-3.9 1.7-3.9 3.9 0 2.1 1.7 3.9 3.9 3.9 2.1 0 3.9-1.7 3.9-3.9 0-2.1-1.8-3.9-3.9-3.9zM411.9 131.2c-2.9 0-5.3-2.4-5.3-5.3s2.4-5.3 5.3-5.3 5.3 2.4 5.3 5.3-2.4 5.3-5.3 5.3zm0-9.2c-2.1 0-3.9 1.7-3.9 3.9 0 2.1 1.7 3.9 3.9 3.9 2.1 0 3.9-1.7 3.9-3.9 0-2.1-1.7-3.9-3.9-3.9zM438.9 131.2c-2.9 0-5.3-2.4-5.3-5.3s2.4-5.3 5.3-5.3 5.3 2.4 5.3 5.3c-.1 2.9-2.4 5.3-5.3 5.3zm0-9.2c-2.1 0-3.9 1.7-3.9 3.9 0 2.1 1.7 3.9 3.9 3.9s3.9-1.7 3.9-3.9c0-2.1-1.8-3.9-3.9-3.9zM438 88.8c-2.9 0-5.3-2.4-5.3-5.3s2.4-5.3 5.3-5.3 5.3 2.4 5.3 5.3-2.4 5.3-5.3 5.3zm0-9.2c-2.1 0-3.9 1.7-3.9 3.9 0 2.1 1.7 3.9 3.9 3.9s3.9-1.7 3.9-3.9c0-2.1-1.8-3.9-3.9-3.9zM431 106.4c-.3 0-.6 0-.9-.1-.6 1.4-2 2.3-3.6 2.3-2.1 0-3.9-1.7-3.9-3.9 0-2.1 1.7-3.9 3.9-3.9.2 0 .5 0 .7.1.2-.5.5-.9.8-1.2-.5-.1-1-.2-1.5-.2-2.9 0-5.3 2.4-5.3 5.3s2.4 5.3 5.3 5.3c2.4 0 4.4-1.5 5-3.7h-.5z"/><path class="bcls-white" d="M431 105c.3 0 .6-.1.8-.1v-.2c0-1.9-1-3.5-2.4-4.5-.4.3-.7.7-.9 1.1 1.1.7 1.9 1.9 1.9 3.3v.2c.2.2.4.2.6.2z"/><g><path class="bcls-white" d="M403 111.8c-2.9 0-5.3-2.4-5.3-5.3s2.4-5.3 5.3-5.3 5.3 2.4 5.3 5.3-2.4 5.3-5.3 5.3zM414.1 90.6c-2.9 0-5.3-2.4-5.3-5.3s2.4-5.3 5.3-5.3 5.3 2.4 5.3 5.3-2.4 5.3-5.3 5.3zM452.1 111.8c-2.9 0-5.3-2.4-5.3-5.3s2.4-5.3 5.3-5.3 5.3 2.4 5.3 5.3-2.3 5.3-5.3 5.3zM414.1 133c-2.9 0-5.3-2.4-5.3-5.3s2.4-5.3 5.3-5.3 5.3 2.4 5.3 5.3c0 3-2.4 5.3-5.3 5.3zM441 133c-2.9 0-5.3-2.4-5.3-5.3s2.4-5.3 5.3-5.3 5.3 2.4 5.3 5.3c0 3-2.3 5.3-5.3 5.3zM440.2 90.6c-2.9 0-5.3-2.4-5.3-5.3s2.4-5.3 5.3-5.3 5.3 2.4 5.3 5.3-2.4 5.3-5.3 5.3zM433.2 108.2c-.3 0-.6 0-.9-.1-.6 1.4-2 2.3-3.6 2.3-2.1 0-3.9-1.7-3.9-3.9 0-2.1 1.7-3.9 3.9-3.9.2 0 .5 0 .7.1.2-.5.5-.9.8-1.2-.5-.1-1-.2-1.5-.2-2.9 0-5.3 2.4-5.3 5.3s2.4 5.3 5.3 5.3c2.4 0 4.4-1.5 5-3.7h-.5z"/><path class="bcls-white" d="M433.2 106.8c.3 0 .6-.1.8-.1v-.2c0-1.9-1-3.5-2.4-4.5-.4.3-.7.7-.9 1.1 1.1.7 1.9 1.9 1.9 3.3v.2c.2.2.4.2.6.2z"/></g></g><g><path class="bcls-white" d="M65 112c-2.9 0-5.3 2.4-5.3 5.3s2.4 5.3 5.3 5.3 5.3-2.4 5.3-5.3-2.4-5.3-5.3-5.3zm0 9.2c-2.1 0-3.9-1.7-3.9-3.9 0-2.1 1.7-3.9 3.9-3.9 2.1 0 3.9 1.7 3.9 3.9 0 2.1-1.8 3.9-3.9 3.9zM76.1 133.2c-2.9 0-5.3 2.4-5.3 5.3s2.4 5.3 5.3 5.3 5.3-2.4 5.3-5.3-2.4-5.3-5.3-5.3zm0 9.2c-2.1 0-3.9-1.7-3.9-3.9 0-2.1 1.7-3.9 3.9-3.9 2.1 0 3.9 1.7 3.9 3.9 0 2.1-1.8 3.9-3.9 3.9zM114.2 112c-2.9 0-5.3 2.4-5.3 5.3s2.4 5.3 5.3 5.3 5.3-2.4 5.3-5.3-2.4-5.3-5.3-5.3zm0 9.2c-2.1 0-3.9-1.7-3.9-3.9 0-2.1 1.7-3.9 3.9-3.9 2.1 0 3.9 1.7 3.9 3.9-.1 2.1-1.8 3.9-3.9 3.9zM76.1 90.8c-2.9 0-5.3 2.4-5.3 5.3s2.4 5.3 5.3 5.3 5.3-2.4 5.3-5.3-2.4-5.3-5.3-5.3zm0 9.1c-2.1 0-3.9-1.7-3.9-3.9 0-2.1 1.7-3.9 3.9-3.9 2.1 0 3.9 1.7 3.9 3.9s-1.8 3.9-3.9 3.9zM103 90.8c-2.9 0-5.3 2.4-5.3 5.3s2.4 5.3 5.3 5.3 5.3-2.4 5.3-5.3-2.3-5.3-5.3-5.3zm0 9.1c-2.1 0-3.9-1.7-3.9-3.9 0-2.1 1.7-3.9 3.9-3.9 2.1 0 3.9 1.7 3.9 3.9s-1.7 3.9-3.9 3.9zM102.2 133.2c-2.9 0-5.3 2.4-5.3 5.3s2.4 5.3 5.3 5.3 5.3-2.4 5.3-5.3-2.4-5.3-5.3-5.3zm0 9.2c-2.1 0-3.9-1.7-3.9-3.9 0-2.1 1.7-3.9 3.9-3.9s3.9 1.7 3.9 3.9c0 2.1-1.8 3.9-3.9 3.9zM95.2 115.6c-.3 0-.6 0-.9.1-.6-1.4-2-2.3-3.6-2.3-2.1 0-3.9 1.7-3.9 3.9 0 2.1 1.7 3.9 3.9 3.9.2 0 .5 0 .7-.1.2.5.5.9.8 1.2-.5.1-1 .2-1.5.2-2.9 0-5.3-2.4-5.3-5.3s2.4-5.3 5.3-5.3c2.4 0 4.4 1.5 5 3.7h-.5z"/><path class="bcls-white" d="M95.2 117c.3 0 .6.1.8.1v.2c0 1.9-1 3.5-2.4 4.5-.4-.3-.7-.7-.9-1.1 1.1-.7 1.9-1.9 1.9-3.3v-.2c.2-.2.4-.2.6-.2z"/><g><path class="bcls-white" d="M67.2 110.1c-2.9 0-5.3 2.4-5.3 5.3s2.4 5.3 5.3 5.3 5.3-2.4 5.3-5.3-2.4-5.3-5.3-5.3zM78.3 131.3c-2.9 0-5.3 2.4-5.3 5.3s2.4 5.3 5.3 5.3 5.3-2.4 5.3-5.3-2.4-5.3-5.3-5.3zM116.3 110.1c-2.9 0-5.3 2.4-5.3 5.3s2.4 5.3 5.3 5.3 5.3-2.4 5.3-5.3-2.4-5.3-5.3-5.3zM78.3 88.9c-2.9 0-5.3 2.4-5.3 5.3s2.4 5.3 5.3 5.3 5.3-2.4 5.3-5.3-2.4-5.3-5.3-5.3zM105.2 88.9c-2.9 0-5.3 2.4-5.3 5.3s2.4 5.3 5.3 5.3 5.3-2.4 5.3-5.3-2.4-5.3-5.3-5.3zM104.4 131.3c-2.9 0-5.3 2.4-5.3 5.3s2.4 5.3 5.3 5.3 5.3-2.4 5.3-5.3-2.4-5.3-5.3-5.3zM97.4 113.8c-.3 0-.6 0-.9.1-.6-1.4-2-2.3-3.6-2.3-2.1 0-3.9 1.7-3.9 3.9 0 2.1 1.7 3.9 3.9 3.9.2 0 .5 0 .7-.1.2.5.5.9.8 1.2-.5.1-1 .2-1.5.2-2.9 0-5.3-2.4-5.3-5.3s2.4-5.3 5.3-5.3c2.4 0 4.4 1.5 5 3.7h-.5z"/><path class="bcls-white" d="M97.4 115.1c.3 0 .6.1.8.1v.2c0 1.9-1 3.5-2.4 4.5-.4-.3-.7-.7-.9-1.1 1.1-.7 1.9-1.9 1.9-3.3v-.2c.2-.1.4-.2.6-.2z"/></g><g><path class="bcls-white" d="M188.9 68.1c-2.9 0-5.3 2.4-5.3 5.3s2.4 5.3 5.3 5.3 5.3-2.4 5.3-5.3-2.4-5.3-5.3-5.3zm0 9.2c-2.1 0-3.9-1.7-3.9-3.9 0-2.1 1.7-3.9 3.9-3.9 2.1 0 3.9 1.7 3.9 3.9-.1 2.1-1.8 3.9-3.9 3.9zM200 89.3c-2.9 0-5.3 2.4-5.3 5.3s2.4 5.3 5.3 5.3 5.3-2.4 5.3-5.3-2.4-5.3-5.3-5.3zm0 9.2c-2.1 0-3.9-1.7-3.9-3.9 0-2.1 1.7-3.9 3.9-3.9s3.9 1.7 3.9 3.9c0 2.1-1.8 3.9-3.9 3.9zM238 68.1c-2.9 0-5.3 2.4-5.3 5.3s2.4 5.3 5.3 5.3 5.3-2.4 5.3-5.3-2.4-5.3-5.3-5.3zm0 9.2c-2.1 0-3.9-1.7-3.9-3.9 0-2.1 1.7-3.9 3.9-3.9 2.1 0 3.9 1.7 3.9 3.9 0 2.1-1.7 3.9-3.9 3.9zM200 46.9c-2.9 0-5.3 2.4-5.3 5.3s2.4 5.3 5.3 5.3 5.3-2.4 5.3-5.3-2.4-5.3-5.3-5.3zm0 9.2c-2.1 0-3.9-1.7-3.9-3.9 0-2.1 1.7-3.9 3.9-3.9s3.9 1.7 3.9 3.9c0 2.1-1.8 3.9-3.9 3.9zM226.9 46.9c-2.9 0-5.3 2.4-5.3 5.3s2.4 5.3 5.3 5.3 5.3-2.4 5.3-5.3-2.4-5.3-5.3-5.3zm0 9.2c-2.1 0-3.9-1.7-3.9-3.9 0-2.1 1.7-3.9 3.9-3.9s3.9 1.7 3.9 3.9c0 2.1-1.7 3.9-3.9 3.9zM226.1 89.3c-2.9 0-5.3 2.4-5.3 5.3s2.4 5.3 5.3 5.3 5.3-2.4 5.3-5.3-2.4-5.3-5.3-5.3zm0 9.2c-2.1 0-3.9-1.7-3.9-3.9 0-2.1 1.7-3.9 3.9-3.9s3.9 1.7 3.9 3.9c0 2.1-1.8 3.9-3.9 3.9zM219.1 71.7c-.3 0-.6 0-.9.1-.6-1.4-2-2.3-3.6-2.3-2.1 0-3.9 1.7-3.9 3.9 0 2.1 1.7 3.9 3.9 3.9.2 0 .5 0 .7-.1.2.5.5.9.8 1.2-.5.1-1 .2-1.5.2-2.9 0-5.3-2.4-5.3-5.3s2.4-5.3 5.3-5.3c2.4 0 4.4 1.5 5 3.7h-.5z"/><path class="bcls-white" d="M219.1 73.1c.3 0 .6.1.8.1v.2c0 1.9-1 3.5-2.4 4.5-.4-.3-.7-.7-.9-1.1 1.1-.7 1.9-1.9 1.9-3.3v-.2c.2-.2.4-.2.6-.2z"/><g><path class="bcls-white" d="M191 66.3c-2.9 0-5.3 2.4-5.3 5.3s2.4 5.3 5.3 5.3 5.3-2.4 5.3-5.3-2.4-5.3-5.3-5.3zM202.1 87.5c-2.9 0-5.3 2.4-5.3 5.3s2.4 5.3 5.3 5.3 5.3-2.4 5.3-5.3-2.3-5.3-5.3-5.3zM240.2 66.3c-2.9 0-5.3 2.4-5.3 5.3s2.4 5.3 5.3 5.3 5.3-2.4 5.3-5.3-2.4-5.3-5.3-5.3zM202.1 45.1c-2.9 0-5.3 2.4-5.3 5.3s2.4 5.3 5.3 5.3 5.3-2.4 5.3-5.3-2.3-5.3-5.3-5.3zM229.1 45.1c-2.9 0-5.3 2.4-5.3 5.3s2.4 5.3 5.3 5.3 5.3-2.4 5.3-5.3-2.4-5.3-5.3-5.3zM228.2 87.5c-2.9 0-5.3 2.4-5.3 5.3s2.4 5.3 5.3 5.3 5.3-2.4 5.3-5.3-2.3-5.3-5.3-5.3zM221.3 69.9c-.3 0-.6 0-.9.1-.6-1.4-2-2.3-3.6-2.3-2.1 0-3.9 1.7-3.9 3.9 0 2.1 1.7 3.9 3.9 3.9.2 0 .5 0 .7-.1.2.5.5.9.8 1.2-.5.1-1 .2-1.5.2-2.9 0-5.3-2.4-5.3-5.3s2.4-5.3 5.3-5.3c2.4 0 4.4 1.5 5 3.7h-.5z"/><path class="bcls-white" d="M221.3 71.3c.3 0 .6.1.8.1v.2c0 1.9-1 3.5-2.4 4.5-.4-.3-.7-.7-.9-1.1 1.1-.7 1.9-1.9 1.9-3.3v-.2c.2-.2.4-.2.6-.2z"/></g></g><g><path class="bcls-white" d="M126.9 88.4c-2.9 0-5.3 2.4-5.3 5.3s2.4 5.3 5.3 5.3 5.3-2.4 5.3-5.3-2.4-5.3-5.3-5.3zm0 9.2c-2.1 0-3.9-1.7-3.9-3.9 0-2.1 1.7-3.9 3.9-3.9 2.1 0 3.9 1.7 3.9 3.9 0 2.1-1.7 3.9-3.9 3.9zM138 109.6c-2.9 0-5.3 2.4-5.3 5.3s2.4 5.3 5.3 5.3 5.3-2.4 5.3-5.3-2.4-5.3-5.3-5.3zm0 9.2c-2.1 0-3.9-1.7-3.9-3.9 0-2.1 1.7-3.9 3.9-3.9s3.9 1.7 3.9 3.9c0 2.1-1.7 3.9-3.9 3.9zM176.1 88.4c-2.9 0-5.3 2.4-5.3 5.3s2.4 5.3 5.3 5.3 5.3-2.4 5.3-5.3-2.4-5.3-5.3-5.3zm0 9.2c-2.1 0-3.9-1.7-3.9-3.9 0-2.1 1.7-3.9 3.9-3.9 2.1 0 3.9 1.7 3.9 3.9 0 2.1-1.8 3.9-3.9 3.9zM138 67.2c-2.9 0-5.3 2.4-5.3 5.3s2.4 5.3 5.3 5.3 5.3-2.4 5.3-5.3-2.4-5.3-5.3-5.3zm0 9.2c-2.1 0-3.9-1.7-3.9-3.9 0-2.1 1.7-3.9 3.9-3.9s3.9 1.7 3.9 3.9c0 2.1-1.7 3.9-3.9 3.9zM165 67.2c-2.9 0-5.3 2.4-5.3 5.3s2.4 5.3 5.3 5.3 5.3-2.4 5.3-5.3-2.4-5.3-5.3-5.3zm0 9.2c-2.1 0-3.9-1.7-3.9-3.9 0-2.1 1.7-3.9 3.9-3.9s3.9 1.7 3.9 3.9c0 2.1-1.8 3.9-3.9 3.9zM164.1 109.6c-2.9 0-5.3 2.4-5.3 5.3s2.4 5.3 5.3 5.3 5.3-2.4 5.3-5.3-2.4-5.3-5.3-5.3zm0 9.2c-2.1 0-3.9-1.7-3.9-3.9 0-2.1 1.7-3.9 3.9-3.9s3.9 1.7 3.9 3.9c0 2.1-1.7 3.9-3.9 3.9zM157.1 92c-.3 0-.6 0-.9.1-.6-1.4-2-2.3-3.6-2.3-2.1 0-3.9 1.7-3.9 3.9 0 2.1 1.7 3.9 3.9 3.9.2 0 .5 0 .7-.1.2.5.5.9.8 1.2-.5.1-1 .2-1.5.2-2.9 0-5.3-2.4-5.3-5.3s2.4-5.3 5.3-5.3c2.4 0 4.4 1.5 5 3.7h-.5z"/><path class="bcls-white" d="M157.1 93.4c.3 0 .6.1.8.1v.2c0 1.9-1 3.5-2.4 4.5-.4-.3-.7-.7-.9-1.1 1.1-.7 1.9-1.9 1.9-3.3v-.2c.2-.2.4-.2.6-.2z"/><g><path class="bcls-white" d="M129.1 86.6c-2.9 0-5.3 2.4-5.3 5.3s2.4 5.3 5.3 5.3 5.3-2.4 5.3-5.3-2.4-5.3-5.3-5.3zM140.2 107.8c-2.9 0-5.3 2.4-5.3 5.3s2.4 5.3 5.3 5.3 5.3-2.4 5.3-5.3-2.4-5.3-5.3-5.3zM178.3 86.6c-2.9 0-5.3 2.4-5.3 5.3s2.4 5.3 5.3 5.3 5.3-2.4 5.3-5.3-2.4-5.3-5.3-5.3zM140.2 65.4c-2.9 0-5.3 2.4-5.3 5.3s2.4 5.3 5.3 5.3 5.3-2.4 5.3-5.3-2.4-5.3-5.3-5.3zM167.2 65.4c-2.9 0-5.3 2.4-5.3 5.3s2.4 5.3 5.3 5.3 5.3-2.4 5.3-5.3-2.4-5.3-5.3-5.3zM166.3 107.8c-2.9 0-5.3 2.4-5.3 5.3s2.4 5.3 5.3 5.3 5.3-2.4 5.3-5.3-2.4-5.3-5.3-5.3zM159.3 90.2c-.3 0-.6 0-.9.1-.6-1.4-2-2.3-3.6-2.3-2.1 0-3.9 1.7-3.9 3.9 0 2.1 1.7 3.9 3.9 3.9.2 0 .5 0 .7-.1.2.5.5.9.8 1.2-.5.1-1 .2-1.5.2-2.9 0-5.3-2.4-5.3-5.3s2.4-5.3 5.3-5.3c2.4 0 4.4 1.5 5 3.7h-.5z"/><path class="bcls-white" d="M159.3 91.6c.3 0 .6.1.8.1v.2c0 1.9-1 3.5-2.4 4.5-.4-.3-.7-.7-.9-1.1 1.1-.7 1.9-1.9 1.9-3.3v-.2c.2-.2.4-.2.6-.2z"/></g></g><g><path class="bcls-white" d="M126.9 25.3c-2.9 0-5.3 2.4-5.3 5.3s2.4 5.3 5.3 5.3 5.3-2.4 5.3-5.3-2.4-5.3-5.3-5.3zm0 9.2c-2.1 0-3.9-1.7-3.9-3.9 0-2.1 1.7-3.9 3.9-3.9 2.1 0 3.9 1.7 3.9 3.9 0 2.1-1.7 3.9-3.9 3.9zM138 46.5c-2.9 0-5.3 2.4-5.3 5.3s2.4 5.3 5.3 5.3 5.3-2.4 5.3-5.3-2.4-5.3-5.3-5.3zm0 9.2c-2.1 0-3.9-1.7-3.9-3.9 0-2.1 1.7-3.9 3.9-3.9s3.9 1.7 3.9 3.9c0 2.1-1.7 3.9-3.9 3.9zM176.1 25.3c-2.9 0-5.3 2.4-5.3 5.3s2.4 5.3 5.3 5.3 5.3-2.4 5.3-5.3-2.4-5.3-5.3-5.3zm0 9.2c-2.1 0-3.9-1.7-3.9-3.9 0-2.1 1.7-3.9 3.9-3.9 2.1 0 3.9 1.7 3.9 3.9 0 2.1-1.8 3.9-3.9 3.9zM138 4.1c-2.9 0-5.3 2.4-5.3 5.3s2.4 5.3 5.3 5.3 5.3-2.4 5.3-5.3-2.4-5.3-5.3-5.3zm0 9.2c-2.1 0-3.9-1.7-3.9-3.9 0-2.1 1.7-3.9 3.9-3.9s3.9 1.7 3.9 3.9c0 2.1-1.7 3.9-3.9 3.9zM165 4.1c-2.9 0-5.3 2.4-5.3 5.3s2.4 5.3 5.3 5.3 5.3-2.4 5.3-5.3-2.4-5.3-5.3-5.3zm0 9.2c-2.1 0-3.9-1.7-3.9-3.9 0-2.1 1.7-3.9 3.9-3.9s3.9 1.7 3.9 3.9c0 2.1-1.8 3.9-3.9 3.9zM164.1 46.5c-2.9 0-5.3 2.4-5.3 5.3s2.4 5.3 5.3 5.3 5.3-2.4 5.3-5.3-2.4-5.3-5.3-5.3zm0 9.2c-2.1 0-3.9-1.7-3.9-3.9 0-2.1 1.7-3.9 3.9-3.9s3.9 1.7 3.9 3.9c0 2.1-1.7 3.9-3.9 3.9zM157.1 28.9c-.3 0-.6 0-.9.1-.6-1.4-2-2.3-3.6-2.3-2.1 0-3.9 1.7-3.9 3.9 0 2.1 1.7 3.9 3.9 3.9.2 0 .5 0 .7-.1.2.5.5.9.8 1.2-.5.1-1 .2-1.5.2-2.9 0-5.3-2.4-5.3-5.3s2.4-5.3 5.3-5.3c2.4 0 4.4 1.5 5 3.7-.1.1-.3 0-.5 0z"/><path class="bcls-white" d="M157.1 30.3c.3 0 .6.1.8.1v.2c0 1.9-1 3.5-2.4 4.5-.4-.3-.7-.7-.9-1.1 1.1-.7 1.9-1.9 1.9-3.3v-.2c.2-.2.4-.2.6-.2z"/><g><path class="bcls-white" d="M129.1 23.5c-2.9 0-5.3 2.4-5.3 5.3s2.4 5.3 5.3 5.3 5.3-2.4 5.3-5.3-2.4-5.3-5.3-5.3zM140.2 44.7c-2.9 0-5.3 2.4-5.3 5.3s2.4 5.3 5.3 5.3 5.3-2.4 5.3-5.3-2.4-5.3-5.3-5.3zM178.3 23.5c-2.9 0-5.3 2.4-5.3 5.3s2.4 5.3 5.3 5.3 5.3-2.4 5.3-5.3-2.4-5.3-5.3-5.3zM140.2 2.3c-2.9 0-5.3 2.4-5.3 5.3s2.4 5.3 5.3 5.3 5.3-2.4 5.3-5.3-2.4-5.3-5.3-5.3zM167.2 2.3c-2.9 0-5.3 2.4-5.3 5.3s2.4 5.3 5.3 5.3 5.3-2.4 5.3-5.3-2.4-5.3-5.3-5.3zM166.3 44.7c-2.9 0-5.3 2.4-5.3 5.3s2.4 5.3 5.3 5.3 5.3-2.4 5.3-5.3-2.4-5.3-5.3-5.3zM159.3 27.1c-.3 0-.6 0-.9.1-.6-1.4-2-2.3-3.6-2.3-2.1 0-3.9 1.7-3.9 3.9 0 2.1 1.7 3.9 3.9 3.9.2 0 .5 0 .7-.1.2.5.5.9.8 1.2-.5.1-1 .2-1.5.2-2.9 0-5.3-2.4-5.3-5.3s2.4-5.3 5.3-5.3c2.4 0 4.4 1.5 5 3.7h-.5z"/><path class="bcls-white" d="M159.3 28.5c.3 0 .6.1.8.1v.2c0 1.9-1 3.5-2.4 4.5-.4-.3-.7-.7-.9-1.1 1.1-.7 1.9-1.9 1.9-3.3v-.2c.2-.2.4-.2.6-.2z"/></g></g></g><g><path class="bcls-white" d="M121.2 527.9c2.9 0 5.3-2.4 5.3-5.3s-2.4-5.3-5.3-5.3-5.3 2.4-5.3 5.3 2.4 5.3 5.3 5.3zm0-9.2c2.2 0 3.9 1.7 3.9 3.9s-1.7 3.9-3.9 3.9c-2.1 0-3.9-1.7-3.9-3.9 0-2.1 1.8-3.9 3.9-3.9zM110.1 506.7c2.9 0 5.3-2.4 5.3-5.3s-2.4-5.3-5.3-5.3-5.3 2.4-5.3 5.3 2.4 5.3 5.3 5.3zm0-9.2c2.2 0 3.9 1.7 3.9 3.9s-1.7 3.9-3.9 3.9-3.9-1.7-3.9-3.9c0-2.1 1.7-3.9 3.9-3.9zM72 527.9c2.9 0 5.3-2.4 5.3-5.3s-2.4-5.3-5.3-5.3-5.3 2.4-5.3 5.3 2.4 5.3 5.3 5.3zm0-9.2c2.1 0 3.9 1.7 3.9 3.9s-1.7 3.9-3.9 3.9-3.9-1.7-3.9-3.9c0-2.1 1.7-3.9 3.9-3.9zM110.1 549.2c2.9 0 5.3-2.4 5.3-5.3s-2.4-5.3-5.3-5.3-5.3 2.4-5.3 5.3 2.4 5.3 5.3 5.3zm0-9.2c2.2 0 3.9 1.7 3.9 3.9s-1.7 3.9-3.9 3.9-3.9-1.7-3.9-3.9 1.7-3.9 3.9-3.9zM83.1 549.2c2.9 0 5.3-2.4 5.3-5.3s-2.4-5.3-5.3-5.3-5.3 2.4-5.3 5.3 2.4 5.3 5.3 5.3zm0-9.2c2.2 0 3.9 1.7 3.9 3.9s-1.7 3.9-3.9 3.9-3.9-1.7-3.9-3.9 1.8-3.9 3.9-3.9zM84 506.7c2.9 0 5.3-2.4 5.3-5.3s-2.4-5.3-5.3-5.3-5.3 2.4-5.3 5.3 2.3 5.3 5.3 5.3zm0-9.2c2.2 0 3.9 1.7 3.9 3.9s-1.7 3.9-3.9 3.9-3.9-1.7-3.9-3.9c0-2.1 1.7-3.9 3.9-3.9zM90.9 524.3c.3 0 .6 0 .9-.1.6 1.4 2 2.3 3.6 2.3 2.2 0 3.9-1.7 3.9-3.9s-1.7-3.9-3.9-3.9c-.2 0-.5 0-.7.1-.2-.5-.5-.9-.8-1.2.5-.1 1-.2 1.5-.2 2.9 0 5.3 2.4 5.3 5.3s-2.4 5.3-5.3 5.3c-2.4 0-4.4-1.6-5-3.7h.5z"/><path class="bcls-white" d="M90.9 522.9c-.3 0-.6-.1-.8-.1v-.2c0-1.9 1-3.5 2.5-4.5.4.3.7.7.9 1.1-1.1.7-1.9 1.9-1.9 3.3v.2c-.3.2-.5.2-.7.2z"/><g><path class="bcls-white" d="M119 529.7c2.9 0 5.3-2.4 5.3-5.3s-2.4-5.3-5.3-5.3-5.3 2.4-5.3 5.3 2.4 5.3 5.3 5.3zM107.9 508.5c2.9 0 5.3-2.4 5.3-5.3s-2.4-5.3-5.3-5.3-5.3 2.4-5.3 5.3 2.4 5.3 5.3 5.3zM69.8 529.7c2.9 0 5.3-2.4 5.3-5.3s-2.4-5.3-5.3-5.3-5.3 2.4-5.3 5.3 2.4 5.3 5.3 5.3zM107.9 551c2.9 0 5.3-2.4 5.3-5.3s-2.4-5.3-5.3-5.3-5.3 2.4-5.3 5.3 2.4 5.3 5.3 5.3zM80.9 551c2.9 0 5.3-2.4 5.3-5.3s-2.4-5.3-5.3-5.3-5.3 2.4-5.3 5.3 2.4 5.3 5.3 5.3zM81.8 508.5c2.9 0 5.3-2.4 5.3-5.3s-2.4-5.3-5.3-5.3-5.3 2.4-5.3 5.3 2.4 5.3 5.3 5.3zM88.8 526.1c.3 0 .6 0 .9-.1.6 1.4 2 2.3 3.6 2.3 2.2 0 3.9-1.7 3.9-3.9s-1.7-3.9-3.9-3.9c-.2 0-.5 0-.7.1-.2-.5-.5-.9-.8-1.2.5-.1 1-.2 1.5-.2 2.9 0 5.3 2.4 5.3 5.3s-2.4 5.3-5.3 5.3c-2.4 0-4.4-1.6-5-3.7h.5z"/><path class="bcls-white" d="M88.8 524.7c-.3 0-.6-.1-.8-.1v-.2c0-1.9 1-3.5 2.5-4.5.4.3.7.7.9 1.1-1.1.7-1.9 1.9-1.9 3.3v.2c-.3.2-.5.2-.7.2z"/></g></g><g><path class="bcls-white" d="M59.2 488.8c2.9 0 5.3-2.4 5.3-5.3s-2.4-5.3-5.3-5.3-5.3 2.4-5.3 5.3 2.4 5.3 5.3 5.3zm0-9.2c2.2 0 3.9 1.7 3.9 3.9s-1.7 3.9-3.9 3.9c-2.1 0-3.9-1.7-3.9-3.9 0-2.1 1.8-3.9 3.9-3.9zM48.1 467.6c2.9 0 5.3-2.4 5.3-5.3S51 457 48.1 457s-5.3 2.4-5.3 5.3 2.4 5.3 5.3 5.3zm0-9.2c2.2 0 3.9 1.7 3.9 3.9s-1.7 3.9-3.9 3.9-3.9-1.7-3.9-3.9c0-2.1 1.7-3.9 3.9-3.9zM10 488.8c2.9 0 5.3-2.4 5.3-5.3s-2.4-5.3-5.3-5.3-5.3 2.4-5.3 5.3 2.4 5.3 5.3 5.3zm0-9.2c2.1 0 3.9 1.7 3.9 3.9s-1.7 3.9-3.9 3.9-3.9-1.7-3.9-3.9c0-2.1 1.7-3.9 3.9-3.9zM48.1 510.1c2.9 0 5.3-2.4 5.3-5.3s-2.4-5.3-5.3-5.3-5.3 2.4-5.3 5.3 2.4 5.3 5.3 5.3zm0-9.2c2.2 0 3.9 1.7 3.9 3.9s-1.7 3.9-3.9 3.9-3.9-1.7-3.9-3.9 1.7-3.9 3.9-3.9zM21.1 510.1c2.9 0 5.3-2.4 5.3-5.3s-2.4-5.3-5.3-5.3-5.3 2.4-5.3 5.3 2.4 5.3 5.3 5.3zm0-9.2c2.2 0 3.9 1.7 3.9 3.9s-1.7 3.9-3.9 3.9-3.9-1.7-3.9-3.9 1.8-3.9 3.9-3.9zM22 467.6c2.9 0 5.3-2.4 5.3-5.3S24.9 457 22 457s-5.3 2.4-5.3 5.3 2.3 5.3 5.3 5.3zm0-9.2c2.2 0 3.9 1.7 3.9 3.9s-1.7 3.9-3.9 3.9-3.9-1.7-3.9-3.9c0-2.1 1.7-3.9 3.9-3.9zM28.9 485.2c.3 0 .6 0 .9-.1.6 1.4 2 2.3 3.6 2.3 2.2 0 3.9-1.7 3.9-3.9s-1.7-3.9-3.9-3.9c-.2 0-.5 0-.7.1-.2-.5-.5-.9-.8-1.2.5-.1 1-.2 1.5-.2 2.9 0 5.3 2.4 5.3 5.3s-2.4 5.3-5.3 5.3c-2.4 0-4.4-1.6-5-3.7h.5z"/><path class="bcls-white" d="M28.9 483.8c-.3 0-.6-.1-.8-.1v-.2c0-1.9 1-3.5 2.5-4.5.4.3.7.7.9 1.1-1.1.7-1.9 1.9-1.9 3.3v.2c-.3.2-.5.2-.7.2z"/><g><path class="bcls-white" d="M57 490.7c2.9 0 5.3-2.4 5.3-5.3s-2.4-5.3-5.3-5.3-5.3 2.4-5.3 5.3 2.4 5.3 5.3 5.3zM45.9 469.4c2.9 0 5.3-2.4 5.3-5.3s-2.4-5.3-5.3-5.3-5.3 2.4-5.3 5.3 2.4 5.3 5.3 5.3zM7.8 490.7c2.9 0 5.3-2.4 5.3-5.3s-2.4-5.3-5.3-5.3-5.3 2.4-5.3 5.3 2.4 5.3 5.3 5.3zM45.9 511.9c2.9 0 5.3-2.4 5.3-5.3s-2.4-5.3-5.3-5.3-5.3 2.4-5.3 5.3 2.4 5.3 5.3 5.3zM18.9 511.9c2.9 0 5.3-2.4 5.3-5.3s-2.4-5.3-5.3-5.3-5.3 2.4-5.3 5.3 2.4 5.3 5.3 5.3zM19.8 469.4c2.9 0 5.3-2.4 5.3-5.3s-2.4-5.3-5.3-5.3-5.3 2.4-5.3 5.3 2.4 5.3 5.3 5.3zM26.8 487c.3 0 .6 0 .9-.1.6 1.4 2 2.3 3.6 2.3 2.2 0 3.9-1.7 3.9-3.9s-1.7-3.9-3.9-3.9c-.2 0-.5 0-.7.1-.2-.5-.5-.9-.8-1.2.5-.1 1-.2 1.5-.2 2.9 0 5.3 2.4 5.3 5.3s-2.4 5.3-5.3 5.3c-2.4 0-4.4-1.6-5-3.7h.5z"/><path class="bcls-white" d="M26.8 485.7c-.3 0-.6-.1-.8-.1v-.2c0-1.9 1-3.5 2.5-4.5.4.3.7.7.9 1.1-1.1.7-1.9 1.9-1.9 3.3v.2c-.3.1-.5.2-.7.2z"/></g></g><g id="bСлой_x0020_1_1_"><path class="bcls-white" d="M283.2 585.1l-.5-.4L9 310.9l.9-1 .5.5 273.8 273.8zM209.2 535.2L49.7 375.7l.9-.9.5.4 159 159.1zM222.8 349.4l-.5-.4L43.6 170.2l.9-.9.5.4 178.7 178.8zM327.9 103.1V268c0 29.5 15.4 46.4 42.3 46.4 13.7 0 23.9-2.5 31-7.5l1-.7v-19l-3.7 2.1c-7.9 4.5-15.9 6.7-24.8 6.7-19 0-26.4-8.9-26.4-31.9v-58.6h21.6c10 0 18.1-8.1 18.1-18.1h-39.7v-64.9c0-10.7-8.7-19.4-19.4-19.4zM264.8 193.4c-2.7-9-7.9-16.7-14.5-23.2-6.7.1-12.4 4.4-14.7 10.4 5.9 5.4 9.8 12.5 11.2 21.1 1.2.3 2.5.5 3.7.5 6.3 0 11.7-3.6 14.3-8.8zM181.3 295.6l17.9 17.9c19.9-2.6 36.7-11.1 50.2-25.2 2.2 10.5 8.4 18.2 17.2 21.5v-87.9c0-.4.1-.7.1-1.1V215c-4.8 2.7-10.3 4.4-16.2 4.4-1.1 0-2.1-.2-3.2-.3v48c-10.8 14.1-31.5 28.9-57.9 28.9-2.6 0-5.4-.2-8.1-.4zM130.5 244.8c0-.5-.1-.8-.1-.9-5.6-58.5 32.1-70.5 41.8-73.6 7.6-2.1 15.3-3.2 23.1-3.2 9.1 0 17.9 1.5 25.5 4.5 2.8-5.6 7.1-10.4 12.4-13.7-11.4-6-24.1-9.2-35.3-9.2-9.3 0-18.2 1.1-26.2 3.2-.2 0-4 .7-9.5 3l-.6.2-.1.1c-13.6 5.8-44.8 18.8-48.1 72.4l17.1 17.2zM136.4 423.8c2.9-9.4 8-17.8 15.1-25.1 12.5-12.5 27.4-18.5 45.7-18.5 18.1 0 33.4 6.2 45.4 18.5 12.3 12.3 18.5 27.8 18.5 46.1s-6.2 33.8-18.5 46.1c-7 7-15.2 12-24.3 15l14.7 14.7c9.1-4 17.2-9.7 24.4-17.2 15.6-16.2 23.5-35.9 23.5-58.5s-7.9-42.3-23.5-58.5c-15.6-16.3-35.8-24.5-60.2-24.5-24.6 0-44.9 8.2-60.5 24.5-6.6 6.8-11.7 14.3-15.5 22.5l15.2 14.9zM496.8 364.8c-15.6 4.5-29.2 13.8-38.6 26.7-8.2-19.8-25.1-29.8-50.4-29.8-21.8 0-42.5 9.2-55.6 24.4v-1.2c0-10.7-8.7-19.4-19.4-19.4v138.6c0 10.7 8.7 19.4 19.4 19.4V412.9c5.1-9.1 12.3-16.7 22-23.3 9.7-6.3 19.8-9.5 30.1-9.5 27.3 0 40.5 15.7 40.5 47.9v76.1c0 10.7 8.7 19.4 19.4 19.4v-93.6c0-1.9-.1-4.9-.3-9l-.3-6.5c4.6-9.2 11.8-17.4 21.4-24.1 8.9-6.1 17.8-9.4 27.3-10l-15.5-15.5zM556.4 424.4c0 1.3.1 2.6.1 4v75.8c0 10.7 8.7 19.4 19.4 19.4v-79.7l-19.5-19.5zM133.6 285.1l-.4-.4L8.3 159.8v-1.9l1.1 1.1 125.2 125.2zM591 421.9l-116-116 1-.9.4.5L591 420.1zM591 445.9L436.6 291.5l.9-1 .5.5 153 153.1zM274.2 329.6h1.3l2.8 8 2.8-8h1.8l-3.8 10.3h-1.5l-2.8-7.8-2.7 7.8h-1.5l-3.8-10.3h1.7l2.9 8zM299 331.7c-.7-.6-1.5-.9-2.5-.9s-1.8.3-2.5 1c-.7.6-1.1 1.4-1.3 2.3h7.5c-.1-1-.5-1.8-1.2-2.4zm2.7 3.6h-8.9c.1.9.5 1.7 1.2 2.4.8.7 1.6 1 2.7 1 .7 0 1.3-.1 1.9-.4.6-.3 1-.6 1.3-.9l.4-.4 1 1-.2.2c-.1.1-.3.3-.6.5s-.6.5-.9.6c-.3.2-.8.4-1.3.5-.5.2-1.1.2-1.6.2-1.5 0-2.8-.5-3.9-1.6-1.1-1-1.6-2.3-1.6-3.8s.5-2.8 1.6-3.8c1.1-1.1 2.3-1.6 3.8-1.6s2.8.5 3.8 1.5 1.5 2.2 1.5 3.7l-.2.9zM314.4 332c-.8.8-1.2 1.7-1.2 2.8 0 1.1.4 2 1.2 2.8.8.8 1.7 1.2 2.7 1.2.9 0 1.8-.4 2.5-1.2.7-.8 1.1-1.7 1.1-2.8 0-1.1-.4-2-1.1-2.8-.8-.8-1.6-1.2-2.5-1.2-1 0-1.9.4-2.7 1.2zm-1.2-7.2v6.4l.2-.2.5-.5c.2-.2.5-.4.8-.6.3-.2.6-.3 1.1-.4.4-.1.9-.2 1.4-.2 1.4 0 2.6.5 3.7 1.6s1.6 2.3 1.6 3.8-.5 2.7-1.6 3.8c-1.1 1.1-2.3 1.6-3.7 1.6-.5 0-.9-.1-1.4-.2-.4-.1-.8-.3-1.1-.5-.3-.2-.6-.4-.8-.5s-.4-.3-.5-.5l-.2-.2v1.6h-1.6v-15.1h1.6v.1zM350 330.8l-1.2 1.1-.3-.3c-.1-.1-.4-.3-.8-.5s-.9-.3-1.3-.3c-.6 0-1.1.2-1.5.5-.4.3-.6.6-.6 1s.2.7.6 1c.4.3.9.5 1.5.6.6.2 1.2.3 1.7.5.6.2 1.1.5 1.5.9.4.4.6 1 .6 1.7 0 .9-.4 1.6-1.1 2.2-.7.6-1.7.9-2.9.9-.5 0-1-.1-1.5-.2s-.8-.3-1.1-.5c-.3-.2-.6-.4-.8-.5s-.4-.3-.5-.5l-.1-.2 1.2-1.1.1.2.4.4c.2.2.4.3.6.5.2.1.5.3.8.4.3.1.7.2 1 .2.8 0 1.4-.2 1.8-.5.4-.3.6-.7.6-1.2 0-.4-.2-.8-.6-1-.4-.3-.9-.5-1.5-.6-.6-.2-1.2-.3-1.7-.5-.6-.2-1.1-.5-1.5-.9-.4-.4-.6-1-.6-1.6 0-.8.3-1.5 1-2 .7-.6 1.6-.9 2.6-.9.4 0 .8 0 1.2.1.4.1.7.2 1 .3.3.1.5.3.7.4.2.1.4.3.4.3l.3.1zM361.1 328.5v-2.4h1.5v3.4h2.4v1.4h-2.4v6.1c0 1.1.5 1.6 1.5 1.6.2 0 .5 0 .7-.1.2-.1.4-.1.6-.1l.2-.1v1.4c-.5.2-1 .3-1.6.3-.9 0-1.7-.3-2.2-.8-.5-.5-.8-1.3-.8-2.2v-6h-2.1v-1.4h1.3c.6 0 .9-.4.9-1.1zM383.2 339.9v-1.4l-.1.2-.4.4c-.2.2-.5.3-.7.5-.3.1-.6.3-1 .4-.4.1-.8.2-1.3.2-1.3 0-2.3-.4-3.2-1.3-.8-.8-1.3-1.9-1.3-3.3v-6h1.6v6c0 .9.3 1.6.9 2.2.6.6 1.3.9 2.2.9.9 0 1.7-.3 2.4-1 .6-.6 1-1.5 1-2.5v-5.7h1.6v10.3l-1.7.1zM402.7 337.5c.8-.8 1.2-1.7 1.2-2.8 0-1.1-.4-2-1.2-2.8-.8-.8-1.7-1.2-2.7-1.2-.9 0-1.8.4-2.5 1.2-.7.8-1.1 1.7-1.1 2.8 0 1.1.4 2 1.1 2.8.7.8 1.6 1.2 2.5 1.2 1 0 1.9-.4 2.7-1.2zm1.2-6.3v-6.4h1.6v15.1h-1.6v-1.6l-.2.2c-.1.1-.2.2-.5.4-.2.2-.5.4-.8.6-.3.2-.6.3-1.1.4-.4.1-.9.2-1.4.2-1.4 0-2.6-.5-3.7-1.6s-1.6-2.3-1.6-3.8.5-2.7 1.6-3.8c1.1-1.1 2.3-1.6 3.7-1.6.5 0 .9.1 1.4.2.4.1.8.3 1.1.5.3.2.6.3.8.5.2.2.4.3.5.5l.2.2zM416.1 339.9v-10.3h1.6v10.3h-1.6zm.1-13.1c-.2-.2-.3-.4-.3-.7 0-.3.1-.5.3-.7.2-.2.4-.3.7-.3.3 0 .5.1.7.3.2.2.3.4.3.7 0 .3-.1.5-.3.7-.2.2-.4.3-.7.3-.3 0-.5-.1-.7-.3zM435.9 337.6c.8-.8 1.2-1.7 1.2-2.8 0-1.1-.4-2.1-1.2-2.8-.8-.8-1.7-1.1-2.8-1.1-1.1 0-2 .4-2.8 1.1-.8.8-1.2 1.7-1.2 2.8 0 1.1.4 2 1.2 2.8.8.8 1.7 1.2 2.8 1.2 1.1-.1 2-.5 2.8-1.2zm-6.8 1c-1.1-1-1.6-2.3-1.6-3.8s.5-2.8 1.6-3.8 2.4-1.6 4-1.6 2.9.5 4 1.6c1.1 1 1.6 2.3 1.6 3.8s-.5 2.8-1.6 3.8-2.4 1.6-4 1.6c-1.6-.1-2.9-.6-4-1.6z"/></g></svg><svg viewBox="0 0 448.8 448.8" id="check-symbol" xmlns="http://www.w3.org/2000/svg"><path fill="#0b49c7" d="M142.8 323.85L35.7 216.75 0 252.45l142.8 142.8 306-306-35.7-35.7z"/></svg><svg viewBox="0 0 24 24" id="close" xmlns="http://www.w3.org/2000/svg"><path fill-rule="evenodd" fill="#FFF" d="M.545 2.099L2.279.345 23.368 21.69l-1.733 1.755L.545 2.099z"/><path fill-rule="evenodd" fill="#FFF" d="M.834 21.69L21.924.345l1.733 1.754L2.568 23.445.834 21.69z"/></svg><svg viewBox="0 0 7837.89 3239.54" shape-rendering="geometricPrecision" text-rendering="geometricPrecision" image-rendering="optimizeQuality" fill-rule="evenodd" clip-rule="evenodd" id="logo" xmlns="http://www.w3.org/2000/svg"><path d="M4069.77 453.48c-244.34 0-446.89 81.99-602.09 243.82-152.91 159.35-230.42 355.28-230.42 582.26 0 227 77.52 422.91 230.42 582.29 153.23 159.69 355.77 240.69 602.09 240.69 247.68 0 443.61-78.71 598.99-240.69 154.96-161.57 233.59-357.51 233.59-582.29 0-224.78-78.63-420.7-233.59-582.26-155.21-161.83-356.73-243.82-598.99-243.82zm0 183.13c180.61 0 332.65 62.05 452.12 184.51 122.32 122.36 184.37 276.57 184.37 458.44 0 181.9-62.05 336.08-184.41 458.56-120.17 120.17-272.28 181.19-452.07 181.19-181.33 0-330.26-59.34-455.01-181.03-120.43-123.55-181.45-277.87-181.45-458.73 0-180.84 61.02-335.15 181.19-458.44 124.21-124.17 273.1-184.51 455.27-184.51zM7273.6 453.48c-247.24 0-470.43 110.09-606.66 296.81-81.48-197.03-249.98-296.81-501.52-296.81-217.07 0-422.61 91.48-553.46 242.72v-11.6c0-106.54-86.37-192.88-192.87-192.88v1379.62c0 106.53 86.34 192.87 192.87 192.87V963.39c50.76-90.57 122.56-166.47 218.8-231.72 96.11-63.06 196.92-95.06 299.52-95.06 271.44 0 403.39 155.98 403.39 476.92v757.81c0 106.53 86.34 192.87 192.87 192.87v-931.47c0-19.04-1.41-49.18-3.27-89.54l-2.88-65.09c45.72-91.84 117.31-172.74 212.64-240.36 98.99-68.03 198.91-101.14 305.45-101.14 99.99 0 167.53 20.74 258.59 79.48 94.04 57.63 147.95 203.71 147.95 400.65v754.6c0 106.53 86.34 192.87 192.87 192.87v-976.26c0-403.26-205.69-634.47-564.29-634.47zM2138.19 0v1640.45c0 293.67 153.32 462.09 420.6 462.09 136.76 0 237.57-24.46 308.1-74.9l10.33-7.36v-189.15l-36.84 21.23c-78.13 45.04-158.75 66.95-246.42 66.95-189.2 0-262.86-88.96-262.86-317.2v-583.64h215.05c99.47 0 180.09-80.62 180.09-180.09H2331.1V192.87C2331.1 86.34 2244.74 0 2138.2 0zm-627.6 898.02c-26.4-89.43-78.19-166.62-144.38-230.77-66.95 1.24-123.54 43.95-145.84 103.49 58.32 53.85 97.98 124.01 111.51 209.95 12.01 2.89 24.39 4.85 37.28 4.85 61.91 0 115.08-35.83 141.43-87.53z"/><path d="M1369.16 1157.54c-10.84 0-21.1-2.17-31.68-3.2v477.82c-107.76 140.05-313.88 287.16-575.79 287.16a819.2 819.2 0 01-106.22-6.87l-10.19-1.42a703.34 703.34 0 01-28.32-4.83c-434.01-93.58-442.11-489.23-443.68-505.68C117.18 818 492.42 698.48 589.54 668.36c75.5-21.07 152.76-31.75 229.66-31.75 90.99 0 177.76 15.09 253.61 44.53a331.44 331.44 0 01123.29-136.03c-113.87-59.62-240.28-91.65-351.39-91.65-92.34 0-180.82 10.84-261.09 31.75-1.61.26-39.95 7.2-95.01 30.14l-5.84 2.03-.67.75C333.83 581.34-24.17 729.65 1.3 1400.77c.54 13.88.26 342.46 265.15 547.01l24.08 19.18c108.28 78.79 235.74 123.23 385.16 133.13 4.02.78 41.52 2.46 44.49 2.46 258.47 0 472.67-87.26 637.58-259.57 21.77 104.89 83.87 180.7 171.54 214.36v-875.2c0-3.75.89-7.28 1.12-10.97v-57.34c-47.93 27.01-102.44 43.71-161.26 43.71zM1853.37 2943.2h38.74l77.06 223.9 80.5-223.9h48.46l-106.32 290.39h-41.84l-77.42-220.96-77.07 220.96h-42.1l-106.39-290.39h48.46l80.57 223.9zm773.06 160.94l-251.3-.54c1.65 26.16 13.15 48.8 34.41 67.96 21.31 19.09 46.32 28.67 75.06 28.67 19.26 0 37.19-4.07 53.79-12.2 16.54-8.01 28.29-16.05 35.22-24.17l10.98-11.78 28.97 27.11a175.75 175.75 0 01-5.49 6.67c-2.43 2.92-7.66 7.71-15.74 14.49a167.49 167.49 0 01-26.1 18.04c-9.37 5.21-21.42 10-36.16 14.49a160.47 160.47 0 01-45.47 6.66c-42.16 0-78.44-14.79-108.86-44.18-30.41-29.5-45.59-65.15-45.59-107.15 0-41.89 15.01-77.65 45.1-107.04 30.12-29.51 65.54-44.2 106.2-44.2 42.12 0 77.35 13.76 105.71 41.18 28.29 27.52 42.45 62.22 42.45 104.21l-3.18 21.8zm-75.62-101.95c-19.2-17.07-42.33-25.63-69.36-25.63-27.08 0-50.67 8.95-70.8 26.88-20.14 17.93-31.96 39.18-35.51 63.78h209.46c-3.32-26.14-14.58-47.82-33.78-65.04zm400.67-192.29v178.74a84.63 84.63 0 014.63-5.42c2.14-2.5 6.7-6.66 13.48-12.62a138.35 138.35 0 0122.19-15.72c8-4.7 18.2-8.86 30.67-12.53a141.49 141.49 0 0138.52-5.42c39.47 0 74.01 14.9 103.66 44.62 29.67 29.68 44.55 65.34 44.55 106.83 0 41.49-14.81 77.02-44.38 106.62-29.58 29.71-64.16 44.5-103.83 44.5a136.2 136.2 0 01-38.17-5.31c-12.33-3.55-22.63-7.82-31.02-12.7a179.74 179.74 0 01-21.86-14.91c-6.17-5.11-10.77-9.38-13.65-12.93l-4.79-5.64v45.56h-44.92v-423.68h44.92zm33.85 200.21c-22.52 22.31-33.85 48.38-33.85 78.28 0 29.8 11.33 55.87 33.85 78.28 22.54 22.31 47.78 33.55 75.64 33.55 26.63 0 50.48-10.94 71.58-32.74 21.08-21.68 31.64-48.15 31.64-79.1 0-31.05-10.56-57.43-31.64-79.23-21.1-21.77-44.95-32.61-71.58-32.61-27.86 0-53.1 11.14-75.64 33.55zm1000.18-33.54l-32.4 30.11a68.13 68.13 0 00-7.45-8.43c-3.2-3.24-10.71-7.62-22.46-13.25a86.22 86.22 0 00-37.75-8.43c-17.2 0-31.12 4.27-41.84 12.7-10.71 8.44-16.03 18.25-16.03 29.51 0 11.66 5.77 20.96 17.27 28.13 11.54 7.1 25.51 12.73 41.84 16.89a796.17 796.17 0 0149.1 14.48 98.54 98.54 0 0141.84 26.71c11.55 12.29 17.32 27.92 17.32 47.09 0 25.03-10.21 45.77-30.53 62.45-20.35 16.68-47.7 25-82.11 25-14.65 0-28.48-1.75-41.35-5.31-12.92-3.55-23.57-7.82-31.96-12.7a181.48 181.48 0 01-21.87-14.91c-6.12-5.11-10.72-9.38-13.62-12.93l-4.11-5.64 32.4-30.11c.82 1.27 1.99 2.71 3.44 4.58 1.5 1.9 4.76 5.21 9.93 10.12 5.09 4.79 10.6 9.18 16.46 12.91 5.89 3.86 13.43 7.31 22.71 10.23a89.39 89.39 0 0027.96 4.47c21.79 0 38.57-4.59 50.15-13.65 11.66-9.07 17.47-20.53 17.47-34.51 0-12.07-5.81-21.88-17.47-29.39-11.58-7.61-25.58-13.64-41.84-18.04a997.96 997.96 0 01-48.87-14.78c-16.38-5.42-30.38-13.97-42.01-25.75-11.66-11.68-17.47-26.79-17.47-45.34 0-21.89 9.81-40.97 29.39-57.33 19.64-16.38 44.22-24.51 73.8-24.51 11.93 0 23.64 1.35 35.06 3.97 11.44 2.72 20.81 5.94 28.15 9.79a193.96 193.96 0 0119.69 11.78c5.77 4.07 9.88 7.31 12.43 9.61l4.71 4.48zm312.18-63.6v-66.7h41.84v96.93h67.7v39.3h-67.7V3155c0 30.32 13.97 45.44 41.84 45.23 6.87 0 13.76-.82 20.62-2.39 6.78-1.56 11.98-2.92 15.54-4.18l5.68-2.29v39.29c-12.79 6.06-27.43 9.07-43.74 8.86-26.63 0-47.49-7.38-62.47-21.98-15-14.69-22.43-35.53-22.43-62.54v-172.5h-58.27v-39.3h35.63c17.2 0 25.75-10.11 25.75-30.23zm621.49 320.62v-39.29c-.89 1.15-2.13 2.83-3.79 4.9-1.65 2.08-5.65 5.73-11.77 10.94a137.43 137.43 0 01-19.98 13.88c-7.19 4.07-16.52 7.59-28.18 10.72a133.8 133.8 0 01-36.06 4.79c-36.07 0-66.04-11.78-89.78-35.32-23.76-23.55-35.74-54.1-35.74-91.72v-169.28h45.07v169.28c0 25.41 8.31 46.37 25.06 62.96 16.87 16.45 37.4 24.79 61.72 24.79 26.19 0 48.39-9.07 66.35-27.2 18.11-18.13 27.11-41.28 27.11-69.43v-160.4h45.27v290.38h-45.27zm579.85-244.95V2809.9h45.04v423.68h-45.04v-45.56c-.8 1.27-2.33 3.04-4.34 5.54-2.1 2.51-6.66 6.67-13.52 12.5a148.58 148.58 0 01-22.43 15.85c-7.88 4.6-18.19 8.75-30.63 12.3a139.24 139.24 0 01-38.49 5.31c-39.42 0-74.04-14.79-103.66-44.5-29.74-29.6-44.5-65.13-44.5-106.62 0-41.49 14.76-77.15 44.5-106.83 29.62-29.72 64.24-44.62 103.66-44.62 13.19 0 25.95 1.9 38.17 5.42 12.31 3.67 22.63 7.92 30.95 12.73 8.43 4.89 15.77 9.79 21.86 14.91 6.22 5.2 10.89 9.48 14.09 13.01l4.34 5.63zm-33.73 178.04c22.52-22.41 33.73-48.48 33.73-78.28 0-29.91-11.21-55.98-33.73-78.28-22.66-22.41-47.84-33.55-75.69-33.55-26.63 0-50.51 10.83-71.58 32.61-21.1 21.8-31.64 48.17-31.64 79.23 0 30.95 10.54 57.42 31.64 79.1 21.07 21.8 44.95 32.74 71.58 32.74 27.84 0 53.03-11.24 75.69-33.55zm380.09-301.13a25.4 25.4 0 01-8.32-19.28c0-7.7 2.76-14.17 8.32-19.39 5.54-5.21 12.42-7.83 20.62-7.83 8.11 0 15 2.62 20.54 7.83a25.52 25.52 0 018.34 19.39c0 7.6-2.78 14.07-8.34 19.28-5.54 5.32-12.43 7.92-20.54 7.92-8.2 0-15.09-2.6-20.62-7.92zm-1.77 368.04v-290.38h45.07v290.38h-45.07zm364.88-37.82c-30.75-29.08-46.05-64.94-46.05-107.37 0-42.42 15.3-78.28 46.05-107.56 30.74-29.3 68.03-43.89 111.88-43.89 43.83 0 81.02 14.6 111.65 43.89 30.63 29.28 45.93 65.14 45.93 107.56s-15.3 78.28-45.93 107.37c-30.63 29.18-67.82 43.75-111.65 43.75-43.85 0-81.14-14.58-111.88-43.75zm191.22-27.94c22.21-21.59 33.2-48.06 33.2-79.43 0-31.47-10.98-57.96-33.2-79.52-22.08-21.59-48.6-32.31-79.57-32.31-30.96 0-57.47 10.72-79.58 32.31-22.08 21.56-33.17 48.05-33.17 79.31 0 31.16 11.09 57.63 33.17 79.31 22.1 21.8 48.62 32.74 79.58 32.74 30.97 0 57.49-10.84 79.57-32.4z"/></svg><svg viewBox="0 0 63.8 80" id="pin" xmlns="http://www.w3.org/2000/svg"><style>.fst0{fill:#0b49c7}.fst1{fill:#fff}</style><switch><g><path class="fst0" d="M30.8 0C14.9.6 1.7 13 .2 28.8-.2 32 0 35 .6 38c0 0 0 .3.2 1 .5 2.2 1.2 4.3 2.1 6.3 3.2 7.6 10.6 20.3 27.2 34.1 1 .9 2.5.9 3.5 0 16.6-13.8 24-26.5 27.2-34.1.9-2 1.7-4.1 2.1-6.3.1-.6.2-1 .2-1 .4-2 .6-4 .6-6.1.1-18-14.8-32.5-32.9-31.9z"/><path class="fst1" d="M45 25c-.5-1.6-1.4-2.9-2.5-4.1-1.2 0-2.2.8-2.6 1.8 1 .9 1.7 2.2 2 3.7.2.1.4.1.7.1 1 0 2-.6 2.4-1.5z"/><path class="fst1" d="M42.5 29.5c-.2 0-.4 0-.6-.1v8.4c-1.9 2.5-5.5 5-10.1 5-.6 0-1.3 0-1.9-.1h-.2c-.2 0-.3-.1-.5-.1-7.6-1.6-7.8-8.6-7.8-8.9-1-10.2 5.6-12.3 7.3-12.9 1.3-.4 2.7-.6 4-.6 1.6 0 3.1.3 4.5.8.5-1 1.2-1.8 2.2-2.4-2-1-4.2-1.6-6.2-1.6-1.6 0-3.2.2-4.6.6 0 0-.7.1-1.7.5h-.1c-2.6 1.1-8.9 3.7-8.5 15.5 0 .2.1 6 4.7 9.6l.1.1c.1.1.2.1.3.2 1.9 1.4 4.1 2.2 6.8 2.3h.8c4.5 0 8.3-1.5 11.2-4.6.4 1.8 1.5 3.2 3 3.8V30v-1.2c-.7.5-1.6.7-2.7.7z"/></g></switch></svg><svg viewBox="0 0 40.79 64.21" shape-rendering="geometricPrecision" text-rendering="geometricPrecision" image-rendering="optimizeQuality" fill-rule="evenodd" clip-rule="evenodd" id="slider-arrow" xmlns="http://www.w3.org/2000/svg"><path d="M40.79 32.11c-10.7 10.71-21.4 21.4-32.1 32.11L0 55.53l23.41-23.41L0 8.71 8.69.02c10.7 10.7 21.4 21.4 32.1 32.11z"/></svg><svg viewBox="0 0 72 81" id="stripe" xmlns="http://www.w3.org/2000/svg"><path fill-rule="evenodd" d="M11.662 21.957l1.538-1.548 58.155 58.489-1.538 1.547-58.155-58.488zM.636 2.267L2.175.72 60.33 59.207l-1.539 1.548L.636 2.267z"/></svg><svg viewBox="0 0 72 81" id="stripe-blue" xmlns="http://www.w3.org/2000/svg"><path fill-rule="evenodd" fill="#0B49C7" d="M11.662 21.957l1.538-1.548 58.155 58.489-1.538 1.547-58.155-58.488zM.636 2.267L2.175.72 60.33 59.207l-1.539 1.548L.636 2.267z"/></svg><svg viewBox="0 0 72 81" id="stripe-white" xmlns="http://www.w3.org/2000/svg"><path fill-rule="evenodd" fill="#fff" d="M11.773 21.655l1.539-1.547 58.155 58.487-1.539 1.548-58.155-58.488zM.748 1.964L2.287.417l58.155 58.489-1.539 1.547L.748 1.964z"/></svg><svg viewBox="0 0 45.4 45.4" id="telegram" xmlns="http://www.w3.org/2000/svg"><path d="M22.7 0c12.5 0 22.7 10.2 22.7 22.7S35.2 45.4 22.7 45.4 0 35.2 0 22.7 10.2 0 22.7 0zm8.9 16.5c.1-1.1.1-2-1.2-1.9-.8.1-1.8.5-2.4.8-1.5.5-3 1.2-4.5 1.8-3.7 1.5-7.4 3.2-11.1 4.8-3 1.3-.9 1.9.9 2.4 3.5 1.1 3.4.7 6.8-1.6l5.7-3.8c.8-.5.9.1.7.3-.1.3-2.2 2.2-2.4 2.4-.6.5-1.1 1-1.7 1.5l-1.6 1.6c-.4.4-1.4 1.1-.8 1.9.3.4 3.1 2.2 3.7 2.7.7.4 1.2.8 1.9 1.3 1.6 1.2 3.1 1.9 3.7-.6.6-1.8 2.2-11.6 2.3-13.6z"/></svg><svg viewBox="0 0 45.4 45.4" id="whatsapp" xmlns="http://www.w3.org/2000/svg"><path d="M27.9 24.9c-.4-.2-1.9-.9-2.2-.9-.6.1-.8 1.5-1.6 1.4-.5-.1-1.6-.8-2-1.1-.4-.3-2-1.9-2.1-2.5-.1-.7 1.3-.9.8-2l-.9-2.1c-.2-.3-.8-.3-1.2-.2-.6.2-.6.2-.9.6-.9 1-.8 2.5-.3 3.6.6 1.3 1.8 2.7 2.6 3.5 1 1 2.1 1.7 3.7 2.3.6.2 1.7.6 2.5.5 1.2-.2 2.2-1 2.3-2.3 0-.5-.3-.6-.7-.8z"/><path d="M22.7 0C10.2 0 0 10.2 0 22.7s10.2 22.7 22.7 22.7 22.7-10.2 22.7-22.7S35.2 0 22.7 0zm0 32.3c-1.9 0-3.6-.6-5.2-1.5l-1 .3-2.9.9.6-1.7.5-1.5.2-.6c-1.1-1.5-1.7-3.4-1.7-5.5 0-5.3 4.3-9.6 9.6-9.6s9.6 4.3 9.6 9.6c-.1 5.3-4.4 9.6-9.7 9.6z"/></svg><svg viewBox="0 0 32 32" id="zoom" xmlns="http://www.w3.org/2000/svg"><path d="M19.4 23c-1.9 1.2-4.1 1.9-6.5 1.9-6.6 0-12-5.3-12-12s5.3-12 12-12c6.6 0 12 5.3 12 12 0 2.4-.7 4.6-1.9 6.5l1.3 1.3 6.7 6.7-1 1-1.7 1.6-1 1-6.7-6.7-1.2-1.3zm.9-10.1c0-4.1-3.3-7.4-7.4-7.4-4.1 0-7.4 3.3-7.4 7.4 0 4.1 3.3 7.4 7.4 7.4 4.1 0 7.4-3.3 7.4-7.4z"/></svg></svg>